<?xml version="1.0" encoding="utf-8"?>
<svg xmlns="http://www.w3.org/2000/svg" xmlns:xlink="http://www.w3.org/1999/xlink" width="600" height="400" viewBox="0 0 2400 1600">
<defs>
  <clipPath id="clip360">
    <rect x="0" y="0" width="2400" height="1600"/>
  </clipPath>
</defs>
<path clip-path="url(#clip360)" d="M0 1600 L2400 1600 L2400 0 L0 0  Z" fill="#282c34" fill-rule="evenodd" fill-opacity="1"/>
<defs>
  <clipPath id="clip361">
    <rect x="480" y="0" width="1681" height="1600"/>
  </clipPath>
</defs>
<path clip-path="url(#clip360)" d="M205.121 1423.18 L2352.76 1423.18 L2352.76 123.472 L205.121 123.472  Z" fill="#21252b" fill-rule="evenodd" fill-opacity="1"/>
<defs>
  <clipPath id="clip362">
    <rect x="205" y="123" width="2149" height="1301"/>
  </clipPath>
</defs>
<polyline clip-path="url(#clip362)" style="stroke:#adb2b7; stroke-linecap:round; stroke-linejoin:round; stroke-width:2; stroke-opacity:0.1; fill:none" points="265.903,1423.18 265.903,123.472 "/>
<polyline clip-path="url(#clip362)" style="stroke:#adb2b7; stroke-linecap:round; stroke-linejoin:round; stroke-width:2; stroke-opacity:0.1; fill:none" points="828.701,1423.18 828.701,123.472 "/>
<polyline clip-path="url(#clip362)" style="stroke:#adb2b7; stroke-linecap:round; stroke-linejoin:round; stroke-width:2; stroke-opacity:0.1; fill:none" points="1391.5,1423.18 1391.5,123.472 "/>
<polyline clip-path="url(#clip362)" style="stroke:#adb2b7; stroke-linecap:round; stroke-linejoin:round; stroke-width:2; stroke-opacity:0.1; fill:none" points="1954.3,1423.18 1954.3,123.472 "/>
<polyline clip-path="url(#clip360)" style="stroke:#adb2b7; stroke-linecap:round; stroke-linejoin:round; stroke-width:4; stroke-opacity:1; fill:none" points="205.121,1423.18 2352.76,1423.18 "/>
<polyline clip-path="url(#clip360)" style="stroke:#adb2b7; stroke-linecap:round; stroke-linejoin:round; stroke-width:4; stroke-opacity:1; fill:none" points="265.903,1423.18 265.903,1404.28 "/>
<polyline clip-path="url(#clip360)" style="stroke:#adb2b7; stroke-linecap:round; stroke-linejoin:round; stroke-width:4; stroke-opacity:1; fill:none" points="828.701,1423.18 828.701,1404.28 "/>
<polyline clip-path="url(#clip360)" style="stroke:#adb2b7; stroke-linecap:round; stroke-linejoin:round; stroke-width:4; stroke-opacity:1; fill:none" points="1391.5,1423.18 1391.5,1404.28 "/>
<polyline clip-path="url(#clip360)" style="stroke:#adb2b7; stroke-linecap:round; stroke-linejoin:round; stroke-width:4; stroke-opacity:1; fill:none" points="1954.3,1423.18 1954.3,1404.28 "/>
<path clip-path="url(#clip360)" d="M265.903 1454.1 Q262.292 1454.1 260.463 1457.66 Q258.658 1461.2 258.658 1468.33 Q258.658 1475.44 260.463 1479.01 Q262.292 1482.55 265.903 1482.55 Q269.537 1482.55 271.343 1479.01 Q273.172 1475.44 273.172 1468.33 Q273.172 1461.2 271.343 1457.66 Q269.537 1454.1 265.903 1454.1 M265.903 1450.39 Q271.713 1450.39 274.769 1455 Q277.847 1459.58 277.847 1468.33 Q277.847 1477.06 274.769 1481.67 Q271.713 1486.25 265.903 1486.25 Q260.093 1486.25 257.014 1481.67 Q253.959 1477.06 253.959 1468.33 Q253.959 1459.58 257.014 1455 Q260.093 1450.39 265.903 1450.39 Z" fill="#9eb1be" fill-rule="evenodd" fill-opacity="1" /><path clip-path="url(#clip360)" d="M803.4 1451.02 L821.756 1451.02 L821.756 1454.96 L807.682 1454.96 L807.682 1463.43 Q808.701 1463.08 809.719 1462.92 Q810.738 1462.73 811.756 1462.73 Q817.543 1462.73 820.923 1465.9 Q824.302 1469.08 824.302 1474.49 Q824.302 1480.07 820.83 1483.17 Q817.358 1486.25 811.039 1486.25 Q808.863 1486.25 806.594 1485.88 Q804.349 1485.51 801.941 1484.77 L801.941 1480.07 Q804.025 1481.2 806.247 1481.76 Q808.469 1482.32 810.946 1482.32 Q814.951 1482.32 817.289 1480.21 Q819.626 1478.1 819.626 1474.49 Q819.626 1470.88 817.289 1468.77 Q814.951 1466.67 810.946 1466.67 Q809.071 1466.67 807.196 1467.08 Q805.344 1467.5 803.4 1468.38 L803.4 1451.02 Z" fill="#9eb1be" fill-rule="evenodd" fill-opacity="1" /><path clip-path="url(#clip360)" d="M843.515 1454.1 Q839.904 1454.1 838.075 1457.66 Q836.27 1461.2 836.27 1468.33 Q836.27 1475.44 838.075 1479.01 Q839.904 1482.55 843.515 1482.55 Q847.149 1482.55 848.955 1479.01 Q850.784 1475.44 850.784 1468.33 Q850.784 1461.2 848.955 1457.66 Q847.149 1454.1 843.515 1454.1 M843.515 1450.39 Q849.325 1450.39 852.381 1455 Q855.46 1459.58 855.46 1468.33 Q855.46 1477.06 852.381 1481.67 Q849.325 1486.25 843.515 1486.25 Q837.705 1486.25 834.626 1481.67 Q831.571 1477.06 831.571 1468.33 Q831.571 1459.58 834.626 1455 Q837.705 1450.39 843.515 1450.39 Z" fill="#9eb1be" fill-rule="evenodd" fill-opacity="1" /><path clip-path="url(#clip360)" d="M1351.1 1481.64 L1358.74 1481.64 L1358.74 1455.28 L1350.43 1456.95 L1350.43 1452.69 L1358.7 1451.02 L1363.37 1451.02 L1363.37 1481.64 L1371.01 1481.64 L1371.01 1485.58 L1351.1 1485.58 L1351.1 1481.64 Z" fill="#9eb1be" fill-rule="evenodd" fill-opacity="1" /><path clip-path="url(#clip360)" d="M1390.46 1454.1 Q1386.85 1454.1 1385.02 1457.66 Q1383.21 1461.2 1383.21 1468.33 Q1383.21 1475.44 1385.02 1479.01 Q1386.85 1482.55 1390.46 1482.55 Q1394.09 1482.55 1395.9 1479.01 Q1397.72 1475.44 1397.72 1468.33 Q1397.72 1461.2 1395.9 1457.66 Q1394.09 1454.1 1390.46 1454.1 M1390.46 1450.39 Q1396.27 1450.39 1399.32 1455 Q1402.4 1459.58 1402.4 1468.33 Q1402.4 1477.06 1399.32 1481.67 Q1396.27 1486.25 1390.46 1486.25 Q1384.65 1486.25 1381.57 1481.67 Q1378.51 1477.06 1378.51 1468.33 Q1378.51 1459.58 1381.57 1455 Q1384.65 1450.39 1390.46 1450.39 Z" fill="#9eb1be" fill-rule="evenodd" fill-opacity="1" /><path clip-path="url(#clip360)" d="M1420.62 1454.1 Q1417.01 1454.1 1415.18 1457.66 Q1413.37 1461.2 1413.37 1468.33 Q1413.37 1475.44 1415.18 1479.01 Q1417.01 1482.55 1420.62 1482.55 Q1424.25 1482.55 1426.06 1479.01 Q1427.89 1475.44 1427.89 1468.33 Q1427.89 1461.2 1426.06 1457.66 Q1424.25 1454.1 1420.62 1454.1 M1420.62 1450.39 Q1426.43 1450.39 1429.48 1455 Q1432.56 1459.58 1432.56 1468.33 Q1432.56 1477.06 1429.48 1481.67 Q1426.43 1486.25 1420.62 1486.25 Q1414.81 1486.25 1411.73 1481.67 Q1408.67 1477.06 1408.67 1468.33 Q1408.67 1459.58 1411.73 1455 Q1414.81 1450.39 1420.62 1450.39 Z" fill="#9eb1be" fill-rule="evenodd" fill-opacity="1" /><path clip-path="url(#clip360)" d="M1913.9 1481.64 L1921.54 1481.64 L1921.54 1455.28 L1913.23 1456.95 L1913.23 1452.69 L1921.49 1451.02 L1926.17 1451.02 L1926.17 1481.64 L1933.81 1481.64 L1933.81 1485.58 L1913.9 1485.58 L1913.9 1481.64 Z" fill="#9eb1be" fill-rule="evenodd" fill-opacity="1" /><path clip-path="url(#clip360)" d="M1943.3 1451.02 L1961.66 1451.02 L1961.66 1454.96 L1947.58 1454.96 L1947.58 1463.43 Q1948.6 1463.08 1949.62 1462.92 Q1950.64 1462.73 1951.66 1462.73 Q1957.44 1462.73 1960.82 1465.9 Q1964.2 1469.08 1964.2 1474.49 Q1964.2 1480.07 1960.73 1483.17 Q1957.26 1486.25 1950.94 1486.25 Q1948.76 1486.25 1946.49 1485.88 Q1944.25 1485.51 1941.84 1484.77 L1941.84 1480.07 Q1943.93 1481.2 1946.15 1481.76 Q1948.37 1482.32 1950.85 1482.32 Q1954.85 1482.32 1957.19 1480.21 Q1959.53 1478.1 1959.53 1474.49 Q1959.53 1470.88 1957.19 1468.77 Q1954.85 1466.67 1950.85 1466.67 Q1948.97 1466.67 1947.1 1467.08 Q1945.24 1467.5 1943.3 1468.38 L1943.3 1451.02 Z" fill="#9eb1be" fill-rule="evenodd" fill-opacity="1" /><path clip-path="url(#clip360)" d="M1983.42 1454.1 Q1979.8 1454.1 1977.98 1457.66 Q1976.17 1461.2 1976.17 1468.33 Q1976.17 1475.44 1977.98 1479.01 Q1979.8 1482.55 1983.42 1482.55 Q1987.05 1482.55 1988.86 1479.01 Q1990.68 1475.44 1990.68 1468.33 Q1990.68 1461.2 1988.86 1457.66 Q1987.05 1454.1 1983.42 1454.1 M1983.42 1450.39 Q1989.23 1450.39 1992.28 1455 Q1995.36 1459.58 1995.36 1468.33 Q1995.36 1477.06 1992.28 1481.67 Q1989.23 1486.25 1983.42 1486.25 Q1977.61 1486.25 1974.53 1481.67 Q1971.47 1477.06 1971.47 1468.33 Q1971.47 1459.58 1974.53 1455 Q1977.61 1450.39 1983.42 1450.39 Z" fill="#9eb1be" fill-rule="evenodd" fill-opacity="1" /><path clip-path="url(#clip360)" d="M1153.96 1562.63 L1176.4 1562.63 L1176.4 1568.04 L1146.23 1568.04 L1146.23 1562.63 Q1149.89 1558.85 1156.19 1552.48 Q1162.53 1546.08 1164.15 1544.24 Q1167.24 1540.77 1168.45 1538.38 Q1169.69 1535.96 1169.69 1533.64 Q1169.69 1529.85 1167.01 1527.46 Q1164.37 1525.08 1160.11 1525.08 Q1157.08 1525.08 1153.71 1526.13 Q1150.37 1527.18 1146.55 1529.31 L1146.55 1522.82 Q1150.43 1521.26 1153.8 1520.46 Q1157.18 1519.66 1159.98 1519.66 Q1167.36 1519.66 1171.76 1523.36 Q1176.15 1527.05 1176.15 1533.22 Q1176.15 1536.15 1175.03 1538.79 Q1173.95 1541.4 1171.06 1544.97 Q1170.26 1545.89 1165.99 1550.32 Q1161.73 1554.71 1153.96 1562.63 Z" fill="#9eb1be" fill-rule="evenodd" fill-opacity="1" /><path clip-path="url(#clip360)" d="M1213.01 1545.45 L1192.73 1545.45 Q1193.21 1554.96 1195.4 1559 Q1198.14 1563.97 1202.88 1563.97 Q1207.66 1563.97 1210.3 1558.97 Q1212.62 1554.58 1213.01 1545.45 M1212.91 1540.03 Q1212.02 1531 1210.3 1527.81 Q1207.56 1522.78 1202.88 1522.78 Q1198.01 1522.78 1195.44 1527.75 Q1193.4 1531.76 1192.79 1540.03 L1212.91 1540.03 M1202.88 1518.01 Q1210.52 1518.01 1214.88 1524.76 Q1219.24 1531.47 1219.24 1543.38 Q1219.24 1555.25 1214.88 1562 Q1210.52 1568.78 1202.88 1568.78 Q1195.21 1568.78 1190.88 1562 Q1186.52 1555.25 1186.52 1543.38 Q1186.52 1531.47 1190.88 1524.76 Q1195.21 1518.01 1202.88 1518.01 Z" fill="#9eb1be" fill-rule="evenodd" fill-opacity="1" /><path clip-path="url(#clip360)" d="M1263.74 1518.58 Q1259.48 1525.9 1257.41 1533.06 Q1255.34 1540.23 1255.34 1547.58 Q1255.34 1554.93 1257.41 1562.16 Q1259.51 1569.35 1263.74 1576.64 L1258.65 1576.64 Q1253.87 1569.16 1251.49 1561.93 Q1249.13 1554.71 1249.13 1547.58 Q1249.13 1540.48 1251.49 1533.29 Q1253.84 1526.09 1258.65 1518.58 L1263.74 1518.58 Z" fill="#9eb1be" fill-rule="evenodd" fill-opacity="1" /><path clip-path="url(#clip360)" d="M1298.56 1537.81 L1298.56 1518.52 L1304.42 1518.52 L1304.42 1568.04 L1298.56 1568.04 L1298.56 1562.7 Q1296.71 1565.88 1293.88 1567.44 Q1291.08 1568.97 1287.13 1568.97 Q1280.67 1568.97 1276.6 1563.81 Q1272.56 1558.65 1272.56 1550.25 Q1272.56 1541.85 1276.6 1536.69 Q1280.67 1531.54 1287.13 1531.54 Q1291.08 1531.54 1293.88 1533.1 Q1296.71 1534.62 1298.56 1537.81 M1278.6 1550.25 Q1278.6 1556.71 1281.25 1560.4 Q1283.92 1564.07 1288.57 1564.07 Q1293.21 1564.07 1295.89 1560.4 Q1298.56 1556.71 1298.56 1550.25 Q1298.56 1543.79 1295.89 1540.13 Q1293.21 1536.44 1288.57 1536.44 Q1283.92 1536.44 1281.25 1540.13 Q1278.6 1543.79 1278.6 1550.25 Z" fill="#9eb1be" fill-rule="evenodd" fill-opacity="1" /><path clip-path="url(#clip360)" d="M1346.97 1548.76 L1346.97 1551.62 L1320.04 1551.62 Q1320.43 1557.67 1323.67 1560.85 Q1326.95 1564 1332.78 1564 Q1336.15 1564 1339.3 1563.17 Q1342.48 1562.35 1345.6 1560.69 L1345.6 1566.23 Q1342.45 1567.57 1339.14 1568.27 Q1335.83 1568.97 1332.43 1568.97 Q1323.9 1568.97 1318.9 1564 Q1313.93 1559.04 1313.93 1550.57 Q1313.93 1541.82 1318.64 1536.69 Q1323.39 1531.54 1331.41 1531.54 Q1338.6 1531.54 1342.77 1536.18 Q1346.97 1540.8 1346.97 1548.76 M1341.12 1547.04 Q1341.05 1542.23 1338.41 1539.37 Q1335.8 1536.5 1331.47 1536.5 Q1326.57 1536.5 1323.61 1539.27 Q1320.68 1542.04 1320.24 1547.07 L1341.12 1547.04 Z" fill="#9eb1be" fill-rule="evenodd" fill-opacity="1" /><path clip-path="url(#clip360)" d="M1380.04 1549.81 Q1380.04 1543.44 1377.4 1539.94 Q1374.79 1536.44 1370.05 1536.44 Q1365.34 1536.44 1362.7 1539.94 Q1360.09 1543.44 1360.09 1549.81 Q1360.09 1556.14 1362.7 1559.64 Q1365.34 1563.14 1370.05 1563.14 Q1374.79 1563.14 1377.4 1559.64 Q1380.04 1556.14 1380.04 1549.81 M1385.9 1563.62 Q1385.9 1572.72 1381.86 1577.15 Q1377.81 1581.6 1369.47 1581.6 Q1366.39 1581.6 1363.65 1581.13 Q1360.91 1580.68 1358.33 1579.72 L1358.33 1574.03 Q1360.91 1575.43 1363.43 1576.1 Q1365.94 1576.76 1368.55 1576.76 Q1374.31 1576.76 1377.18 1573.74 Q1380.04 1570.75 1380.04 1564.67 L1380.04 1561.77 Q1378.23 1564.92 1375.39 1566.48 Q1372.56 1568.04 1368.62 1568.04 Q1362.06 1568.04 1358.05 1563.05 Q1354.04 1558.05 1354.04 1549.81 Q1354.04 1541.53 1358.05 1536.53 Q1362.06 1531.54 1368.62 1531.54 Q1372.56 1531.54 1375.39 1533.1 Q1378.23 1534.66 1380.04 1537.81 L1380.04 1532.4 L1385.9 1532.4 L1385.9 1563.62 Z" fill="#9eb1be" fill-rule="evenodd" fill-opacity="1" /><path clip-path="url(#clip360)" d="M1397.04 1518.58 L1402.13 1518.58 Q1406.91 1526.09 1409.26 1533.29 Q1411.65 1540.48 1411.65 1547.58 Q1411.65 1554.71 1409.26 1561.93 Q1406.91 1569.16 1402.13 1576.64 L1397.04 1576.64 Q1401.27 1569.35 1403.34 1562.16 Q1405.44 1554.93 1405.44 1547.58 Q1405.44 1540.23 1403.34 1533.06 Q1401.27 1525.9 1397.04 1518.58 Z" fill="#9eb1be" fill-rule="evenodd" fill-opacity="1" /><polyline clip-path="url(#clip362)" style="stroke:#adb2b7; stroke-linecap:round; stroke-linejoin:round; stroke-width:2; stroke-opacity:0.1; fill:none" points="205.121,1134.36 2352.76,1134.36 "/>
<polyline clip-path="url(#clip362)" style="stroke:#adb2b7; stroke-linecap:round; stroke-linejoin:round; stroke-width:2; stroke-opacity:0.1; fill:none" points="205.121,836.316 2352.76,836.316 "/>
<polyline clip-path="url(#clip362)" style="stroke:#adb2b7; stroke-linecap:round; stroke-linejoin:round; stroke-width:2; stroke-opacity:0.1; fill:none" points="205.121,538.268 2352.76,538.268 "/>
<polyline clip-path="url(#clip362)" style="stroke:#adb2b7; stroke-linecap:round; stroke-linejoin:round; stroke-width:2; stroke-opacity:0.1; fill:none" points="205.121,240.22 2352.76,240.22 "/>
<polyline clip-path="url(#clip360)" style="stroke:#adb2b7; stroke-linecap:round; stroke-linejoin:round; stroke-width:4; stroke-opacity:1; fill:none" points="205.121,1423.18 205.121,123.472 "/>
<polyline clip-path="url(#clip360)" style="stroke:#adb2b7; stroke-linecap:round; stroke-linejoin:round; stroke-width:4; stroke-opacity:1; fill:none" points="205.121,1134.36 224.019,1134.36 "/>
<polyline clip-path="url(#clip360)" style="stroke:#adb2b7; stroke-linecap:round; stroke-linejoin:round; stroke-width:4; stroke-opacity:1; fill:none" points="205.121,836.316 224.019,836.316 "/>
<polyline clip-path="url(#clip360)" style="stroke:#adb2b7; stroke-linecap:round; stroke-linejoin:round; stroke-width:4; stroke-opacity:1; fill:none" points="205.121,538.268 224.019,538.268 "/>
<polyline clip-path="url(#clip360)" style="stroke:#adb2b7; stroke-linecap:round; stroke-linejoin:round; stroke-width:4; stroke-opacity:1; fill:none" points="205.121,240.22 224.019,240.22 "/>
<path clip-path="url(#clip360)" d="M117.825 1147.71 L125.464 1147.71 L125.464 1121.34 L117.154 1123.01 L117.154 1118.75 L125.418 1117.08 L130.093 1117.08 L130.093 1147.71 L137.732 1147.71 L137.732 1151.64 L117.825 1151.64 L117.825 1147.71 Z" fill="#9eb1be" fill-rule="evenodd" fill-opacity="1" /><path clip-path="url(#clip360)" d="M157.177 1120.16 Q153.566 1120.16 151.737 1123.73 Q149.931 1127.27 149.931 1134.4 Q149.931 1141.51 151.737 1145.07 Q153.566 1148.61 157.177 1148.61 Q160.811 1148.61 162.616 1145.07 Q164.445 1141.51 164.445 1134.4 Q164.445 1127.27 162.616 1123.73 Q160.811 1120.16 157.177 1120.16 M157.177 1116.46 Q162.987 1116.46 166.042 1121.07 Q169.121 1125.65 169.121 1134.4 Q169.121 1143.13 166.042 1147.73 Q162.987 1152.32 157.177 1152.32 Q151.366 1152.32 148.288 1147.73 Q145.232 1143.13 145.232 1134.4 Q145.232 1125.65 148.288 1121.07 Q151.366 1116.46 157.177 1116.46 Z" fill="#9eb1be" fill-rule="evenodd" fill-opacity="1" /><path clip-path="url(#clip360)" d="M121.043 849.661 L137.362 849.661 L137.362 853.596 L115.418 853.596 L115.418 849.661 Q118.08 846.906 122.663 842.277 Q127.269 837.624 128.45 836.281 Q130.695 833.758 131.575 832.022 Q132.478 830.263 132.478 828.573 Q132.478 825.818 130.533 824.082 Q128.612 822.346 125.51 822.346 Q123.311 822.346 120.857 823.11 Q118.427 823.874 115.649 825.425 L115.649 820.703 Q118.473 819.568 120.927 818.99 Q123.38 818.411 125.418 818.411 Q130.788 818.411 133.982 821.096 Q137.177 823.781 137.177 828.272 Q137.177 830.402 136.367 832.323 Q135.579 834.221 133.473 836.814 Q132.894 837.485 129.792 840.703 Q126.691 843.897 121.043 849.661 Z" fill="#9eb1be" fill-rule="evenodd" fill-opacity="1" /><path clip-path="url(#clip360)" d="M157.177 822.115 Q153.566 822.115 151.737 825.68 Q149.931 829.221 149.931 836.351 Q149.931 843.457 151.737 847.022 Q153.566 850.564 157.177 850.564 Q160.811 850.564 162.616 847.022 Q164.445 843.457 164.445 836.351 Q164.445 829.221 162.616 825.68 Q160.811 822.115 157.177 822.115 M157.177 818.411 Q162.987 818.411 166.042 823.018 Q169.121 827.601 169.121 836.351 Q169.121 845.078 166.042 849.684 Q162.987 854.267 157.177 854.267 Q151.366 854.267 148.288 849.684 Q145.232 845.078 145.232 836.351 Q145.232 827.601 148.288 823.018 Q151.366 818.411 157.177 818.411 Z" fill="#9eb1be" fill-rule="evenodd" fill-opacity="1" /><path clip-path="url(#clip360)" d="M131.181 536.914 Q134.538 537.632 136.413 539.9 Q138.311 542.169 138.311 545.502 Q138.311 550.618 134.792 553.419 Q131.274 556.219 124.793 556.219 Q122.617 556.219 120.302 555.78 Q118.01 555.363 115.556 554.506 L115.556 549.993 Q117.501 551.127 119.816 551.706 Q122.13 552.284 124.654 552.284 Q129.052 552.284 131.343 550.548 Q133.658 548.812 133.658 545.502 Q133.658 542.446 131.505 540.733 Q129.376 538.997 125.556 538.997 L121.529 538.997 L121.529 535.155 L125.742 535.155 Q129.191 535.155 131.019 533.789 Q132.848 532.4 132.848 529.808 Q132.848 527.146 130.95 525.733 Q129.075 524.298 125.556 524.298 Q123.635 524.298 121.436 524.715 Q119.237 525.132 116.598 526.011 L116.598 521.845 Q119.26 521.104 121.575 520.734 Q123.913 520.363 125.973 520.363 Q131.297 520.363 134.399 522.794 Q137.501 525.201 137.501 529.321 Q137.501 532.192 135.857 534.183 Q134.214 536.15 131.181 536.914 Z" fill="#9eb1be" fill-rule="evenodd" fill-opacity="1" /><path clip-path="url(#clip360)" d="M157.177 524.067 Q153.566 524.067 151.737 527.632 Q149.931 531.173 149.931 538.303 Q149.931 545.409 151.737 548.974 Q153.566 552.516 157.177 552.516 Q160.811 552.516 162.616 548.974 Q164.445 545.409 164.445 538.303 Q164.445 531.173 162.616 527.632 Q160.811 524.067 157.177 524.067 M157.177 520.363 Q162.987 520.363 166.042 524.97 Q169.121 529.553 169.121 538.303 Q169.121 547.03 166.042 551.636 Q162.987 556.219 157.177 556.219 Q151.366 556.219 148.288 551.636 Q145.232 547.03 145.232 538.303 Q145.232 529.553 148.288 524.97 Q151.366 520.363 157.177 520.363 Z" fill="#9eb1be" fill-rule="evenodd" fill-opacity="1" /><path clip-path="url(#clip360)" d="M129.862 227.014 L118.056 245.463 L129.862 245.463 L129.862 227.014 M128.635 222.94 L134.515 222.94 L134.515 245.463 L139.445 245.463 L139.445 249.352 L134.515 249.352 L134.515 257.5 L129.862 257.5 L129.862 249.352 L114.26 249.352 L114.26 244.838 L128.635 222.94 Z" fill="#9eb1be" fill-rule="evenodd" fill-opacity="1" /><path clip-path="url(#clip360)" d="M157.177 226.019 Q153.566 226.019 151.737 229.584 Q149.931 233.125 149.931 240.255 Q149.931 247.361 151.737 250.926 Q153.566 254.468 157.177 254.468 Q160.811 254.468 162.616 250.926 Q164.445 247.361 164.445 240.255 Q164.445 233.125 162.616 229.584 Q160.811 226.019 157.177 226.019 M157.177 222.315 Q162.987 222.315 166.042 226.922 Q169.121 231.505 169.121 240.255 Q169.121 248.982 166.042 253.588 Q162.987 258.172 157.177 258.172 Q151.366 258.172 148.288 253.588 Q145.232 248.982 145.232 240.255 Q145.232 231.505 148.288 226.922 Q151.366 222.315 157.177 222.315 Z" fill="#9eb1be" fill-rule="evenodd" fill-opacity="1" /><path clip-path="url(#clip360)" d="M16.4842 1009.4 L16.4842 1002.97 L64.0042 1002.97 L64.0042 1009.4 L16.4842 1009.4 Z" fill="#9eb1be" fill-rule="evenodd" fill-opacity="1" /><path clip-path="url(#clip360)" d="M42.4881 960.796 L64.0042 960.796 L64.0042 966.652 L42.679 966.652 Q37.6183 966.652 35.1038 968.626 Q32.5894 970.599 32.5894 974.546 Q32.5894 979.288 35.6131 982.026 Q38.6368 984.763 43.8567 984.763 L64.0042 984.763 L64.0042 990.651 L28.3562 990.651 L28.3562 984.763 L33.8944 984.763 Q30.6797 982.662 29.0883 979.83 Q27.4968 976.965 27.4968 973.241 Q27.4968 967.098 31.3163 963.947 Q35.1038 960.796 42.4881 960.796 Z" fill="#9eb1be" fill-rule="evenodd" fill-opacity="1" /><path clip-path="url(#clip360)" d="M18.2347 943.322 L28.3562 943.322 L28.3562 931.259 L32.9077 931.259 L32.9077 943.322 L52.2594 943.322 Q56.6199 943.322 57.8613 942.145 Q59.1026 940.935 59.1026 937.275 L59.1026 931.259 L64.0042 931.259 L64.0042 937.275 Q64.0042 944.054 61.4897 946.632 Q58.9434 949.21 52.2594 949.21 L32.9077 949.21 L32.9077 953.507 L28.3562 953.507 L28.3562 949.21 L18.2347 949.21 L18.2347 943.322 Z" fill="#9eb1be" fill-rule="evenodd" fill-opacity="1" /><path clip-path="url(#clip360)" d="M44.7161 893.065 L47.5806 893.065 L47.5806 919.992 Q53.6281 919.61 56.8109 916.363 Q59.9619 913.085 59.9619 907.26 Q59.9619 903.887 59.1344 900.736 Q58.3069 897.553 56.6518 894.434 L62.1899 894.434 Q63.5267 897.585 64.227 900.895 Q64.9272 904.205 64.9272 907.611 Q64.9272 916.141 59.9619 921.138 Q54.9967 926.103 46.5303 926.103 Q37.7774 926.103 32.6531 921.392 Q27.4968 916.65 27.4968 908.629 Q27.4968 901.436 32.1438 897.266 Q36.7589 893.065 44.7161 893.065 M42.9973 898.921 Q38.1912 898.985 35.3266 901.627 Q32.4621 904.237 32.4621 908.565 Q32.4621 913.467 35.2312 916.427 Q38.0002 919.355 43.0292 919.801 L42.9973 898.921 Z" fill="#9eb1be" fill-rule="evenodd" fill-opacity="1" /><path clip-path="url(#clip360)" d="M42.4881 853.82 L64.0042 853.82 L64.0042 859.677 L42.679 859.677 Q37.6183 859.677 35.1038 861.65 Q32.5894 863.624 32.5894 867.57 Q32.5894 872.313 35.6131 875.05 Q38.6368 877.787 43.8567 877.787 L64.0042 877.787 L64.0042 883.676 L28.3562 883.676 L28.3562 877.787 L33.8944 877.787 Q30.6797 875.687 29.0883 872.854 Q27.4968 869.989 27.4968 866.265 Q27.4968 860.122 31.3163 856.971 Q35.1038 853.82 42.4881 853.82 Z" fill="#9eb1be" fill-rule="evenodd" fill-opacity="1" /><path clip-path="url(#clip360)" d="M29.4065 819.414 L34.9447 819.414 Q33.6716 821.896 33.035 824.57 Q32.3984 827.244 32.3984 830.108 Q32.3984 834.469 33.7352 836.665 Q35.072 838.829 37.7456 838.829 Q39.7826 838.829 40.9603 837.27 Q42.1061 835.71 43.1565 830.999 L43.6021 828.994 Q44.9389 822.756 47.3897 820.146 Q49.8086 817.504 54.1691 817.504 Q59.1344 817.504 62.0308 821.451 Q64.9272 825.366 64.9272 832.241 Q64.9272 835.105 64.3543 838.224 Q63.8132 841.312 62.6992 844.749 L56.6518 844.749 Q58.3387 841.503 59.198 838.352 Q60.0256 835.201 60.0256 832.113 Q60.0256 827.976 58.6251 825.748 Q57.1929 823.52 54.6147 823.52 Q52.2276 823.52 50.9545 825.143 Q49.6813 826.734 48.5037 832.177 L48.0262 834.214 Q46.8804 839.657 44.5251 842.076 Q42.138 844.495 38.0002 844.495 Q32.9713 844.495 30.2341 840.93 Q27.4968 837.365 27.4968 830.808 Q27.4968 827.562 27.9743 824.697 Q28.4517 821.833 29.4065 819.414 Z" fill="#9eb1be" fill-rule="evenodd" fill-opacity="1" /><path clip-path="url(#clip360)" d="M28.3562 808.178 L28.3562 802.322 L64.0042 802.322 L64.0042 808.178 L28.3562 808.178 M14.479 808.178 L14.479 802.322 L21.895 802.322 L21.895 808.178 L14.479 808.178 Z" fill="#9eb1be" fill-rule="evenodd" fill-opacity="1" /><path clip-path="url(#clip360)" d="M18.2347 784.275 L28.3562 784.275 L28.3562 772.212 L32.9077 772.212 L32.9077 784.275 L52.2594 784.275 Q56.6199 784.275 57.8613 783.097 Q59.1026 781.888 59.1026 778.228 L59.1026 772.212 L64.0042 772.212 L64.0042 778.228 Q64.0042 785.007 61.4897 787.585 Q58.9434 790.163 52.2594 790.163 L32.9077 790.163 L32.9077 794.46 L28.3562 794.46 L28.3562 790.163 L18.2347 790.163 L18.2347 784.275 Z" fill="#9eb1be" fill-rule="evenodd" fill-opacity="1" /><path clip-path="url(#clip360)" d="M67.3143 749.677 Q73.68 752.16 75.6216 754.515 Q77.5631 756.871 77.5631 760.817 L77.5631 765.496 L72.6615 765.496 L72.6615 762.059 Q72.6615 759.64 71.5157 758.303 Q70.3699 756.966 66.1048 755.343 L63.4312 754.293 L28.3562 768.711 L28.3562 762.504 L56.238 751.364 L28.3562 740.224 L28.3562 734.018 L67.3143 749.677 Z" fill="#9eb1be" fill-rule="evenodd" fill-opacity="1" /><path clip-path="url(#clip360)" d="M14.5426 691.145 Q21.8632 695.41 29.0246 697.479 Q36.186 699.547 43.5384 699.547 Q50.8908 699.547 58.1159 697.479 Q65.3091 695.378 72.5979 691.145 L72.5979 696.237 Q65.1182 701.012 57.8931 703.399 Q50.668 705.754 43.5384 705.754 Q36.4406 705.754 29.2474 703.399 Q22.0542 701.043 14.5426 696.237 L14.5426 691.145 Z" fill="#9eb1be" fill-rule="evenodd" fill-opacity="1" /><path clip-path="url(#clip360)" d="M46.0847 663.581 Q46.0847 670.679 47.7079 673.416 Q49.3312 676.153 53.2461 676.153 Q56.3653 676.153 58.2114 674.116 Q60.0256 672.048 60.0256 668.515 Q60.0256 663.645 56.5881 660.717 Q53.1188 657.757 47.3897 657.757 L46.0847 657.757 L46.0847 663.581 M43.6657 651.9 L64.0042 651.9 L64.0042 657.757 L58.5933 657.757 Q61.8398 659.762 63.3994 662.754 Q64.9272 665.746 64.9272 670.074 Q64.9272 675.549 61.8716 678.795 Q58.7843 682.01 53.6281 682.01 Q47.6125 682.01 44.5569 678 Q41.5014 673.957 41.5014 665.968 L41.5014 657.757 L40.9285 657.757 Q36.8862 657.757 34.6901 660.43 Q32.4621 663.072 32.4621 667.878 Q32.4621 670.934 33.1941 673.83 Q33.9262 676.726 35.3903 679.4 L29.9795 679.4 Q28.7381 676.185 28.1334 673.162 Q27.4968 670.138 27.4968 667.273 Q27.4968 659.539 31.5072 655.72 Q35.5176 651.9 43.6657 651.9 Z" fill="#9eb1be" fill-rule="evenodd" fill-opacity="1" /><path clip-path="url(#clip360)" d="M33.8307 619.18 Q33.2578 620.167 33.0032 621.345 Q32.7167 622.491 32.7167 623.891 Q32.7167 628.856 35.9632 631.53 Q39.1779 634.172 45.2253 634.172 L64.0042 634.172 L64.0042 640.06 L28.3562 640.06 L28.3562 634.172 L33.8944 634.172 Q30.6479 632.326 29.0883 629.366 Q27.4968 626.405 27.4968 622.172 Q27.4968 621.568 27.5923 620.835 Q27.656 620.103 27.8151 619.212 L33.8307 619.18 Z" fill="#9eb1be" fill-rule="evenodd" fill-opacity="1" /><path clip-path="url(#clip360)" d="M46.212 587.447 Q39.7508 587.447 36.0905 590.121 Q32.3984 592.763 32.3984 597.41 Q32.3984 602.057 36.0905 604.73 Q39.7508 607.372 46.212 607.372 Q52.6732 607.372 56.3653 604.73 Q60.0256 602.057 60.0256 597.41 Q60.0256 592.763 56.3653 590.121 Q52.6732 587.447 46.212 587.447 M33.7671 607.372 Q30.5842 605.526 29.0564 602.725 Q27.4968 599.892 27.4968 595.977 Q27.4968 589.484 32.6531 585.442 Q37.8093 581.368 46.212 581.368 Q54.6147 581.368 59.771 585.442 Q64.9272 589.484 64.9272 595.977 Q64.9272 599.892 63.3994 602.725 Q61.8398 605.526 58.657 607.372 L64.0042 607.372 L64.0042 613.26 L14.479 613.26 L14.479 607.372 L33.7671 607.372 Z" fill="#9eb1be" fill-rule="evenodd" fill-opacity="1" /><path clip-path="url(#clip360)" d="M55.9197 570.833 L55.9197 564.117 L64.0042 564.117 L64.0042 570.833 L55.9197 570.833 Z" fill="#9eb1be" fill-rule="evenodd" fill-opacity="1" /><path clip-path="url(#clip360)" d="M14.5426 551.863 L14.5426 546.77 Q22.0542 541.996 29.2474 539.641 Q36.4406 537.254 43.5384 537.254 Q50.668 537.254 57.8931 539.641 Q65.1182 541.996 72.5979 546.77 L72.5979 551.863 Q65.3091 547.63 58.1159 545.561 Q50.8908 543.46 43.5384 543.46 Q36.186 543.46 29.0246 545.561 Q21.8632 547.63 14.5426 551.863 Z" fill="#9eb1be" fill-rule="evenodd" fill-opacity="1" /><path clip-path="url(#clip360)" d="M1069 12.096 L1077.79 12.096 L1092.82 34.5785 L1107.93 12.096 L1116.72 12.096 L1097.28 41.141 L1118.02 72.576 L1109.23 72.576 L1092.21 46.8528 L1075.08 72.576 L1066.25 72.576 L1087.84 40.2903 L1069 12.096 Z" fill="#adb2b7" fill-rule="evenodd" fill-opacity="1" /><path clip-path="url(#clip360)" d="M1157.43 44.2197 Q1160.06 45.1109 1162.54 48.0275 Q1165.05 50.9442 1167.56 56.0483 L1175.86 72.576 L1167.07 72.576 L1159.34 57.061 Q1156.34 50.9847 1153.5 48.9997 Q1150.71 47.0148 1145.85 47.0148 L1136.93 47.0148 L1136.93 72.576 L1128.75 72.576 L1128.75 12.096 L1147.22 12.096 Q1157.59 12.096 1162.7 16.4305 Q1167.8 20.7649 1167.8 29.5149 Q1167.8 35.2267 1165.13 38.994 Q1162.5 42.7613 1157.43 44.2197 M1136.93 18.8205 L1136.93 40.2903 L1147.22 40.2903 Q1153.14 40.2903 1156.14 37.5762 Q1159.17 34.8216 1159.17 29.5149 Q1159.17 24.2082 1156.14 21.5346 Q1153.14 18.8205 1147.22 18.8205 L1136.93 18.8205 Z" fill="#adb2b7" fill-rule="evenodd" fill-opacity="1" /><path clip-path="url(#clip360)" d="M1194.58 18.8205 L1194.58 65.8515 L1204.46 65.8515 Q1216.98 65.8515 1222.77 60.1802 Q1228.61 54.509 1228.61 42.2752 Q1228.61 30.1225 1222.77 24.4918 Q1216.98 18.8205 1204.46 18.8205 L1194.58 18.8205 M1186.4 12.096 L1203.21 12.096 Q1220.79 12.096 1229.01 19.4281 Q1237.23 26.7198 1237.23 42.2752 Q1237.23 57.9117 1228.97 65.2439 Q1220.71 72.576 1203.21 72.576 L1186.4 72.576 L1186.4 12.096 Z" fill="#adb2b7" fill-rule="evenodd" fill-opacity="1" /><path clip-path="url(#clip360)" d="M1272.56 46.5287 L1294.39 46.5287 L1294.39 53.1722 L1272.56 53.1722 L1272.56 46.5287 Z" fill="#adb2b7" fill-rule="evenodd" fill-opacity="1" /><path clip-path="url(#clip360)" d="M1341.14 43.6931 L1341.14 65.8515 L1354.27 65.8515 Q1360.87 65.8515 1364.03 63.1374 Q1367.23 60.3828 1367.23 54.752 Q1367.23 49.0808 1364.03 46.4072 Q1360.87 43.6931 1354.27 43.6931 L1341.14 43.6931 M1341.14 18.8205 L1341.14 37.0496 L1353.25 37.0496 Q1359.25 37.0496 1362.16 34.8216 Q1365.12 32.5531 1365.12 27.935 Q1365.12 23.3575 1362.16 21.089 Q1359.25 18.8205 1353.25 18.8205 L1341.14 18.8205 M1332.96 12.096 L1353.86 12.096 Q1363.22 12.096 1368.28 15.9849 Q1373.34 19.8737 1373.34 27.0438 Q1373.34 32.5936 1370.75 35.8748 Q1368.16 39.156 1363.14 39.9662 Q1369.17 41.2625 1372.49 45.3944 Q1375.86 49.4858 1375.86 55.6432 Q1375.86 63.745 1370.35 68.1605 Q1364.84 72.576 1354.67 72.576 L1332.96 72.576 L1332.96 12.096 Z" fill="#adb2b7" fill-rule="evenodd" fill-opacity="1" /><path clip-path="url(#clip360)" d="M1433.7 16.7545 L1433.7 25.383 Q1429.57 21.5346 1424.87 19.6307 Q1420.21 17.7268 1414.95 17.7268 Q1404.58 17.7268 1399.07 24.0867 Q1393.56 30.4061 1393.56 42.3968 Q1393.56 54.3469 1399.07 60.7069 Q1404.58 67.0263 1414.95 67.0263 Q1420.21 67.0263 1424.87 65.1223 Q1429.57 63.2184 1433.7 59.3701 L1433.7 67.9175 Q1429.41 70.8341 1424.59 72.2924 Q1419.81 73.7508 1414.46 73.7508 Q1400.73 73.7508 1392.83 65.3654 Q1384.93 56.9395 1384.93 42.3968 Q1384.93 27.8135 1392.83 19.4281 Q1400.73 11.0023 1414.46 11.0023 Q1419.89 11.0023 1424.67 12.4606 Q1429.49 13.8784 1433.7 16.7545 Z" fill="#adb2b7" fill-rule="evenodd" fill-opacity="1" /><path clip-path="url(#clip360)" d="M1491.63 16.7545 L1491.63 25.383 Q1487.5 21.5346 1482.8 19.6307 Q1478.14 17.7268 1472.88 17.7268 Q1462.51 17.7268 1457 24.0867 Q1451.49 30.4061 1451.49 42.3968 Q1451.49 54.3469 1457 60.7069 Q1462.51 67.0263 1472.88 67.0263 Q1478.14 67.0263 1482.8 65.1223 Q1487.5 63.2184 1491.63 59.3701 L1491.63 67.9175 Q1487.34 70.8341 1482.52 72.2924 Q1477.74 73.7508 1472.39 73.7508 Q1458.66 73.7508 1450.76 65.3654 Q1442.86 56.9395 1442.86 42.3968 Q1442.86 27.8135 1450.76 19.4281 Q1458.66 11.0023 1472.39 11.0023 Q1477.82 11.0023 1482.6 12.4606 Q1487.42 13.8784 1491.63 16.7545 Z" fill="#adb2b7" fill-rule="evenodd" fill-opacity="1" /><polyline clip-path="url(#clip362)" style="stroke:#fe4365; stroke-linecap:round; stroke-linejoin:round; stroke-width:4; stroke-opacity:1; fill:none" points="265.903,1374.61 267.931,1368.23 269.959,1386.4 271.987,1375.38 274.015,1371.99 276.044,1368.58 278.072,1371.82 280.1,1378.08 282.128,1370.89 284.156,1365.87 286.184,1374.26 288.212,1384.68 290.24,1367.48 292.268,1377.76 294.296,1379.52 296.325,1366.29 298.353,1358.56 300.381,1372.78 302.409,1370.94 304.437,1373.94 306.465,1366.82 308.493,1378.33 310.521,1368.2 312.549,1366.96 314.577,1375.43 316.606,1375.75 318.634,1365.26 320.662,1369.57 322.69,1363.12 324.718,1367.61 326.746,1362.25 328.774,1367.06 330.802,1362.21 332.83,1384.94 334.858,1361.11 336.887,1369.64 338.915,1367.84 340.943,1374.45 342.971,1372.45 344.999,1365.44 347.027,1374.62 349.055,1354.46 351.083,1367.27 353.111,1361.14 355.139,1374.17 357.168,1378.91 359.196,1366.38 361.224,1365.21 363.252,1361.45 365.28,1365.84 367.308,1363.36 369.336,1373.44 371.364,1349.23 373.392,1366.76 375.42,1373.26 377.449,1366.15 379.477,1374.24 381.505,1362.55 383.533,1359.83 385.561,1362.1 387.589,1369.36 389.617,1369.39 391.645,1380.66 393.673,1362.57 395.701,1357.25 397.73,1371.84 399.758,1362.86 401.786,1358.22 403.814,1368.14 405.842,1366.37 407.87,1355.33 409.898,1360.54 411.926,1369.21 413.954,1355.05 415.982,1359.75 418.011,1356.71 420.039,1356.87 422.067,1339.32 424.095,1381.56 426.123,1376.67 428.151,1360.5 430.179,1363.24 432.207,1358.94 434.235,1355.53 436.263,1364.49 438.291,1369.11 440.32,1354.81 442.348,1354.38 444.376,1362.29 446.404,1365.91 448.432,1350.89 450.46,1368.93 452.488,1355.66 454.516,1356.05 456.544,1358.77 458.572,1373.65 460.601,1356.41 462.629,1364.2 464.657,1355.46 466.685,1365.5 468.713,1356.42 470.741,1355.37 472.769,1359.15 474.797,1365.41 476.825,1363.88 478.853,1346.57 480.882,1350.91 482.91,1362.69 484.938,1357.19 486.966,1359.83 488.994,1362.66 491.022,1353.35 493.05,1351.97 495.078,1371.91 497.106,1355.79 499.134,1356.26 501.163,1359.56 503.191,1346.52 505.219,1364.06 507.247,1358.93 509.275,1361.8 511.303,1354.87 513.331,1348.96 515.359,1357.29 517.387,1347.93 519.415,1343.53 521.444,1363.7 523.472,1350.8 525.5,1359 527.528,1361.82 529.556,1347.37 531.584,1353.78 533.612,1354.51 535.64,1353.4 537.668,1359.38 539.696,1340.98 541.725,1355.27 543.753,1344.16 545.781,1347.69 547.809,1353.79 549.837,1353.72 551.865,1358.65 553.893,1366.6 555.921,1369.42 557.949,1352.53 559.977,1358.91 562.006,1348.97 564.034,1366.87 566.062,1358.46 568.09,1344.63 570.118,1345.18 572.146,1358.53 574.174,1358.94 576.202,1361.97 578.23,1351.21 580.258,1346.96 582.287,1355.35 584.315,1352.39 586.343,1341.47 588.371,1347.2 590.399,1350.95 592.427,1377.83 594.455,1350.5 596.483,1350.32 598.511,1350 600.539,1342.36 602.567,1352.22 604.596,1359.73 606.624,1354.44 608.652,1360.44 610.68,1363.66 612.708,1348.07 614.736,1342 616.764,1346.21 618.792,1365.7 620.82,1359.01 622.848,1358.12 624.877,1348.01 626.905,1352.83 628.933,1352.53 630.961,1352.28 632.989,1358.11 635.017,1355.22 637.045,1349.95 639.073,1353.17 641.101,1345.91 643.129,1341.54 645.158,1340.4 647.186,1342.43 649.214,1363.72 651.242,1336.27 653.27,1354.86 655.298,1344.06 657.326,1358.65 659.354,1351.88 661.382,1340.29 663.41,1349.76 665.439,1347.09 667.467,1352.72 669.495,1346.44 671.523,1354.01 673.551,1332.78 675.579,1351.24 677.607,1336.73 679.635,1346.88 681.663,1331.81 683.691,1352 685.72,1336.57 687.748,1353.37 689.776,1339.08 691.804,1318.24 693.832,1291.42 695.86,1204.37 697.888,946.901 699.916,886.004 701.944,899.849 703.972,1143.61 706.001,1293.36 708.029,1332.85 710.057,1316.51 712.085,1339.25 714.113,1344.73 716.141,1336.64 718.169,1350.32 720.197,1353.81 722.225,1350.19 724.253,1332.74 726.282,1358.83 728.31,1356.63 730.338,1349.32 732.366,1360.26 734.394,1333.08 736.422,1348.58 738.45,1338.46 740.478,1337.42 742.506,1332.39 744.534,1359.98 746.563,1346.29 748.591,1345.78 750.619,1347.54 752.647,1342.74 754.675,1329.07 756.703,1334.75 758.731,1343.86 760.759,1361.3 762.787,1339.22 764.815,1338.27 766.843,1339.05 768.872,1342.28 770.9,1361.59 772.928,1342.9 774.956,1348.59 776.984,1336.53 779.012,1340.13 781.04,1324.66 783.068,1347 785.096,1345.97 787.124,1343.54 789.153,1348.72 791.181,1340.69 793.209,1348.37 795.237,1335.27 797.265,1343.28 799.293,1343.62 801.321,1338.01 803.349,1352.82 805.377,1338.09 807.405,1354.54 809.434,1343.14 811.462,1342.77 813.49,1346.94 815.518,1337.56 817.546,1346.74 819.574,1325.57 821.602,1349.22 823.63,1325.89 825.658,1343.94 827.686,1339.29 829.715,1343.6 831.743,1332.56 833.771,1332.89 835.799,1337.01 837.827,1349.82 839.855,1332.65 841.883,1352.37 843.911,1330.74 845.939,1353.43 847.967,1335.62 849.996,1339.33 852.024,1341.01 854.052,1336.72 856.08,1342.33 858.108,1349.6 860.136,1320.38 862.164,1347.89 864.192,1333.95 866.22,1347.53 868.248,1343.25 870.277,1347.92 872.305,1341.4 874.333,1323.56 876.361,1342.91 878.389,1333.09 880.417,1339.7 882.445,1328.4 884.473,1330.59 886.501,1287.16 888.529,1262.95 890.558,1159.09 892.586,1145.47 894.614,1168.83 896.642,1250.5 898.67,1287.22 900.698,1310.26 902.726,1316.65 904.754,1329.04 906.782,1328.43 908.81,1336.72 910.839,1325.7 912.867,1320.82 914.895,1341.71 916.923,1353.25 918.951,1336.74 920.979,1342 923.007,1334.1 925.035,1333.76 927.063,1334.38 929.091,1324.85 931.119,1329.22 933.148,1330.38 935.176,1313.61 937.204,1340.51 939.232,1326.48 941.26,1344.3 943.288,1341.97 945.316,1339.99 947.344,1325.16 949.372,1338.1 951.4,1338.21 953.429,1329.37 955.457,1340.3 957.485,1326.54 959.513,1338.55 961.541,1346.41 963.569,1322.53 965.597,1326.63 967.625,1351.29 969.653,1342.86 971.681,1334.06 973.71,1329.99 975.738,1339.71 977.766,1327.96 979.794,1342.97 981.822,1324.16 983.85,1343.94 985.878,1325.81 987.906,1338.11 989.934,1320.24 991.962,1312.31 993.991,1319.23 996.019,1329.01 998.047,1335.19 1000.07,1339.09 1002.1,1320.29 1004.13,1322.36 1006.16,1322.12 1008.19,1334.76 1010.22,1343.77 1012.24,1355.07 1014.27,1296.64 1016.3,1334.1 1018.33,1315.43 1020.36,1325.67 1022.38,1338.04 1024.41,1324.54 1026.44,1343.51 1028.47,1331.84 1030.5,1329.04 1032.52,1325.74 1034.55,1337.04 1036.58,1317.99 1038.61,1314.06 1040.64,1287.05 1042.66,1260.98 1044.69,1168.85 1046.72,1073.09 1048.75,793.082 1050.78,565.871 1052.81,684.363 1054.83,852.634 1056.86,1153.6 1058.89,1224.32 1060.92,1302.05 1062.95,1287.5 1064.97,1313.64 1067,1310.8 1069.03,1304.72 1071.06,1324.02 1073.09,1319.94 1075.11,1306.87 1077.14,1331.18 1079.17,1331.33 1081.2,1325.63 1083.23,1333.27 1085.26,1326.95 1087.28,1322.65 1089.31,1341.23 1091.34,1323.99 1093.37,1342.29 1095.4,1324.4 1097.42,1311.92 1099.45,1321.47 1101.48,1345.13 1103.51,1347.75 1105.54,1330.45 1107.56,1329.09 1109.59,1329.57 1111.62,1337.55 1113.65,1335.07 1115.68,1309.43 1117.7,1332.2 1119.73,1334.32 1121.76,1331.23 1123.79,1324.45 1125.82,1317.33 1127.85,1333.85 1129.87,1320.55 1131.9,1316.69 1133.93,1320.86 1135.96,1313.89 1137.99,1337.09 1140.01,1302.72 1142.04,1320.78 1144.07,1328.17 1146.1,1334.5 1148.13,1328.6 1150.15,1327.24 1152.18,1334.97 1154.21,1332.37 1156.24,1324.45 1158.27,1319.07 1160.29,1319.76 1162.32,1328.3 1164.35,1318.41 1166.38,1336.01 1168.41,1317.98 1170.44,1322.37 1172.46,1328.93 1174.49,1318.54 1176.52,1333.3 1178.55,1311.51 1180.58,1306.81 1182.6,1324.1 1184.63,1313.98 1186.66,1324.78 1188.69,1281.22 1190.72,1230.51 1192.74,1171.4 1194.77,909.713 1196.8,889.829 1198.83,996.788 1200.86,1165.38 1202.88,1205.23 1204.91,1299.14 1206.94,1303.27 1208.97,1313.72 1211,1309.26 1213.03,1317.18 1215.05,1333.3 1217.08,1303.47 1219.11,1332.9 1221.14,1302.45 1223.17,1324.11 1225.19,1333.51 1227.22,1309.7 1229.25,1310.13 1231.28,1312.66 1233.31,1334.24 1235.33,1319.79 1237.36,1304.3 1239.39,1320.11 1241.42,1321.21 1243.45,1311.17 1245.47,1319.38 1247.5,1338.13 1249.53,1317.67 1251.56,1311.65 1253.59,1318.51 1255.62,1337.39 1257.64,1315.11 1259.67,1305.15 1261.7,1334.72 1263.73,1320.54 1265.76,1342.93 1267.78,1304.54 1269.81,1344.78 1271.84,1330.13 1273.87,1314.29 1275.9,1320.49 1277.92,1311.3 1279.95,1315.58 1281.98,1321.74 1284.01,1304.55 1286.04,1318.72 1288.06,1324.45 1290.09,1317.09 1292.12,1305.33 1294.15,1324.58 1296.18,1321.21 1298.21,1306.18 1300.23,1334.65 1302.26,1314.94 1304.29,1304.86 1306.32,1316.05 1308.35,1329.45 1310.37,1309.11 1312.4,1329.5 1314.43,1295.66 1316.46,1319.58 1318.49,1308.49 1320.51,1293.9 1322.54,1298.66 1324.57,1297.71 1326.6,1286.19 1328.63,1295.06 1330.65,1186.81 1332.68,1031.04 1334.71,860.33 1336.74,680.498 1338.77,586.639 1340.8,933.805 1342.82,1017.78 1344.85,1180.87 1346.88,1218.8 1348.91,1274.55 1350.94,1309.04 1352.96,1296.08 1354.99,1298.26 1357.02,1309.72 1359.05,1279.51 1361.08,1320.59 1363.1,1328.05 1365.13,1323.5 1367.16,1321.69 1369.19,1316.68 1371.22,1328.07 1373.25,1322.49 1375.27,1306.99 1377.3,1313.28 1379.33,1313.63 1381.36,1316.71 1383.39,1317.59 1385.41,1278.91 1387.44,1308.19 1389.47,1348.69 1391.5,1326.27 1393.53,1300.82 1395.55,1309.8 1397.58,1304.27 1399.61,1316.13 1401.64,1311.37 1403.67,1296.08 1405.69,1310.15 1407.72,1320.27 1409.75,1323.44 1411.78,1343.85 1413.81,1322.28 1415.84,1324.08 1417.86,1301.11 1419.89,1297.57 1421.92,1312.49 1423.95,1298.39 1425.98,1301.02 1428,1325 1430.03,1306.2 1432.06,1313.95 1434.09,1307.05 1436.12,1324.94 1438.14,1344.92 1440.17,1313.14 1442.2,1324.8 1444.23,1308.35 1446.26,1321.58 1448.28,1312.7 1450.31,1304.45 1452.34,1322.64 1454.37,1307.11 1456.4,1313.81 1458.43,1297.15 1460.45,1318.31 1462.48,1314.52 1464.51,1318.08 1466.54,1308.45 1468.57,1291.43 1470.59,1276.11 1472.62,1278.5 1474.65,1226.35 1476.68,1174.48 1478.71,1139.31 1480.73,1090.34 1482.76,1128.19 1484.79,1213.67 1486.82,1220.22 1488.85,1245.76 1490.87,1286.49 1492.9,1283.45 1494.93,1304.74 1496.96,1322.99 1498.99,1306.92 1501.02,1326.21 1503.04,1320.27 1505.07,1323.53 1507.1,1300.46 1509.13,1306.17 1511.16,1303.59 1513.18,1326.45 1515.21,1315.42 1517.24,1313.69 1519.27,1331.09 1521.3,1340.88 1523.32,1330.16 1525.35,1293.66 1527.38,1316.43 1529.41,1323.64 1531.44,1293.43 1533.46,1326.71 1535.49,1303.34 1537.52,1327.24 1539.55,1313.98 1541.58,1298.71 1543.61,1302.02 1545.63,1341.03 1547.66,1300.04 1549.69,1323.42 1551.72,1307.87 1553.75,1308.52 1555.77,1312.64 1557.8,1330.3 1559.83,1312.65 1561.86,1293.81 1563.89,1316.19 1565.91,1291 1567.94,1298.9 1569.97,1312.69 1572,1319.36 1574.03,1314.46 1576.05,1306.75 1578.08,1325.83 1580.11,1308.67 1582.14,1300.35 1584.17,1312.57 1586.2,1307.53 1588.22,1299.84 1590.25,1302.23 1592.28,1304.69 1594.31,1304.28 1596.34,1286.4 1598.36,1300.82 1600.39,1328.76 1602.42,1297.56 1604.45,1293.22 1606.48,1305.19 1608.5,1281.26 1610.53,1265.49 1612.56,1287.55 1614.59,1293.6 1616.62,1306.66 1618.64,1278.63 1620.67,1278.39 1622.7,1252.79 1624.73,1150.14 1626.76,1119.74 1628.79,960.869 1630.81,854.467 1632.84,426.871 1634.87,253.225 1636.9,160.256 1638.93,285.81 1640.95,527.82 1642.98,752.96 1645.01,962.197 1647.04,1063.56 1649.07,1155.05 1651.09,1197.03 1653.12,1240.33 1655.15,1287.93 1657.18,1272.24 1659.21,1261.19 1661.24,1307.21 1663.26,1271.5 1665.29,1296.54 1667.32,1313.33 1669.35,1293.24 1671.38,1298.51 1673.4,1310.23 1675.43,1315.42 1677.46,1298.62 1679.49,1291.95 1681.52,1322.52 1683.54,1315.96 1685.57,1305.9 1687.6,1298.06 1689.63,1310.65 1691.66,1301.38 1693.68,1319.71 1695.71,1315.88 1697.74,1292.98 1699.77,1320.11 1701.8,1310.39 1703.83,1318.63 1705.85,1326.35 1707.88,1298.2 1709.91,1309.31 1711.94,1302.21 1713.97,1319.71 1715.99,1312.01 1718.02,1314.96 1720.05,1301.05 1722.08,1318.02 1724.11,1310.81 1726.13,1318.25 1728.16,1313.2 1730.19,1305.51 1732.22,1324.43 1734.25,1333.4 1736.27,1299.54 1738.3,1316.57 1740.33,1315.64 1742.36,1315.01 1744.39,1326.88 1746.42,1316.93 1748.44,1313.35 1750.47,1327.97 1752.5,1330.04 1754.53,1291.28 1756.56,1326.05 1758.58,1304.65 1760.61,1306.71 1762.64,1319.29 1764.67,1305.73 1766.7,1289.35 1768.72,1319.7 1770.75,1297.16 1772.78,1322.76 1774.81,1318.63 1776.84,1323.76 1778.86,1290.04 1780.89,1325.71 1782.92,1316.09 1784.95,1313.04 1786.98,1305.9 1789.01,1320.54 1791.03,1307.02 1793.06,1322.1 1795.09,1333.31 1797.12,1288.88 1799.15,1310.29 1801.17,1293.59 1803.2,1297.39 1805.23,1281.86 1807.26,1306.91 1809.29,1279.19 1811.31,1280.09 1813.34,1260.24 1815.37,1263.84 1817.4,1211.84 1819.43,1248.42 1821.45,1217.78 1823.48,1236.46 1825.51,1199.95 1827.54,1269.34 1829.57,1257.87 1831.6,1270.6 1833.62,1283.1 1835.65,1300.04 1837.68,1305.51 1839.71,1312.75 1841.74,1309.85 1843.76,1280.91 1845.79,1280.58 1847.82,1293.02 1849.85,1288.71 1851.88,1306.51 1853.9,1305.54 1855.93,1311.63 1857.96,1322.58 1859.99,1297.57 1862.02,1297.04 1864.04,1304.06 1866.07,1340.26 1868.1,1295.51 1870.13,1287.44 1872.16,1301.41 1874.19,1302.67 1876.21,1310.38 1878.24,1318.05 1880.27,1313.65 1882.3,1312.56 1884.33,1316.5 1886.35,1310.98 1888.38,1314.66 1890.41,1328.98 1892.44,1303.06 1894.47,1318.27 1896.49,1331.09 1898.52,1324.95 1900.55,1302.33 1902.58,1290.28 1904.61,1294.05 1906.64,1288.51 1908.66,1328.75 1910.69,1305.89 1912.72,1323.54 1914.75,1312.71 1916.78,1296.03 1918.8,1308.69 1920.83,1291.87 1922.86,1290.71 1924.89,1294.98 1926.92,1312.94 1928.94,1311.03 1930.97,1286.89 1933,1307.1 1935.03,1314.31 1937.06,1318.62 1939.08,1322.16 1941.11,1325.12 1943.14,1306.87 1945.17,1337.61 1947.2,1319.97 1949.23,1301.11 1951.25,1319.5 1953.28,1279.49 1955.31,1306.62 1957.34,1294.52 1959.37,1299.6 1961.39,1314.42 1963.42,1309.24 1965.45,1320.91 1967.48,1323.22 1969.51,1305.19 1971.53,1315.19 1973.56,1313.61 1975.59,1309.19 1977.62,1300.31 1979.65,1307.52 1981.67,1302.48 1983.7,1322.04 1985.73,1313.34 1987.76,1323.21 1989.79,1316.02 1991.82,1302.97 1993.84,1288.58 1995.87,1340.39 1997.9,1301.05 1999.93,1288.04 2001.96,1318.1 2003.98,1294.67 2006.01,1298.97 2008.04,1287.04 2010.07,1296.76 2012.1,1310.48 2014.12,1304.68 2016.15,1311.91 2018.18,1311.5 2020.21,1327.1 2022.24,1329.02 2024.26,1316.87 2026.29,1306.42 2028.32,1310.52 2030.35,1310.29 2032.38,1286.98 2034.41,1320.36 2036.43,1306.88 2038.46,1311.46 2040.49,1298.54 2042.52,1307.73 2044.55,1302.58 2046.57,1306.55 2048.6,1280.64 2050.63,1296.84 2052.66,1299.5 2054.69,1300.95 2056.71,1307.48 2058.74,1315.82 2060.77,1290.09 2062.8,1284.34 2064.83,1277.48 2066.85,1310.05 2068.88,1299.75 2070.91,1278.23 2072.94,1287.13 2074.97,1290.85 2077,1298.03 2079.02,1296.49 2081.05,1294.13 2083.08,1286.55 2085.11,1264.24 2087.14,1262.35 2089.16,1207.28 2091.19,1256.8 2093.22,1236.1 2095.25,1197.35 2097.28,1183 2099.3,1167.09 2101.33,1170.8 2103.36,1171.29 2105.39,1111.47 2107.42,1098.19 2109.44,1090.3 2111.47,1104.67 2113.5,1055 2115.53,1071.54 2117.56,1025.15 2119.59,1037.23 2121.61,1069.93 2123.64,1066.16 2125.67,1082.67 2127.7,1152.14 2129.73,1155.54 2131.75,1112.82 2133.78,1183.21 2135.81,1170.27 2137.84,1185.31 2139.87,1207.06 2141.89,1238.93 2143.92,1244.93 2145.95,1237.69 2147.98,1246.98 2150.01,1251.18 2152.03,1255.3 2154.06,1257.14 2156.09,1287.47 2158.12,1273.52 2160.15,1266.38 2162.18,1271.26 2164.2,1265.79 2166.23,1312.84 2168.26,1276.65 2170.29,1273.06 2172.32,1264.94 2174.34,1298.81 2176.37,1270.04 2178.4,1282.4 2180.43,1287.7 2182.46,1307.68 2184.48,1286.69 2186.51,1275.34 2188.54,1328.97 2190.57,1309.2 2192.6,1289.41 2194.63,1283.43 2196.65,1309.74 2198.68,1297.8 2200.71,1327 2202.74,1271.66 2204.77,1319.38 2206.79,1277.75 2208.82,1286.69 2210.85,1295.36 2212.88,1290.78 2214.91,1287.4 2216.93,1297.43 2218.96,1284.68 2220.99,1291.81 2223.02,1304.14 2225.05,1306.61 2227.07,1312.6 2229.1,1301.2 2231.13,1306.18 2233.16,1280.48 2235.19,1294.33 2237.22,1276.37 2239.24,1312.06 2241.27,1322.36 2243.3,1309.57 2245.33,1307 2247.36,1300.8 2249.38,1323.23 2251.41,1282.73 2253.44,1305 2255.47,1292.57 2257.5,1289.2 2259.52,1278.73 2261.55,1314.75 2263.58,1294.91 2265.61,1300.17 2267.64,1299.15 2269.66,1279.67 2271.69,1254.57 2273.72,1282.62 2275.75,1303.2 2277.78,1306.99 2279.81,1312.35 2281.83,1314 2283.86,1278.36 2285.89,1282.15 2287.92,1300.55 2289.95,1299.9 "/>
<path clip-path="url(#clip360)" d="M276.709 270.476 L543.903 270.476 L543.903 166.796 L276.709 166.796  Z" fill="#282c34" fill-rule="evenodd" fill-opacity="1"/>
<polyline clip-path="url(#clip360)" style="stroke:#9eb1be; stroke-linecap:round; stroke-linejoin:round; stroke-width:4; stroke-opacity:1; fill:none" points="276.709,270.476 543.903,270.476 543.903,166.796 276.709,166.796 276.709,270.476 "/>
<polyline clip-path="url(#clip360)" style="stroke:#fe4365; stroke-linecap:round; stroke-linejoin:round; stroke-width:4; stroke-opacity:1; fill:none" points="300.571,218.636 443.747,218.636 "/>
<path clip-path="url(#clip360)" d="M481.452 238.323 Q479.647 242.953 477.934 244.365 Q476.221 245.777 473.35 245.777 L469.948 245.777 L469.948 242.212 L472.448 242.212 Q474.207 242.212 475.179 241.379 Q476.151 240.545 477.332 237.443 L478.096 235.499 L467.61 209.99 L472.124 209.99 L480.225 230.268 L488.327 209.99 L492.841 209.99 L481.452 238.323 Z" fill="#adb2b7" fill-rule="evenodd" fill-opacity="1" /><path clip-path="url(#clip360)" d="M500.133 231.981 L507.772 231.981 L507.772 205.615 L499.461 207.282 L499.461 203.022 L507.725 201.356 L512.401 201.356 L512.401 231.981 L520.04 231.981 L520.04 235.916 L500.133 235.916 L500.133 231.981 Z" fill="#adb2b7" fill-rule="evenodd" fill-opacity="1" /></svg>
