<?xml version="1.0" encoding="utf-8"?>
<svg xmlns="http://www.w3.org/2000/svg" xmlns:xlink="http://www.w3.org/1999/xlink" width="600" height="400" viewBox="0 0 2400 1600">
<defs>
  <clipPath id="clip400">
    <rect x="0" y="0" width="2400" height="1600"/>
  </clipPath>
</defs>
<path clip-path="url(#clip400)" d="M0 1600 L2400 1600 L2400 0 L0 0  Z" fill="#282c34" fill-rule="evenodd" fill-opacity="1"/>
<defs>
  <clipPath id="clip401">
    <rect x="480" y="0" width="1681" height="1600"/>
  </clipPath>
</defs>
<path clip-path="url(#clip400)" d="M203.964 1423.18 L2352.76 1423.18 L2352.76 123.472 L203.964 123.472  Z" fill="#21252b" fill-rule="evenodd" fill-opacity="1"/>
<defs>
  <clipPath id="clip402">
    <rect x="203" y="123" width="2150" height="1301"/>
  </clipPath>
</defs>
<polyline clip-path="url(#clip402)" style="stroke:#adb2b7; stroke-linecap:round; stroke-linejoin:round; stroke-width:2; stroke-opacity:0.1; fill:none" points="264.778,1423.18 264.778,123.472 "/>
<polyline clip-path="url(#clip402)" style="stroke:#adb2b7; stroke-linecap:round; stroke-linejoin:round; stroke-width:2; stroke-opacity:0.1; fill:none" points="827.879,1423.18 827.879,123.472 "/>
<polyline clip-path="url(#clip402)" style="stroke:#adb2b7; stroke-linecap:round; stroke-linejoin:round; stroke-width:2; stroke-opacity:0.1; fill:none" points="1390.98,1423.18 1390.98,123.472 "/>
<polyline clip-path="url(#clip402)" style="stroke:#adb2b7; stroke-linecap:round; stroke-linejoin:round; stroke-width:2; stroke-opacity:0.1; fill:none" points="1954.08,1423.18 1954.08,123.472 "/>
<polyline clip-path="url(#clip400)" style="stroke:#adb2b7; stroke-linecap:round; stroke-linejoin:round; stroke-width:4; stroke-opacity:1; fill:none" points="203.964,1423.18 2352.76,1423.18 "/>
<polyline clip-path="url(#clip400)" style="stroke:#adb2b7; stroke-linecap:round; stroke-linejoin:round; stroke-width:4; stroke-opacity:1; fill:none" points="264.778,1423.18 264.778,1404.28 "/>
<polyline clip-path="url(#clip400)" style="stroke:#adb2b7; stroke-linecap:round; stroke-linejoin:round; stroke-width:4; stroke-opacity:1; fill:none" points="827.879,1423.18 827.879,1404.28 "/>
<polyline clip-path="url(#clip400)" style="stroke:#adb2b7; stroke-linecap:round; stroke-linejoin:round; stroke-width:4; stroke-opacity:1; fill:none" points="1390.98,1423.18 1390.98,1404.28 "/>
<polyline clip-path="url(#clip400)" style="stroke:#adb2b7; stroke-linecap:round; stroke-linejoin:round; stroke-width:4; stroke-opacity:1; fill:none" points="1954.08,1423.18 1954.08,1404.28 "/>
<path clip-path="url(#clip400)" d="M264.778 1454.1 Q261.167 1454.1 259.339 1457.66 Q257.533 1461.2 257.533 1468.33 Q257.533 1475.44 259.339 1479.01 Q261.167 1482.55 264.778 1482.55 Q268.413 1482.55 270.218 1479.01 Q272.047 1475.44 272.047 1468.33 Q272.047 1461.2 270.218 1457.66 Q268.413 1454.1 264.778 1454.1 M264.778 1450.39 Q270.589 1450.39 273.644 1455 Q276.723 1459.58 276.723 1468.33 Q276.723 1477.06 273.644 1481.67 Q270.589 1486.25 264.778 1486.25 Q258.968 1486.25 255.89 1481.67 Q252.834 1477.06 252.834 1468.33 Q252.834 1459.58 255.89 1455 Q258.968 1450.39 264.778 1450.39 Z" fill="#9eb1be" fill-rule="evenodd" fill-opacity="1" /><path clip-path="url(#clip400)" d="M802.578 1451.02 L820.935 1451.02 L820.935 1454.96 L806.861 1454.96 L806.861 1463.43 Q807.879 1463.08 808.898 1462.92 Q809.916 1462.73 810.935 1462.73 Q816.722 1462.73 820.101 1465.9 Q823.481 1469.08 823.481 1474.49 Q823.481 1480.07 820.009 1483.17 Q816.537 1486.25 810.217 1486.25 Q808.041 1486.25 805.773 1485.88 Q803.527 1485.51 801.12 1484.77 L801.12 1480.07 Q803.203 1481.2 805.426 1481.76 Q807.648 1482.32 810.125 1482.32 Q814.129 1482.32 816.467 1480.21 Q818.805 1478.1 818.805 1474.49 Q818.805 1470.88 816.467 1468.77 Q814.129 1466.67 810.125 1466.67 Q808.25 1466.67 806.375 1467.08 Q804.523 1467.5 802.578 1468.38 L802.578 1451.02 Z" fill="#9eb1be" fill-rule="evenodd" fill-opacity="1" /><path clip-path="url(#clip400)" d="M842.694 1454.1 Q839.083 1454.1 837.254 1457.66 Q835.449 1461.2 835.449 1468.33 Q835.449 1475.44 837.254 1479.01 Q839.083 1482.55 842.694 1482.55 Q846.328 1482.55 848.134 1479.01 Q849.962 1475.44 849.962 1468.33 Q849.962 1461.2 848.134 1457.66 Q846.328 1454.1 842.694 1454.1 M842.694 1450.39 Q848.504 1450.39 851.56 1455 Q854.638 1459.58 854.638 1468.33 Q854.638 1477.06 851.56 1481.67 Q848.504 1486.25 842.694 1486.25 Q836.884 1486.25 833.805 1481.67 Q830.75 1477.06 830.75 1468.33 Q830.75 1459.58 833.805 1455 Q836.884 1450.39 842.694 1450.39 Z" fill="#9eb1be" fill-rule="evenodd" fill-opacity="1" /><path clip-path="url(#clip400)" d="M1350.59 1481.64 L1358.23 1481.64 L1358.23 1455.28 L1349.92 1456.95 L1349.92 1452.69 L1358.18 1451.02 L1362.86 1451.02 L1362.86 1481.64 L1370.49 1481.64 L1370.49 1485.58 L1350.59 1485.58 L1350.59 1481.64 Z" fill="#9eb1be" fill-rule="evenodd" fill-opacity="1" /><path clip-path="url(#clip400)" d="M1389.94 1454.1 Q1386.33 1454.1 1384.5 1457.66 Q1382.69 1461.2 1382.69 1468.33 Q1382.69 1475.44 1384.5 1479.01 Q1386.33 1482.55 1389.94 1482.55 Q1393.57 1482.55 1395.38 1479.01 Q1397.21 1475.44 1397.21 1468.33 Q1397.21 1461.2 1395.38 1457.66 Q1393.57 1454.1 1389.94 1454.1 M1389.94 1450.39 Q1395.75 1450.39 1398.8 1455 Q1401.88 1459.58 1401.88 1468.33 Q1401.88 1477.06 1398.8 1481.67 Q1395.75 1486.25 1389.94 1486.25 Q1384.13 1486.25 1381.05 1481.67 Q1377.99 1477.06 1377.99 1468.33 Q1377.99 1459.58 1381.05 1455 Q1384.13 1450.39 1389.94 1450.39 Z" fill="#9eb1be" fill-rule="evenodd" fill-opacity="1" /><path clip-path="url(#clip400)" d="M1420.1 1454.1 Q1416.49 1454.1 1414.66 1457.66 Q1412.85 1461.2 1412.85 1468.33 Q1412.85 1475.44 1414.66 1479.01 Q1416.49 1482.55 1420.1 1482.55 Q1423.73 1482.55 1425.54 1479.01 Q1427.37 1475.44 1427.37 1468.33 Q1427.37 1461.2 1425.54 1457.66 Q1423.73 1454.1 1420.1 1454.1 M1420.1 1450.39 Q1425.91 1450.39 1428.97 1455 Q1432.04 1459.58 1432.04 1468.33 Q1432.04 1477.06 1428.97 1481.67 Q1425.91 1486.25 1420.1 1486.25 Q1414.29 1486.25 1411.21 1481.67 Q1408.16 1477.06 1408.16 1468.33 Q1408.16 1459.58 1411.21 1455 Q1414.29 1450.39 1420.1 1450.39 Z" fill="#9eb1be" fill-rule="evenodd" fill-opacity="1" /><path clip-path="url(#clip400)" d="M1913.69 1481.64 L1921.33 1481.64 L1921.33 1455.28 L1913.02 1456.95 L1913.02 1452.69 L1921.28 1451.02 L1925.96 1451.02 L1925.96 1481.64 L1933.59 1481.64 L1933.59 1485.58 L1913.69 1485.58 L1913.69 1481.64 Z" fill="#9eb1be" fill-rule="evenodd" fill-opacity="1" /><path clip-path="url(#clip400)" d="M1943.09 1451.02 L1961.44 1451.02 L1961.44 1454.96 L1947.37 1454.96 L1947.37 1463.43 Q1948.39 1463.08 1949.4 1462.92 Q1950.42 1462.73 1951.44 1462.73 Q1957.23 1462.73 1960.61 1465.9 Q1963.99 1469.08 1963.99 1474.49 Q1963.99 1480.07 1960.52 1483.17 Q1957.04 1486.25 1950.72 1486.25 Q1948.55 1486.25 1946.28 1485.88 Q1944.03 1485.51 1941.63 1484.77 L1941.63 1480.07 Q1943.71 1481.2 1945.93 1481.76 Q1948.15 1482.32 1950.63 1482.32 Q1954.64 1482.32 1956.97 1480.21 Q1959.31 1478.1 1959.31 1474.49 Q1959.31 1470.88 1956.97 1468.77 Q1954.64 1466.67 1950.63 1466.67 Q1948.76 1466.67 1946.88 1467.08 Q1945.03 1467.5 1943.09 1468.38 L1943.09 1451.02 Z" fill="#9eb1be" fill-rule="evenodd" fill-opacity="1" /><path clip-path="url(#clip400)" d="M1983.2 1454.1 Q1979.59 1454.1 1977.76 1457.66 Q1975.96 1461.2 1975.96 1468.33 Q1975.96 1475.44 1977.76 1479.01 Q1979.59 1482.55 1983.2 1482.55 Q1986.84 1482.55 1988.64 1479.01 Q1990.47 1475.44 1990.47 1468.33 Q1990.47 1461.2 1988.64 1457.66 Q1986.84 1454.1 1983.2 1454.1 M1983.2 1450.39 Q1989.01 1450.39 1992.07 1455 Q1995.15 1459.58 1995.15 1468.33 Q1995.15 1477.06 1992.07 1481.67 Q1989.01 1486.25 1983.2 1486.25 Q1977.39 1486.25 1974.31 1481.67 Q1971.26 1477.06 1971.26 1468.33 Q1971.26 1459.58 1974.31 1455 Q1977.39 1450.39 1983.2 1450.39 Z" fill="#9eb1be" fill-rule="evenodd" fill-opacity="1" /><path clip-path="url(#clip400)" d="M1153.39 1562.63 L1175.82 1562.63 L1175.82 1568.04 L1145.65 1568.04 L1145.65 1562.63 Q1149.31 1558.85 1155.61 1552.48 Q1161.95 1546.08 1163.57 1544.24 Q1166.66 1540.77 1167.87 1538.38 Q1169.11 1535.96 1169.11 1533.64 Q1169.11 1529.85 1166.43 1527.46 Q1163.79 1525.08 1159.53 1525.08 Q1156.5 1525.08 1153.13 1526.13 Q1149.79 1527.18 1145.97 1529.31 L1145.97 1522.82 Q1149.85 1521.26 1153.23 1520.46 Q1156.6 1519.66 1159.4 1519.66 Q1166.78 1519.66 1171.18 1523.36 Q1175.57 1527.05 1175.57 1533.22 Q1175.57 1536.15 1174.46 1538.79 Q1173.37 1541.4 1170.48 1544.97 Q1169.68 1545.89 1165.42 1550.32 Q1161.15 1554.71 1153.39 1562.63 Z" fill="#9eb1be" fill-rule="evenodd" fill-opacity="1" /><path clip-path="url(#clip400)" d="M1212.43 1545.45 L1192.15 1545.45 Q1192.63 1554.96 1194.83 1559 Q1197.56 1563.97 1202.31 1563.97 Q1207.08 1563.97 1209.72 1558.97 Q1212.04 1554.58 1212.43 1545.45 M1212.33 1540.03 Q1211.44 1531 1209.72 1527.81 Q1206.98 1522.78 1202.31 1522.78 Q1197.44 1522.78 1194.86 1527.75 Q1192.82 1531.76 1192.22 1540.03 L1212.33 1540.03 M1202.31 1518.01 Q1209.94 1518.01 1214.3 1524.76 Q1218.67 1531.47 1218.67 1543.38 Q1218.67 1555.25 1214.3 1562 Q1209.94 1568.78 1202.31 1568.78 Q1194.63 1568.78 1190.31 1562 Q1185.95 1555.25 1185.95 1543.38 Q1185.95 1531.47 1190.31 1524.76 Q1194.63 1518.01 1202.31 1518.01 Z" fill="#9eb1be" fill-rule="evenodd" fill-opacity="1" /><path clip-path="url(#clip400)" d="M1263.16 1518.58 Q1258.9 1525.9 1256.83 1533.06 Q1254.76 1540.23 1254.76 1547.58 Q1254.76 1554.93 1256.83 1562.16 Q1258.93 1569.35 1263.16 1576.64 L1258.07 1576.64 Q1253.29 1569.16 1250.91 1561.93 Q1248.55 1554.71 1248.55 1547.58 Q1248.55 1540.48 1250.91 1533.29 Q1253.26 1526.09 1258.07 1518.58 L1263.16 1518.58 Z" fill="#9eb1be" fill-rule="evenodd" fill-opacity="1" /><path clip-path="url(#clip400)" d="M1297.98 1537.81 L1297.98 1518.52 L1303.84 1518.52 L1303.84 1568.04 L1297.98 1568.04 L1297.98 1562.7 Q1296.14 1565.88 1293.3 1567.44 Q1290.5 1568.97 1286.56 1568.97 Q1280.09 1568.97 1276.02 1563.81 Q1271.98 1558.65 1271.98 1550.25 Q1271.98 1541.85 1276.02 1536.69 Q1280.09 1531.54 1286.56 1531.54 Q1290.5 1531.54 1293.3 1533.1 Q1296.14 1534.62 1297.98 1537.81 M1278.03 1550.25 Q1278.03 1556.71 1280.67 1560.4 Q1283.34 1564.07 1287.99 1564.07 Q1292.63 1564.07 1295.31 1560.4 Q1297.98 1556.71 1297.98 1550.25 Q1297.98 1543.79 1295.31 1540.13 Q1292.63 1536.44 1287.99 1536.44 Q1283.34 1536.44 1280.67 1540.13 Q1278.03 1543.79 1278.03 1550.25 Z" fill="#9eb1be" fill-rule="evenodd" fill-opacity="1" /><path clip-path="url(#clip400)" d="M1346.39 1548.76 L1346.39 1551.62 L1319.47 1551.62 Q1319.85 1557.67 1323.09 1560.85 Q1326.37 1564 1332.2 1564 Q1335.57 1564 1338.72 1563.17 Q1341.91 1562.35 1345.02 1560.69 L1345.02 1566.23 Q1341.87 1567.57 1338.56 1568.27 Q1335.25 1568.97 1331.85 1568.97 Q1323.32 1568.97 1318.32 1564 Q1313.36 1559.04 1313.36 1550.57 Q1313.36 1541.82 1318.07 1536.69 Q1322.81 1531.54 1330.83 1531.54 Q1338.02 1531.54 1342.19 1536.18 Q1346.39 1540.8 1346.39 1548.76 M1340.54 1547.04 Q1340.47 1542.23 1337.83 1539.37 Q1335.22 1536.5 1330.89 1536.5 Q1325.99 1536.5 1323.03 1539.27 Q1320.1 1542.04 1319.66 1547.07 L1340.54 1547.04 Z" fill="#9eb1be" fill-rule="evenodd" fill-opacity="1" /><path clip-path="url(#clip400)" d="M1379.46 1549.81 Q1379.46 1543.44 1376.82 1539.94 Q1374.21 1536.44 1369.47 1536.44 Q1364.76 1536.44 1362.12 1539.94 Q1359.51 1543.44 1359.51 1549.81 Q1359.51 1556.14 1362.12 1559.64 Q1364.76 1563.14 1369.47 1563.14 Q1374.21 1563.14 1376.82 1559.64 Q1379.46 1556.14 1379.46 1549.81 M1385.32 1563.62 Q1385.32 1572.72 1381.28 1577.15 Q1377.24 1581.6 1368.9 1581.6 Q1365.81 1581.6 1363.07 1581.13 Q1360.33 1580.68 1357.76 1579.72 L1357.76 1574.03 Q1360.33 1575.43 1362.85 1576.1 Q1365.36 1576.76 1367.97 1576.76 Q1373.73 1576.76 1376.6 1573.74 Q1379.46 1570.75 1379.46 1564.67 L1379.46 1561.77 Q1377.65 1564.92 1374.82 1566.48 Q1371.98 1568.04 1368.04 1568.04 Q1361.48 1568.04 1357.47 1563.05 Q1353.46 1558.05 1353.46 1549.81 Q1353.46 1541.53 1357.47 1536.53 Q1361.48 1531.54 1368.04 1531.54 Q1371.98 1531.54 1374.82 1533.1 Q1377.65 1534.66 1379.46 1537.81 L1379.46 1532.4 L1385.32 1532.4 L1385.32 1563.62 Z" fill="#9eb1be" fill-rule="evenodd" fill-opacity="1" /><path clip-path="url(#clip400)" d="M1396.46 1518.58 L1401.55 1518.58 Q1406.33 1526.09 1408.68 1533.29 Q1411.07 1540.48 1411.07 1547.58 Q1411.07 1554.71 1408.68 1561.93 Q1406.33 1569.16 1401.55 1576.64 L1396.46 1576.64 Q1400.69 1569.35 1402.76 1562.16 Q1404.86 1554.93 1404.86 1547.58 Q1404.86 1540.23 1402.76 1533.06 Q1400.69 1525.9 1396.46 1518.58 Z" fill="#9eb1be" fill-rule="evenodd" fill-opacity="1" /><polyline clip-path="url(#clip402)" style="stroke:#adb2b7; stroke-linecap:round; stroke-linejoin:round; stroke-width:2; stroke-opacity:0.1; fill:none" points="203.964,1223.26 2352.76,1223.26 "/>
<polyline clip-path="url(#clip402)" style="stroke:#adb2b7; stroke-linecap:round; stroke-linejoin:round; stroke-width:2; stroke-opacity:0.1; fill:none" points="203.964,975.922 2352.76,975.922 "/>
<polyline clip-path="url(#clip402)" style="stroke:#adb2b7; stroke-linecap:round; stroke-linejoin:round; stroke-width:2; stroke-opacity:0.1; fill:none" points="203.964,728.582 2352.76,728.582 "/>
<polyline clip-path="url(#clip402)" style="stroke:#adb2b7; stroke-linecap:round; stroke-linejoin:round; stroke-width:2; stroke-opacity:0.1; fill:none" points="203.964,481.242 2352.76,481.242 "/>
<polyline clip-path="url(#clip402)" style="stroke:#adb2b7; stroke-linecap:round; stroke-linejoin:round; stroke-width:2; stroke-opacity:0.1; fill:none" points="203.964,233.902 2352.76,233.902 "/>
<polyline clip-path="url(#clip400)" style="stroke:#adb2b7; stroke-linecap:round; stroke-linejoin:round; stroke-width:4; stroke-opacity:1; fill:none" points="203.964,1423.18 203.964,123.472 "/>
<polyline clip-path="url(#clip400)" style="stroke:#adb2b7; stroke-linecap:round; stroke-linejoin:round; stroke-width:4; stroke-opacity:1; fill:none" points="203.964,1223.26 222.861,1223.26 "/>
<polyline clip-path="url(#clip400)" style="stroke:#adb2b7; stroke-linecap:round; stroke-linejoin:round; stroke-width:4; stroke-opacity:1; fill:none" points="203.964,975.922 222.861,975.922 "/>
<polyline clip-path="url(#clip400)" style="stroke:#adb2b7; stroke-linecap:round; stroke-linejoin:round; stroke-width:4; stroke-opacity:1; fill:none" points="203.964,728.582 222.861,728.582 "/>
<polyline clip-path="url(#clip400)" style="stroke:#adb2b7; stroke-linecap:round; stroke-linejoin:round; stroke-width:4; stroke-opacity:1; fill:none" points="203.964,481.242 222.861,481.242 "/>
<polyline clip-path="url(#clip400)" style="stroke:#adb2b7; stroke-linecap:round; stroke-linejoin:round; stroke-width:4; stroke-opacity:1; fill:none" points="203.964,233.902 222.861,233.902 "/>
<path clip-path="url(#clip400)" d="M147.061 1205.98 L165.417 1205.98 L165.417 1209.92 L151.343 1209.92 L151.343 1218.39 Q152.362 1218.04 153.38 1217.88 Q154.399 1217.69 155.417 1217.69 Q161.204 1217.69 164.584 1220.87 Q167.964 1224.04 167.964 1229.45 Q167.964 1235.03 164.491 1238.13 Q161.019 1241.21 154.7 1241.21 Q152.524 1241.21 150.255 1240.84 Q148.01 1240.47 145.603 1239.73 L145.603 1235.03 Q147.686 1236.17 149.908 1236.72 Q152.13 1237.28 154.607 1237.28 Q158.612 1237.28 160.95 1235.17 Q163.288 1233.06 163.288 1229.45 Q163.288 1225.84 160.95 1223.74 Q158.612 1221.63 154.607 1221.63 Q152.732 1221.63 150.857 1222.05 Q149.005 1222.46 147.061 1223.34 L147.061 1205.98 Z" fill="#9eb1be" fill-rule="evenodd" fill-opacity="1" /><path clip-path="url(#clip400)" d="M116.668 989.267 L124.306 989.267 L124.306 962.901 L115.996 964.568 L115.996 960.308 L124.26 958.642 L128.936 958.642 L128.936 989.267 L136.575 989.267 L136.575 993.202 L116.668 993.202 L116.668 989.267 Z" fill="#9eb1be" fill-rule="evenodd" fill-opacity="1" /><path clip-path="url(#clip400)" d="M156.019 961.72 Q152.408 961.72 150.579 965.285 Q148.774 968.827 148.774 975.956 Q148.774 983.063 150.579 986.628 Q152.408 990.169 156.019 990.169 Q159.653 990.169 161.459 986.628 Q163.288 983.063 163.288 975.956 Q163.288 968.827 161.459 965.285 Q159.653 961.72 156.019 961.72 M156.019 958.017 Q161.829 958.017 164.885 962.623 Q167.964 967.207 167.964 975.956 Q167.964 984.683 164.885 989.29 Q161.829 993.873 156.019 993.873 Q150.209 993.873 147.13 989.29 Q144.075 984.683 144.075 975.956 Q144.075 967.207 147.13 962.623 Q150.209 958.017 156.019 958.017 Z" fill="#9eb1be" fill-rule="evenodd" fill-opacity="1" /><path clip-path="url(#clip400)" d="M117.663 741.927 L125.302 741.927 L125.302 715.561 L116.992 717.228 L116.992 712.968 L125.255 711.302 L129.931 711.302 L129.931 741.927 L137.57 741.927 L137.57 745.862 L117.663 745.862 L117.663 741.927 Z" fill="#9eb1be" fill-rule="evenodd" fill-opacity="1" /><path clip-path="url(#clip400)" d="M147.061 711.302 L165.417 711.302 L165.417 715.237 L151.343 715.237 L151.343 723.709 Q152.362 723.362 153.38 723.2 Q154.399 723.015 155.417 723.015 Q161.204 723.015 164.584 726.186 Q167.964 729.357 167.964 734.774 Q167.964 740.353 164.491 743.454 Q161.019 746.533 154.7 746.533 Q152.524 746.533 150.255 746.163 Q148.01 745.792 145.603 745.052 L145.603 740.353 Q147.686 741.487 149.908 742.042 Q152.13 742.598 154.607 742.598 Q158.612 742.598 160.95 740.491 Q163.288 738.385 163.288 734.774 Q163.288 731.163 160.95 729.056 Q158.612 726.95 154.607 726.95 Q152.732 726.95 150.857 727.367 Q149.005 727.783 147.061 728.663 L147.061 711.302 Z" fill="#9eb1be" fill-rule="evenodd" fill-opacity="1" /><path clip-path="url(#clip400)" d="M119.885 494.587 L136.204 494.587 L136.204 498.522 L114.26 498.522 L114.26 494.587 Q116.922 491.832 121.505 487.203 Q126.112 482.55 127.292 481.207 Q129.538 478.684 130.417 476.948 Q131.32 475.189 131.32 473.499 Q131.32 470.744 129.376 469.008 Q127.455 467.272 124.353 467.272 Q122.154 467.272 119.7 468.036 Q117.269 468.8 114.492 470.351 L114.492 465.629 Q117.316 464.494 119.769 463.916 Q122.223 463.337 124.26 463.337 Q129.63 463.337 132.825 466.022 Q136.019 468.707 136.019 473.198 Q136.019 475.328 135.209 477.249 Q134.422 479.147 132.316 481.74 Q131.737 482.411 128.635 485.628 Q125.533 488.823 119.885 494.587 Z" fill="#9eb1be" fill-rule="evenodd" fill-opacity="1" /><path clip-path="url(#clip400)" d="M156.019 467.041 Q152.408 467.041 150.579 470.605 Q148.774 474.147 148.774 481.277 Q148.774 488.383 150.579 491.948 Q152.408 495.49 156.019 495.49 Q159.653 495.49 161.459 491.948 Q163.288 488.383 163.288 481.277 Q163.288 474.147 161.459 470.605 Q159.653 467.041 156.019 467.041 M156.019 463.337 Q161.829 463.337 164.885 467.943 Q167.964 472.527 167.964 481.277 Q167.964 490.003 164.885 494.61 Q161.829 499.193 156.019 499.193 Q150.209 499.193 147.13 494.61 Q144.075 490.003 144.075 481.277 Q144.075 472.527 147.13 467.943 Q150.209 463.337 156.019 463.337 Z" fill="#9eb1be" fill-rule="evenodd" fill-opacity="1" /><path clip-path="url(#clip400)" d="M120.88 247.247 L137.2 247.247 L137.2 251.182 L115.256 251.182 L115.256 247.247 Q117.918 244.492 122.501 239.863 Q127.107 235.21 128.288 233.867 Q130.533 231.344 131.413 229.608 Q132.316 227.849 132.316 226.159 Q132.316 223.404 130.371 221.668 Q128.45 219.932 125.348 219.932 Q123.149 219.932 120.695 220.696 Q118.265 221.46 115.487 223.011 L115.487 218.289 Q118.311 217.154 120.765 216.576 Q123.218 215.997 125.255 215.997 Q130.626 215.997 133.82 218.682 Q137.015 221.367 137.015 225.858 Q137.015 227.988 136.204 229.909 Q135.417 231.807 133.311 234.4 Q132.732 235.071 129.63 238.289 Q126.529 241.483 120.88 247.247 Z" fill="#9eb1be" fill-rule="evenodd" fill-opacity="1" /><path clip-path="url(#clip400)" d="M147.061 216.622 L165.417 216.622 L165.417 220.557 L151.343 220.557 L151.343 229.029 Q152.362 228.682 153.38 228.52 Q154.399 228.335 155.417 228.335 Q161.204 228.335 164.584 231.506 Q167.964 234.677 167.964 240.094 Q167.964 245.673 164.491 248.775 Q161.019 251.853 154.7 251.853 Q152.524 251.853 150.255 251.483 Q148.01 251.113 145.603 250.372 L145.603 245.673 Q147.686 246.807 149.908 247.363 Q152.13 247.918 154.607 247.918 Q158.612 247.918 160.95 245.812 Q163.288 243.705 163.288 240.094 Q163.288 236.483 160.95 234.377 Q158.612 232.27 154.607 232.27 Q152.732 232.27 150.857 232.687 Q149.005 233.103 147.061 233.983 L147.061 216.622 Z" fill="#9eb1be" fill-rule="evenodd" fill-opacity="1" /><path clip-path="url(#clip400)" d="M16.4842 1009.4 L16.4842 1002.97 L64.0042 1002.97 L64.0042 1009.4 L16.4842 1009.4 Z" fill="#9eb1be" fill-rule="evenodd" fill-opacity="1" /><path clip-path="url(#clip400)" d="M42.4881 960.796 L64.0042 960.796 L64.0042 966.652 L42.679 966.652 Q37.6183 966.652 35.1038 968.626 Q32.5894 970.599 32.5894 974.546 Q32.5894 979.288 35.6131 982.026 Q38.6368 984.763 43.8567 984.763 L64.0042 984.763 L64.0042 990.651 L28.3562 990.651 L28.3562 984.763 L33.8944 984.763 Q30.6797 982.662 29.0883 979.83 Q27.4968 976.965 27.4968 973.241 Q27.4968 967.098 31.3163 963.947 Q35.1038 960.796 42.4881 960.796 Z" fill="#9eb1be" fill-rule="evenodd" fill-opacity="1" /><path clip-path="url(#clip400)" d="M18.2347 943.322 L28.3562 943.322 L28.3562 931.259 L32.9077 931.259 L32.9077 943.322 L52.2594 943.322 Q56.6199 943.322 57.8613 942.145 Q59.1026 940.935 59.1026 937.275 L59.1026 931.259 L64.0042 931.259 L64.0042 937.275 Q64.0042 944.054 61.4897 946.632 Q58.9434 949.21 52.2594 949.21 L32.9077 949.21 L32.9077 953.507 L28.3562 953.507 L28.3562 949.21 L18.2347 949.21 L18.2347 943.322 Z" fill="#9eb1be" fill-rule="evenodd" fill-opacity="1" /><path clip-path="url(#clip400)" d="M44.7161 893.065 L47.5806 893.065 L47.5806 919.992 Q53.6281 919.61 56.8109 916.363 Q59.9619 913.085 59.9619 907.26 Q59.9619 903.887 59.1344 900.736 Q58.3069 897.553 56.6518 894.434 L62.1899 894.434 Q63.5267 897.585 64.227 900.895 Q64.9272 904.205 64.9272 907.611 Q64.9272 916.141 59.9619 921.138 Q54.9967 926.103 46.5303 926.103 Q37.7774 926.103 32.6531 921.392 Q27.4968 916.65 27.4968 908.629 Q27.4968 901.436 32.1438 897.266 Q36.7589 893.065 44.7161 893.065 M42.9973 898.921 Q38.1912 898.985 35.3266 901.627 Q32.4621 904.237 32.4621 908.565 Q32.4621 913.467 35.2312 916.427 Q38.0002 919.355 43.0292 919.801 L42.9973 898.921 Z" fill="#9eb1be" fill-rule="evenodd" fill-opacity="1" /><path clip-path="url(#clip400)" d="M42.4881 853.82 L64.0042 853.82 L64.0042 859.677 L42.679 859.677 Q37.6183 859.677 35.1038 861.65 Q32.5894 863.624 32.5894 867.57 Q32.5894 872.313 35.6131 875.05 Q38.6368 877.787 43.8567 877.787 L64.0042 877.787 L64.0042 883.676 L28.3562 883.676 L28.3562 877.787 L33.8944 877.787 Q30.6797 875.687 29.0883 872.854 Q27.4968 869.989 27.4968 866.265 Q27.4968 860.122 31.3163 856.971 Q35.1038 853.82 42.4881 853.82 Z" fill="#9eb1be" fill-rule="evenodd" fill-opacity="1" /><path clip-path="url(#clip400)" d="M29.4065 819.414 L34.9447 819.414 Q33.6716 821.896 33.035 824.57 Q32.3984 827.244 32.3984 830.108 Q32.3984 834.469 33.7352 836.665 Q35.072 838.829 37.7456 838.829 Q39.7826 838.829 40.9603 837.27 Q42.1061 835.71 43.1565 830.999 L43.6021 828.994 Q44.9389 822.756 47.3897 820.146 Q49.8086 817.504 54.1691 817.504 Q59.1344 817.504 62.0308 821.451 Q64.9272 825.366 64.9272 832.241 Q64.9272 835.105 64.3543 838.224 Q63.8132 841.312 62.6992 844.749 L56.6518 844.749 Q58.3387 841.503 59.198 838.352 Q60.0256 835.201 60.0256 832.113 Q60.0256 827.976 58.6251 825.748 Q57.1929 823.52 54.6147 823.52 Q52.2276 823.52 50.9545 825.143 Q49.6813 826.734 48.5037 832.177 L48.0262 834.214 Q46.8804 839.657 44.5251 842.076 Q42.138 844.495 38.0002 844.495 Q32.9713 844.495 30.2341 840.93 Q27.4968 837.365 27.4968 830.808 Q27.4968 827.562 27.9743 824.697 Q28.4517 821.833 29.4065 819.414 Z" fill="#9eb1be" fill-rule="evenodd" fill-opacity="1" /><path clip-path="url(#clip400)" d="M28.3562 808.178 L28.3562 802.322 L64.0042 802.322 L64.0042 808.178 L28.3562 808.178 M14.479 808.178 L14.479 802.322 L21.895 802.322 L21.895 808.178 L14.479 808.178 Z" fill="#9eb1be" fill-rule="evenodd" fill-opacity="1" /><path clip-path="url(#clip400)" d="M18.2347 784.275 L28.3562 784.275 L28.3562 772.212 L32.9077 772.212 L32.9077 784.275 L52.2594 784.275 Q56.6199 784.275 57.8613 783.097 Q59.1026 781.888 59.1026 778.228 L59.1026 772.212 L64.0042 772.212 L64.0042 778.228 Q64.0042 785.007 61.4897 787.585 Q58.9434 790.163 52.2594 790.163 L32.9077 790.163 L32.9077 794.46 L28.3562 794.46 L28.3562 790.163 L18.2347 790.163 L18.2347 784.275 Z" fill="#9eb1be" fill-rule="evenodd" fill-opacity="1" /><path clip-path="url(#clip400)" d="M67.3143 749.677 Q73.68 752.16 75.6216 754.515 Q77.5631 756.871 77.5631 760.817 L77.5631 765.496 L72.6615 765.496 L72.6615 762.059 Q72.6615 759.64 71.5157 758.303 Q70.3699 756.966 66.1048 755.343 L63.4312 754.293 L28.3562 768.711 L28.3562 762.504 L56.238 751.364 L28.3562 740.224 L28.3562 734.018 L67.3143 749.677 Z" fill="#9eb1be" fill-rule="evenodd" fill-opacity="1" /><path clip-path="url(#clip400)" d="M14.5426 691.145 Q21.8632 695.41 29.0246 697.479 Q36.186 699.547 43.5384 699.547 Q50.8908 699.547 58.1159 697.479 Q65.3091 695.378 72.5979 691.145 L72.5979 696.237 Q65.1182 701.012 57.8931 703.399 Q50.668 705.754 43.5384 705.754 Q36.4406 705.754 29.2474 703.399 Q22.0542 701.043 14.5426 696.237 L14.5426 691.145 Z" fill="#9eb1be" fill-rule="evenodd" fill-opacity="1" /><path clip-path="url(#clip400)" d="M46.0847 663.581 Q46.0847 670.679 47.7079 673.416 Q49.3312 676.153 53.2461 676.153 Q56.3653 676.153 58.2114 674.116 Q60.0256 672.048 60.0256 668.515 Q60.0256 663.645 56.5881 660.717 Q53.1188 657.757 47.3897 657.757 L46.0847 657.757 L46.0847 663.581 M43.6657 651.9 L64.0042 651.9 L64.0042 657.757 L58.5933 657.757 Q61.8398 659.762 63.3994 662.754 Q64.9272 665.746 64.9272 670.074 Q64.9272 675.549 61.8716 678.795 Q58.7843 682.01 53.6281 682.01 Q47.6125 682.01 44.5569 678 Q41.5014 673.957 41.5014 665.968 L41.5014 657.757 L40.9285 657.757 Q36.8862 657.757 34.6901 660.43 Q32.4621 663.072 32.4621 667.878 Q32.4621 670.934 33.1941 673.83 Q33.9262 676.726 35.3903 679.4 L29.9795 679.4 Q28.7381 676.185 28.1334 673.162 Q27.4968 670.138 27.4968 667.273 Q27.4968 659.539 31.5072 655.72 Q35.5176 651.9 43.6657 651.9 Z" fill="#9eb1be" fill-rule="evenodd" fill-opacity="1" /><path clip-path="url(#clip400)" d="M33.8307 619.18 Q33.2578 620.167 33.0032 621.345 Q32.7167 622.491 32.7167 623.891 Q32.7167 628.856 35.9632 631.53 Q39.1779 634.172 45.2253 634.172 L64.0042 634.172 L64.0042 640.06 L28.3562 640.06 L28.3562 634.172 L33.8944 634.172 Q30.6479 632.326 29.0883 629.366 Q27.4968 626.405 27.4968 622.172 Q27.4968 621.568 27.5923 620.835 Q27.656 620.103 27.8151 619.212 L33.8307 619.18 Z" fill="#9eb1be" fill-rule="evenodd" fill-opacity="1" /><path clip-path="url(#clip400)" d="M46.212 587.447 Q39.7508 587.447 36.0905 590.121 Q32.3984 592.763 32.3984 597.41 Q32.3984 602.057 36.0905 604.73 Q39.7508 607.372 46.212 607.372 Q52.6732 607.372 56.3653 604.73 Q60.0256 602.057 60.0256 597.41 Q60.0256 592.763 56.3653 590.121 Q52.6732 587.447 46.212 587.447 M33.7671 607.372 Q30.5842 605.526 29.0564 602.725 Q27.4968 599.892 27.4968 595.977 Q27.4968 589.484 32.6531 585.442 Q37.8093 581.368 46.212 581.368 Q54.6147 581.368 59.771 585.442 Q64.9272 589.484 64.9272 595.977 Q64.9272 599.892 63.3994 602.725 Q61.8398 605.526 58.657 607.372 L64.0042 607.372 L64.0042 613.26 L14.479 613.26 L14.479 607.372 L33.7671 607.372 Z" fill="#9eb1be" fill-rule="evenodd" fill-opacity="1" /><path clip-path="url(#clip400)" d="M55.9197 570.833 L55.9197 564.117 L64.0042 564.117 L64.0042 570.833 L55.9197 570.833 Z" fill="#9eb1be" fill-rule="evenodd" fill-opacity="1" /><path clip-path="url(#clip400)" d="M14.5426 551.863 L14.5426 546.77 Q22.0542 541.996 29.2474 539.641 Q36.4406 537.254 43.5384 537.254 Q50.668 537.254 57.8931 539.641 Q65.1182 541.996 72.5979 546.77 L72.5979 551.863 Q65.3091 547.63 58.1159 545.561 Q50.8908 543.46 43.5384 543.46 Q36.186 543.46 29.0246 545.561 Q21.8632 547.63 14.5426 551.863 Z" fill="#9eb1be" fill-rule="evenodd" fill-opacity="1" /><path clip-path="url(#clip400)" d="M1072.29 12.096 L1081.08 12.096 L1096.11 34.5785 L1111.22 12.096 L1120.01 12.096 L1100.57 41.141 L1121.31 72.576 L1112.52 72.576 L1095.5 46.8528 L1078.37 72.576 L1069.54 72.576 L1091.13 40.2903 L1072.29 12.096 Z" fill="#adb2b7" fill-rule="evenodd" fill-opacity="1" /><path clip-path="url(#clip400)" d="M1160.72 44.2197 Q1163.35 45.1109 1165.83 48.0275 Q1168.34 50.9442 1170.85 56.0483 L1179.15 72.576 L1170.36 72.576 L1162.63 57.061 Q1159.63 50.9847 1156.79 48.9997 Q1154 47.0148 1149.14 47.0148 L1140.22 47.0148 L1140.22 72.576 L1132.04 72.576 L1132.04 12.096 L1150.51 12.096 Q1160.88 12.096 1165.99 16.4305 Q1171.09 20.7649 1171.09 29.5149 Q1171.09 35.2267 1168.42 38.994 Q1165.79 42.7613 1160.72 44.2197 M1140.22 18.8205 L1140.22 40.2903 L1150.51 40.2903 Q1156.43 40.2903 1159.43 37.5762 Q1162.46 34.8216 1162.46 29.5149 Q1162.46 24.2082 1159.43 21.5346 Q1156.43 18.8205 1150.51 18.8205 L1140.22 18.8205 Z" fill="#adb2b7" fill-rule="evenodd" fill-opacity="1" /><path clip-path="url(#clip400)" d="M1197.87 18.8205 L1197.87 65.8515 L1207.75 65.8515 Q1220.27 65.8515 1226.06 60.1802 Q1231.9 54.509 1231.9 42.2752 Q1231.9 30.1225 1226.06 24.4918 Q1220.27 18.8205 1207.75 18.8205 L1197.87 18.8205 M1189.69 12.096 L1206.5 12.096 Q1224.08 12.096 1232.3 19.4281 Q1240.52 26.7198 1240.52 42.2752 Q1240.52 57.9117 1232.26 65.2439 Q1224 72.576 1206.5 72.576 L1189.69 72.576 L1189.69 12.096 Z" fill="#adb2b7" fill-rule="evenodd" fill-opacity="1" /><path clip-path="url(#clip400)" d="M1275.85 46.5287 L1297.68 46.5287 L1297.68 53.1722 L1275.85 53.1722 L1275.85 46.5287 Z" fill="#adb2b7" fill-rule="evenodd" fill-opacity="1" /><path clip-path="url(#clip400)" d="M1336.25 12.096 L1371 12.096 L1371 18.9825 L1344.43 18.9825 L1344.43 36.8065 L1368.41 36.8065 L1368.41 43.6931 L1344.43 43.6931 L1344.43 72.576 L1336.25 72.576 L1336.25 12.096 Z" fill="#adb2b7" fill-rule="evenodd" fill-opacity="1" /><path clip-path="url(#clip400)" d="M1429.26 16.7545 L1429.26 25.383 Q1425.12 21.5346 1420.42 19.6307 Q1415.77 17.7268 1410.5 17.7268 Q1400.13 17.7268 1394.62 24.0867 Q1389.11 30.4061 1389.11 42.3968 Q1389.11 54.3469 1394.62 60.7069 Q1400.13 67.0263 1410.5 67.0263 Q1415.77 67.0263 1420.42 65.1223 Q1425.12 63.2184 1429.26 59.3701 L1429.26 67.9175 Q1424.96 70.8341 1420.14 72.2924 Q1415.36 73.7508 1410.01 73.7508 Q1396.28 73.7508 1388.38 65.3654 Q1380.48 56.9395 1380.48 42.3968 Q1380.48 27.8135 1388.38 19.4281 Q1396.28 11.0023 1410.01 11.0023 Q1415.44 11.0023 1420.22 12.4606 Q1425.04 13.8784 1429.26 16.7545 Z" fill="#adb2b7" fill-rule="evenodd" fill-opacity="1" /><path clip-path="url(#clip400)" d="M1487.18 16.7545 L1487.18 25.383 Q1483.05 21.5346 1478.35 19.6307 Q1473.69 17.7268 1468.43 17.7268 Q1458.06 17.7268 1452.55 24.0867 Q1447.04 30.4061 1447.04 42.3968 Q1447.04 54.3469 1452.55 60.7069 Q1458.06 67.0263 1468.43 67.0263 Q1473.69 67.0263 1478.35 65.1223 Q1483.05 63.2184 1487.18 59.3701 L1487.18 67.9175 Q1482.89 70.8341 1478.07 72.2924 Q1473.29 73.7508 1467.94 73.7508 Q1454.21 73.7508 1446.31 65.3654 Q1438.41 56.9395 1438.41 42.3968 Q1438.41 27.8135 1446.31 19.4281 Q1454.21 11.0023 1467.94 11.0023 Q1473.37 11.0023 1478.15 12.4606 Q1482.97 13.8784 1487.18 16.7545 Z" fill="#adb2b7" fill-rule="evenodd" fill-opacity="1" /><polyline clip-path="url(#clip402)" style="stroke:#fe4365; stroke-linecap:round; stroke-linejoin:round; stroke-width:4; stroke-opacity:1; fill:none" points="264.778,1365.18 266.808,1363.41 268.837,1372.03 270.866,1371.83 272.895,1383.31 274.924,1364.09 276.954,1359.04 278.983,1365.02 281.012,1381.19 283.041,1364.13 285.07,1386.4 287.1,1369.11 289.129,1382.9 291.158,1375.24 293.187,1349.99 295.216,1361.49 297.246,1362.1 299.275,1363.33 301.304,1372.96 303.333,1362.7 305.362,1364.43 307.391,1372.35 309.421,1362.79 311.45,1367.77 313.479,1359.73 315.508,1358.07 317.537,1381.43 319.567,1367.01 321.596,1357.6 323.625,1365.78 325.654,1364.33 327.683,1375.04 329.713,1356.86 331.742,1373.67 333.771,1368.74 335.8,1365.98 337.829,1364.51 339.859,1374.31 341.888,1368.1 343.917,1369 345.946,1357.25 347.975,1371.2 350.005,1362.2 352.034,1363.28 354.063,1335.21 356.092,1363.19 358.121,1372.13 360.15,1352.89 362.18,1357.05 364.209,1355.6 366.238,1385.2 368.267,1364.86 370.296,1369.23 372.326,1351.22 374.355,1379.27 376.384,1380.03 378.413,1364.59 380.442,1355.21 382.472,1369.64 384.501,1350.9 386.53,1359.54 388.559,1358.22 390.588,1382.25 392.618,1350.9 394.647,1370.53 396.676,1339.74 398.705,1375.75 400.734,1360.25 402.763,1360.89 404.793,1354.95 406.822,1353.36 408.851,1363.28 410.88,1364.07 412.909,1348.58 414.939,1356.1 416.968,1346.26 418.997,1345.28 421.026,1340 423.055,1353.32 425.085,1372.63 427.114,1367.26 429.143,1361.98 431.172,1354.84 433.201,1351.02 435.231,1367.13 437.26,1336.61 439.289,1362.23 441.318,1339.48 443.347,1366.61 445.377,1362.39 447.406,1367.88 449.435,1346.09 451.464,1351.89 453.493,1360.05 455.522,1362.04 457.552,1362.43 459.581,1360.48 461.61,1368.59 463.639,1357.9 465.668,1357.75 467.698,1364.22 469.727,1346.61 471.756,1348.92 473.785,1349.22 475.814,1359.91 477.844,1351.97 479.873,1344.18 481.902,1354.21 483.931,1346.26 485.96,1351.19 487.99,1356.99 490.019,1349.15 492.048,1329.81 494.077,1343.5 496.106,1338.65 498.136,1338.01 500.165,1322.91 502.194,1334.97 504.223,1334.71 506.252,1343.27 508.281,1357.63 510.311,1368.95 512.34,1324.57 514.369,1362.57 516.398,1335.07 518.427,1375.07 520.457,1369.46 522.486,1350.02 524.515,1332.06 526.544,1344.67 528.573,1325.53 530.603,1348.66 532.632,1346.82 534.661,1364.8 536.69,1350.95 538.719,1322.89 540.749,1359.25 542.778,1343.26 544.807,1342.67 546.836,1333.45 548.865,1357.47 550.894,1370.45 552.924,1356.08 554.953,1357.42 556.982,1344.58 559.011,1347.44 561.04,1332.82 563.07,1341.19 565.099,1338.9 567.128,1355.63 569.157,1343.06 571.186,1339.19 573.216,1352.66 575.245,1352.75 577.274,1355.26 579.303,1358.82 581.332,1359 583.362,1355.64 585.391,1359.14 587.42,1343.96 589.449,1355.44 591.478,1345.28 593.508,1330.9 595.537,1350.96 597.566,1338.57 599.595,1318.2 601.624,1352.1 603.653,1361.12 605.683,1322.97 607.712,1323.67 609.741,1336.86 611.77,1345.49 613.799,1313.29 615.829,1314.61 617.858,1334.58 619.887,1329.25 621.916,1332.03 623.945,1313.77 625.975,1318.53 628.004,1333.94 630.033,1352.64 632.062,1332.37 634.091,1342.75 636.121,1339.01 638.15,1337.83 640.179,1333.16 642.208,1347.28 644.237,1340.37 646.267,1305.27 648.296,1312.38 650.325,1321.3 652.354,1364 654.383,1347.51 656.412,1348.18 658.442,1342.7 660.471,1325.67 662.5,1319.46 664.529,1323.11 666.558,1328.97 668.588,1338.52 670.617,1335.06 672.646,1355.91 674.675,1318.31 676.704,1318.85 678.734,1310.14 680.763,1338.95 682.792,1340.42 684.821,1324.07 686.85,1351.5 688.88,1321.15 690.909,1321.33 692.938,1331.07 694.967,1327.58 696.996,1341.31 699.025,1337.05 701.055,1305.03 703.084,1332.26 705.113,1313.06 707.142,1327.11 709.171,1328.14 711.201,1312.88 713.23,1354.71 715.259,1347.82 717.288,1315.4 719.317,1330.44 721.347,1310.98 723.376,1326.29 725.405,1331.07 727.434,1316 729.463,1329.43 731.493,1306.6 733.522,1295.88 735.551,1326.66 737.58,1322.2 739.609,1340.94 741.639,1331.57 743.668,1312.7 745.697,1346.37 747.726,1308.44 749.755,1247.75 751.784,1144.09 753.814,875.311 755.843,547.276 757.872,923.323 759.901,1183.1 761.93,1231.14 763.96,1287.29 765.989,1307.06 768.018,1329.09 770.047,1307.18 772.076,1303.42 774.106,1324.43 776.135,1314.91 778.164,1309.47 780.193,1314.76 782.222,1330.24 784.252,1349.62 786.281,1339.91 788.31,1326.42 790.339,1300.03 792.368,1310.52 794.398,1314.04 796.427,1328.24 798.456,1282.28 800.485,1315.96 802.514,1346.91 804.543,1329.99 806.573,1305.54 808.602,1327.98 810.631,1320.75 812.66,1313.03 814.689,1314.7 816.719,1306.98 818.748,1315.04 820.777,1309.4 822.806,1294.57 824.835,1292.24 826.865,1329.96 828.894,1257.99 830.923,1232.9 832.952,1145.22 834.981,1061.87 837.011,900.757 839.04,972.77 841.069,1154.3 843.098,1182.47 845.127,1301.14 847.156,1315.93 849.186,1324.8 851.215,1321.62 853.244,1294.99 855.273,1312.67 857.302,1330.53 859.332,1283.93 861.361,1298.69 863.39,1345.7 865.419,1289.65 867.448,1331.69 869.478,1320.89 871.507,1321.79 873.536,1325.25 875.565,1322.54 877.594,1305.05 879.624,1343.9 881.653,1309.51 883.682,1303.65 885.711,1316.09 887.74,1285.94 889.77,1299.27 891.799,1336.73 893.828,1306.27 895.857,1318.73 897.886,1330.13 899.915,1317.71 901.945,1304.5 903.974,1324.34 906.003,1325.33 908.032,1296.69 910.061,1290.8 912.091,1317.55 914.12,1291.64 916.149,1319.54 918.178,1307.36 920.207,1310.12 922.237,1303.11 924.266,1318.14 926.295,1277.46 928.324,1342.21 930.353,1297.55 932.383,1323.5 934.412,1327.17 936.441,1307.87 938.47,1297.27 940.499,1306.81 942.529,1320.93 944.558,1318.03 946.587,1356.85 948.616,1279.67 950.645,1292.97 952.674,1301.97 954.704,1304.77 956.733,1332.57 958.762,1284.58 960.791,1320.57 962.82,1287.83 964.85,1318.75 966.879,1312.38 968.908,1325.68 970.937,1294.5 972.966,1305.44 974.996,1310.81 977.025,1334.42 979.054,1353.2 981.083,1330.17 983.112,1314.27 985.142,1309.33 987.171,1321.97 989.2,1312.78 991.229,1339.31 993.258,1318.4 995.287,1307.62 997.317,1255.68 999.346,1316.82 1001.38,1307.68 1003.4,1302.38 1005.43,1288.65 1007.46,1320.29 1009.49,1313.01 1011.52,1311.03 1013.55,1302.46 1015.58,1326.97 1017.61,1313.37 1019.64,1321.41 1021.67,1328.83 1023.7,1325.15 1025.73,1310.01 1027.75,1293.73 1029.78,1323.55 1031.81,1291.42 1033.84,1292.74 1035.87,1294.23 1037.9,1291.01 1039.93,1308.42 1041.96,1300.35 1043.99,1305.53 1046.02,1301.91 1048.05,1304.41 1050.08,1326.66 1052.1,1318.03 1054.13,1322.08 1056.16,1310.58 1058.19,1307.39 1060.22,1306.93 1062.25,1266.4 1064.28,1293.67 1066.31,1330.05 1068.34,1303.97 1070.37,1301.12 1072.4,1269.76 1074.43,1289.25 1076.46,1277.79 1078.48,1269.12 1080.51,1279.77 1082.54,1289.67 1084.57,1304.91 1086.6,1299.78 1088.63,1299.61 1090.66,1299.59 1092.69,1295.47 1094.72,1256.34 1096.75,1266.02 1098.78,1215.82 1100.81,1056.53 1102.83,903.439 1104.86,645.692 1106.89,584.786 1108.92,885.034 1110.95,1052.23 1112.98,1147.65 1115.01,1242.39 1117.04,1294.55 1119.07,1274.89 1121.1,1310.53 1123.13,1268.96 1125.16,1288.13 1127.18,1279.21 1129.21,1289.64 1131.24,1301.86 1133.27,1261.54 1135.3,1279.16 1137.33,1301.53 1139.36,1318.38 1141.39,1278.21 1143.42,1287.64 1145.45,1300.1 1147.48,1284.13 1149.51,1300.61 1151.54,1294.15 1153.56,1260.36 1155.59,1263.73 1157.62,1291.46 1159.65,1301.55 1161.68,1320.49 1163.71,1281.07 1165.74,1283.73 1167.77,1276.8 1169.8,1322.66 1171.83,1302.91 1173.86,1302.76 1175.89,1322.88 1177.91,1309.19 1179.94,1267.18 1181.97,1299.4 1184,1284.8 1186.03,1320.41 1188.06,1285.99 1190.09,1275.26 1192.12,1318.17 1194.15,1291.54 1196.18,1283.14 1198.21,1307.69 1200.24,1299.48 1202.27,1323.21 1204.29,1291.89 1206.32,1299.68 1208.35,1295.03 1210.38,1277.49 1212.41,1287.17 1214.44,1277.56 1216.47,1286 1218.5,1282.7 1220.53,1270.9 1222.56,1288.85 1224.59,1285.41 1226.62,1321.17 1228.64,1301.27 1230.67,1263.24 1232.7,1292.33 1234.73,1299.75 1236.76,1313.72 1238.79,1318.75 1240.82,1278.33 1242.85,1273.63 1244.88,1255.7 1246.91,1323.15 1248.94,1275.14 1250.97,1294.43 1252.99,1266.76 1255.02,1317.44 1257.05,1311.14 1259.08,1307.41 1261.11,1285.76 1263.14,1256.72 1265.17,1281.37 1267.2,1263.1 1269.23,1264.42 1271.26,1214.72 1273.29,1258.5 1275.32,1214.61 1277.35,1123.28 1279.37,1016.5 1281.4,688.619 1283.43,324.159 1285.46,160.256 1287.49,222.359 1289.52,581.225 1291.55,827.383 1293.58,1077.03 1295.61,1190.82 1297.64,1196.51 1299.67,1267.69 1301.7,1259.72 1303.72,1262.99 1305.75,1237.91 1307.78,1275.84 1309.81,1261.53 1311.84,1255.58 1313.87,1292.48 1315.9,1264.39 1317.93,1281.55 1319.96,1312.74 1321.99,1246.19 1324.02,1290.94 1326.05,1247.33 1328.07,1271.75 1330.1,1284.11 1332.13,1277 1334.16,1270.77 1336.19,1240.83 1338.22,1187.38 1340.25,1152.59 1342.28,1127.83 1344.31,970.243 1346.34,880.176 1348.37,992.949 1350.4,1105.61 1352.43,1149.3 1354.45,1244.25 1356.48,1271.24 1358.51,1286.51 1360.54,1238.68 1362.57,1271.42 1364.6,1314.36 1366.63,1276.33 1368.66,1259.73 1370.69,1253.76 1372.72,1301.05 1374.75,1269.53 1376.78,1257.82 1378.8,1300.93 1380.83,1296.71 1382.86,1297.32 1384.89,1281.63 1386.92,1267.22 1388.95,1285.67 1390.98,1309.11 1393.01,1280.38 1395.04,1261.24 1397.07,1288.83 1399.1,1234.44 1401.13,1277.66 1403.16,1293.82 1405.18,1290.97 1407.21,1268.95 1409.24,1307.33 1411.27,1287.4 1413.3,1298.81 1415.33,1273.99 1417.36,1282.9 1419.39,1276.36 1421.42,1277.23 1423.45,1270.43 1425.48,1289.33 1427.51,1292.75 1429.53,1248.14 1431.56,1279.29 1433.59,1299.49 1435.62,1287.11 1437.65,1276.54 1439.68,1255.85 1441.71,1296.63 1443.74,1299.02 1445.77,1281.4 1447.8,1284.91 1449.83,1267.69 1451.86,1260.56 1453.88,1247.11 1455.91,1286.49 1457.94,1266.17 1459.97,1309.59 1462,1283 1464.03,1310.28 1466.06,1282.21 1468.09,1300.58 1470.12,1324.01 1472.15,1311.35 1474.18,1296.18 1476.21,1288.84 1478.24,1275.64 1480.26,1289.59 1482.29,1290.6 1484.32,1289.01 1486.35,1280.27 1488.38,1266.3 1490.41,1264.12 1492.44,1270.61 1494.47,1339.33 1496.5,1265.42 1498.53,1258.03 1500.56,1286.58 1502.59,1263.22 1504.61,1269.2 1506.64,1281.59 1508.67,1277.79 1510.7,1269.64 1512.73,1253.14 1514.76,1261.35 1516.79,1265.01 1518.82,1275.63 1520.85,1289.27 1522.88,1300.84 1524.91,1281.25 1526.94,1283.81 1528.96,1288 1530.99,1291.74 1533.02,1285.89 1535.05,1295.54 1537.08,1257.52 1539.11,1264.1 1541.14,1277.61 1543.17,1272.61 1545.2,1268.43 1547.23,1281.34 1549.26,1277.36 1551.29,1278.32 1553.32,1263.96 1555.34,1276.08 1557.37,1293.06 1559.4,1236.2 1561.43,1258.5 1563.46,1289.37 1565.49,1303.01 1567.52,1315.47 1569.55,1274.62 1571.58,1294.66 1573.61,1276.6 1575.64,1282.68 1577.67,1258.54 1579.69,1257.21 1581.72,1246.7 1583.75,1260.49 1585.78,1210.73 1587.81,1159.33 1589.84,1172.06 1591.87,1130.99 1593.9,1130.22 1595.93,1005.43 1597.96,1076.46 1599.99,1162.01 1602.02,1183.47 1604.05,1216.78 1606.07,1266.32 1608.1,1286.74 1610.13,1225.64 1612.16,1250.05 1614.19,1240.25 1616.22,1290.15 1618.25,1292.78 1620.28,1247.27 1622.31,1254.4 1624.34,1284.48 1626.37,1253.94 1628.4,1294.6 1630.42,1278.43 1632.45,1262.4 1634.48,1271.43 1636.51,1247.41 1638.54,1278.12 1640.57,1283.16 1642.6,1251.56 1644.63,1276.68 1646.66,1254.05 1648.69,1299.17 1650.72,1285.16 1652.75,1268.26 1654.77,1289.53 1656.8,1273.34 1658.83,1263.11 1660.86,1258.69 1662.89,1280.27 1664.92,1287.07 1666.95,1299.51 1668.98,1261.53 1671.01,1266.68 1673.04,1252.21 1675.07,1284.48 1677.1,1279.47 1679.13,1303.05 1681.15,1278.98 1683.18,1253.04 1685.21,1236.93 1687.24,1291.23 1689.27,1259.23 1691.3,1269.22 1693.33,1291.6 1695.36,1265 1697.39,1262.42 1699.42,1268.03 1701.45,1253.42 1703.48,1241.18 1705.5,1265.64 1707.53,1265.64 1709.56,1315.19 1711.59,1288.61 1713.62,1288.4 1715.65,1319.86 1717.68,1246.98 1719.71,1291.24 1721.74,1303.85 1723.77,1273.49 1725.8,1262.34 1727.83,1247.38 1729.85,1243.05 1731.88,1291.92 1733.91,1255.11 1735.94,1304.68 1737.97,1267.77 1740,1238.5 1742.03,1273.07 1744.06,1246.91 1746.09,1285.12 1748.12,1298.21 1750.15,1282.03 1752.18,1272.24 1754.21,1260.49 1756.23,1273.14 1758.26,1275.84 1760.29,1289.14 1762.32,1281.77 1764.35,1252.07 1766.38,1290.04 1768.41,1236.51 1770.44,1236.84 1772.47,1274.52 1774.5,1299.33 1776.53,1253.6 1778.56,1234.27 1780.58,1300.2 1782.61,1259.56 1784.64,1262.32 1786.67,1258.32 1788.7,1253.4 1790.73,1251.6 1792.76,1235.34 1794.79,1228.75 1796.82,1253.52 1798.85,1282.38 1800.88,1250.05 1802.91,1262.25 1804.94,1218.28 1806.96,1213.2 1808.99,1167.6 1811.02,1101.09 1813.05,1067.13 1815.08,926.708 1817.11,917.256 1819.14,729.3 1821.17,734.538 1823.2,694.299 1825.23,657.14 1827.26,727.139 1829.29,872.225 1831.31,1011.96 1833.34,1008.21 1835.37,1039.36 1837.4,1188.47 1839.43,1129.2 1841.46,1224.26 1843.49,1198.23 1845.52,1215.07 1847.55,1259.39 1849.58,1259.3 1851.61,1247.23 1853.64,1286.83 1855.66,1237.37 1857.69,1256.08 1859.72,1243 1861.75,1237.85 1863.78,1285.13 1865.81,1242.39 1867.84,1210.24 1869.87,1273.47 1871.9,1236.46 1873.93,1238.97 1875.96,1256.62 1877.99,1230.45 1880.02,1242.41 1882.04,1231.23 1884.07,1240.55 1886.1,1237.4 1888.13,1247.13 1890.16,1220.23 1892.19,1267.8 1894.22,1269.8 1896.25,1184.47 1898.28,1226.93 1900.31,1216.5 1902.34,1171.91 1904.37,1189.51 1906.39,1155.5 1908.42,1151.76 1910.45,1074.31 1912.48,928.318 1914.51,898.696 1916.54,872.537 1918.57,781.21 1920.6,585.65 1922.63,748.302 1924.66,689.384 1926.69,869.108 1928.72,897.617 1930.74,826.617 1932.77,981.443 1934.8,1082.89 1936.83,1098.84 1938.86,1144.11 1940.89,1217.01 1942.92,1164.31 1944.95,1266.59 1946.98,1200.68 1949.01,1261.18 1951.04,1220.15 1953.07,1253.74 1955.1,1227.53 1957.12,1226.87 1959.15,1269.77 1961.18,1241.42 1963.21,1266.17 1965.24,1255.65 1967.27,1221.17 1969.3,1243.85 1971.33,1310.28 1973.36,1278.41 1975.39,1249.22 1977.42,1265.28 1979.45,1236.25 1981.47,1281.57 1983.5,1295.23 1985.53,1264.81 1987.56,1241.45 1989.59,1234.93 1991.62,1229.38 1993.65,1256.37 1995.68,1260.09 1997.71,1259.4 1999.74,1269.91 2001.77,1202.1 2003.8,1283.55 2005.82,1272.71 2007.85,1274.82 2009.88,1247.93 2011.91,1272.54 2013.94,1261.99 2015.97,1219.61 2018,1258.05 2020.03,1277.91 2022.06,1236.87 2024.09,1268.35 2026.12,1244.68 2028.15,1257.2 2030.18,1266.14 2032.2,1280.15 2034.23,1256.59 2036.26,1290.25 2038.29,1226.14 2040.32,1258.04 2042.35,1263.84 2044.38,1269.53 2046.41,1275.04 2048.44,1258.95 2050.47,1281.59 2052.5,1247.17 2054.53,1258.15 2056.55,1251.73 2058.58,1272.84 2060.61,1264.65 2062.64,1290.26 2064.67,1255.09 2066.7,1259.1 2068.73,1262.98 2070.76,1278 2072.79,1282.86 2074.82,1270.6 2076.85,1255.2 2078.88,1284.5 2080.91,1261.08 2082.93,1242.41 2084.96,1267.45 2086.99,1280.01 2089.02,1306.49 2091.05,1276.16 2093.08,1268.19 2095.11,1273.07 2097.14,1273.82 2099.17,1250.89 2101.2,1280.13 2103.23,1281.61 2105.26,1265.23 2107.28,1283.57 2109.31,1244.76 2111.34,1292.51 2113.37,1286.74 2115.4,1273.55 2117.43,1247.86 2119.46,1276.31 2121.49,1245.2 2123.52,1263.77 2125.55,1288.33 2127.58,1220.6 2129.61,1258.56 2131.63,1252.98 2133.66,1248.06 2135.69,1259.17 2137.72,1259.66 2139.75,1250.97 2141.78,1284.31 2143.81,1278.98 2145.84,1247.31 2147.87,1277.87 2149.9,1294.08 2151.93,1280.65 2153.96,1256.72 2155.99,1287.23 2158.01,1261.17 2160.04,1268.01 2162.07,1248.26 2164.1,1268.53 2166.13,1279.25 2168.16,1257.29 2170.19,1252.23 2172.22,1240.21 2174.25,1238.6 2176.28,1252.86 2178.31,1278 2180.34,1259.44 2182.36,1254.85 2184.39,1289.48 2186.42,1314.96 2188.45,1271.57 2190.48,1247.27 2192.51,1297.2 2194.54,1266.04 2196.57,1221.77 2198.6,1277.79 2200.63,1248.04 2202.66,1279.55 2204.69,1273.41 2206.71,1277.43 2208.74,1286.82 2210.77,1277.18 2212.8,1287.78 2214.83,1224.29 2216.86,1263.27 2218.89,1288.39 2220.92,1239.8 2222.95,1227.78 2224.98,1240.43 2227.01,1270.47 2229.04,1246.75 2231.07,1259.27 2233.09,1257.21 2235.12,1288.77 2237.15,1247.97 2239.18,1236.34 2241.21,1247.47 2243.24,1269.2 2245.27,1251.11 2247.3,1236.79 2249.33,1262.95 2251.36,1254.59 2253.39,1256.4 2255.42,1271.32 2257.44,1248.51 2259.47,1281.88 2261.5,1265.14 2263.53,1255.21 2265.56,1226.61 2267.59,1244.85 2269.62,1265.96 2271.65,1253.79 2273.68,1277.09 2275.71,1228.93 2277.74,1282.99 2279.77,1245.5 2281.8,1257.38 2283.82,1254.91 2285.85,1269.98 2287.88,1257.23 2289.91,1239.96 "/>
<path clip-path="url(#clip400)" d="M275.59 270.476 L542.899 270.476 L542.899 166.796 L275.59 166.796  Z" fill="#282c34" fill-rule="evenodd" fill-opacity="1"/>
<polyline clip-path="url(#clip400)" style="stroke:#9eb1be; stroke-linecap:round; stroke-linejoin:round; stroke-width:4; stroke-opacity:1; fill:none" points="275.59,270.476 542.899,270.476 542.899,166.796 275.59,166.796 275.59,270.476 "/>
<polyline clip-path="url(#clip400)" style="stroke:#fe4365; stroke-linecap:round; stroke-linejoin:round; stroke-width:4; stroke-opacity:1; fill:none" points="299.465,218.636 442.718,218.636 "/>
<path clip-path="url(#clip400)" d="M480.436 238.323 Q478.631 242.953 476.918 244.365 Q475.205 245.777 472.334 245.777 L468.932 245.777 L468.932 242.212 L471.432 242.212 Q473.191 242.212 474.163 241.379 Q475.135 240.545 476.316 237.443 L477.08 235.499 L466.594 209.99 L471.108 209.99 L479.209 230.268 L487.311 209.99 L491.825 209.99 L480.436 238.323 Z" fill="#adb2b7" fill-rule="evenodd" fill-opacity="1" /><path clip-path="url(#clip400)" d="M499.117 231.981 L506.756 231.981 L506.756 205.615 L498.445 207.282 L498.445 203.022 L506.709 201.356 L511.385 201.356 L511.385 231.981 L519.024 231.981 L519.024 235.916 L499.117 235.916 L499.117 231.981 Z" fill="#adb2b7" fill-rule="evenodd" fill-opacity="1" /></svg>
