<?xml version="1.0" encoding="utf-8"?>
<svg xmlns="http://www.w3.org/2000/svg" xmlns:xlink="http://www.w3.org/1999/xlink" width="600" height="400" viewBox="0 0 2400 1600">
<defs>
  <clipPath id="clip320">
    <rect x="0" y="0" width="2400" height="1600"/>
  </clipPath>
</defs>
<path clip-path="url(#clip320)" d="M0 1600 L2400 1600 L2400 0 L0 0  Z" fill="#282c34" fill-rule="evenodd" fill-opacity="1"/>
<defs>
  <clipPath id="clip321">
    <rect x="480" y="0" width="1681" height="1600"/>
  </clipPath>
</defs>
<path clip-path="url(#clip320)" d="M205.121 1423.18 L2352.76 1423.18 L2352.76 123.472 L205.121 123.472  Z" fill="#21252b" fill-rule="evenodd" fill-opacity="1"/>
<defs>
  <clipPath id="clip322">
    <rect x="205" y="123" width="2149" height="1301"/>
  </clipPath>
</defs>
<polyline clip-path="url(#clip322)" style="stroke:#adb2b7; stroke-linecap:round; stroke-linejoin:round; stroke-width:2; stroke-opacity:0.1; fill:none" points="265.903,1423.18 265.903,123.472 "/>
<polyline clip-path="url(#clip322)" style="stroke:#adb2b7; stroke-linecap:round; stroke-linejoin:round; stroke-width:2; stroke-opacity:0.1; fill:none" points="828.701,1423.18 828.701,123.472 "/>
<polyline clip-path="url(#clip322)" style="stroke:#adb2b7; stroke-linecap:round; stroke-linejoin:round; stroke-width:2; stroke-opacity:0.1; fill:none" points="1391.5,1423.18 1391.5,123.472 "/>
<polyline clip-path="url(#clip322)" style="stroke:#adb2b7; stroke-linecap:round; stroke-linejoin:round; stroke-width:2; stroke-opacity:0.1; fill:none" points="1954.3,1423.18 1954.3,123.472 "/>
<polyline clip-path="url(#clip320)" style="stroke:#adb2b7; stroke-linecap:round; stroke-linejoin:round; stroke-width:4; stroke-opacity:1; fill:none" points="205.121,1423.18 2352.76,1423.18 "/>
<polyline clip-path="url(#clip320)" style="stroke:#adb2b7; stroke-linecap:round; stroke-linejoin:round; stroke-width:4; stroke-opacity:1; fill:none" points="265.903,1423.18 265.903,1404.28 "/>
<polyline clip-path="url(#clip320)" style="stroke:#adb2b7; stroke-linecap:round; stroke-linejoin:round; stroke-width:4; stroke-opacity:1; fill:none" points="828.701,1423.18 828.701,1404.28 "/>
<polyline clip-path="url(#clip320)" style="stroke:#adb2b7; stroke-linecap:round; stroke-linejoin:round; stroke-width:4; stroke-opacity:1; fill:none" points="1391.5,1423.18 1391.5,1404.28 "/>
<polyline clip-path="url(#clip320)" style="stroke:#adb2b7; stroke-linecap:round; stroke-linejoin:round; stroke-width:4; stroke-opacity:1; fill:none" points="1954.3,1423.18 1954.3,1404.28 "/>
<path clip-path="url(#clip320)" d="M265.903 1454.1 Q262.292 1454.1 260.463 1457.66 Q258.658 1461.2 258.658 1468.33 Q258.658 1475.44 260.463 1479.01 Q262.292 1482.55 265.903 1482.55 Q269.537 1482.55 271.343 1479.01 Q273.172 1475.44 273.172 1468.33 Q273.172 1461.2 271.343 1457.66 Q269.537 1454.1 265.903 1454.1 M265.903 1450.39 Q271.713 1450.39 274.769 1455 Q277.847 1459.58 277.847 1468.33 Q277.847 1477.06 274.769 1481.67 Q271.713 1486.25 265.903 1486.25 Q260.093 1486.25 257.014 1481.67 Q253.959 1477.06 253.959 1468.33 Q253.959 1459.58 257.014 1455 Q260.093 1450.39 265.903 1450.39 Z" fill="#9eb1be" fill-rule="evenodd" fill-opacity="1" /><path clip-path="url(#clip320)" d="M803.4 1451.02 L821.756 1451.02 L821.756 1454.96 L807.682 1454.96 L807.682 1463.43 Q808.701 1463.08 809.719 1462.92 Q810.738 1462.73 811.756 1462.73 Q817.543 1462.73 820.923 1465.9 Q824.302 1469.08 824.302 1474.49 Q824.302 1480.07 820.83 1483.17 Q817.358 1486.25 811.039 1486.25 Q808.863 1486.25 806.594 1485.88 Q804.349 1485.51 801.941 1484.77 L801.941 1480.07 Q804.025 1481.2 806.247 1481.76 Q808.469 1482.32 810.946 1482.32 Q814.951 1482.32 817.289 1480.21 Q819.626 1478.1 819.626 1474.49 Q819.626 1470.88 817.289 1468.77 Q814.951 1466.67 810.946 1466.67 Q809.071 1466.67 807.196 1467.08 Q805.344 1467.5 803.4 1468.38 L803.4 1451.02 Z" fill="#9eb1be" fill-rule="evenodd" fill-opacity="1" /><path clip-path="url(#clip320)" d="M843.515 1454.1 Q839.904 1454.1 838.075 1457.66 Q836.27 1461.2 836.27 1468.33 Q836.27 1475.44 838.075 1479.01 Q839.904 1482.55 843.515 1482.55 Q847.149 1482.55 848.955 1479.01 Q850.784 1475.44 850.784 1468.33 Q850.784 1461.2 848.955 1457.66 Q847.149 1454.1 843.515 1454.1 M843.515 1450.39 Q849.325 1450.39 852.381 1455 Q855.46 1459.58 855.46 1468.33 Q855.46 1477.06 852.381 1481.67 Q849.325 1486.25 843.515 1486.25 Q837.705 1486.25 834.626 1481.67 Q831.571 1477.06 831.571 1468.33 Q831.571 1459.58 834.626 1455 Q837.705 1450.39 843.515 1450.39 Z" fill="#9eb1be" fill-rule="evenodd" fill-opacity="1" /><path clip-path="url(#clip320)" d="M1351.1 1481.64 L1358.74 1481.64 L1358.74 1455.28 L1350.43 1456.95 L1350.43 1452.69 L1358.7 1451.02 L1363.37 1451.02 L1363.37 1481.64 L1371.01 1481.64 L1371.01 1485.58 L1351.1 1485.58 L1351.1 1481.64 Z" fill="#9eb1be" fill-rule="evenodd" fill-opacity="1" /><path clip-path="url(#clip320)" d="M1390.46 1454.1 Q1386.85 1454.1 1385.02 1457.66 Q1383.21 1461.2 1383.21 1468.33 Q1383.21 1475.44 1385.02 1479.01 Q1386.85 1482.55 1390.46 1482.55 Q1394.09 1482.55 1395.9 1479.01 Q1397.72 1475.44 1397.72 1468.33 Q1397.72 1461.2 1395.9 1457.66 Q1394.09 1454.1 1390.46 1454.1 M1390.46 1450.39 Q1396.27 1450.39 1399.32 1455 Q1402.4 1459.58 1402.4 1468.33 Q1402.4 1477.06 1399.32 1481.67 Q1396.27 1486.25 1390.46 1486.25 Q1384.65 1486.25 1381.57 1481.67 Q1378.51 1477.06 1378.51 1468.33 Q1378.51 1459.58 1381.57 1455 Q1384.65 1450.39 1390.46 1450.39 Z" fill="#9eb1be" fill-rule="evenodd" fill-opacity="1" /><path clip-path="url(#clip320)" d="M1420.62 1454.1 Q1417.01 1454.1 1415.18 1457.66 Q1413.37 1461.2 1413.37 1468.33 Q1413.37 1475.44 1415.18 1479.01 Q1417.01 1482.55 1420.62 1482.55 Q1424.25 1482.55 1426.06 1479.01 Q1427.89 1475.44 1427.89 1468.33 Q1427.89 1461.2 1426.06 1457.66 Q1424.25 1454.1 1420.62 1454.1 M1420.62 1450.39 Q1426.43 1450.39 1429.48 1455 Q1432.56 1459.58 1432.56 1468.33 Q1432.56 1477.06 1429.48 1481.67 Q1426.43 1486.25 1420.62 1486.25 Q1414.81 1486.25 1411.73 1481.67 Q1408.67 1477.06 1408.67 1468.33 Q1408.67 1459.58 1411.73 1455 Q1414.81 1450.39 1420.62 1450.39 Z" fill="#9eb1be" fill-rule="evenodd" fill-opacity="1" /><path clip-path="url(#clip320)" d="M1913.9 1481.64 L1921.54 1481.64 L1921.54 1455.28 L1913.23 1456.95 L1913.23 1452.69 L1921.49 1451.02 L1926.17 1451.02 L1926.17 1481.64 L1933.81 1481.64 L1933.81 1485.58 L1913.9 1485.58 L1913.9 1481.64 Z" fill="#9eb1be" fill-rule="evenodd" fill-opacity="1" /><path clip-path="url(#clip320)" d="M1943.3 1451.02 L1961.66 1451.02 L1961.66 1454.96 L1947.58 1454.96 L1947.58 1463.43 Q1948.6 1463.08 1949.62 1462.92 Q1950.64 1462.73 1951.66 1462.73 Q1957.44 1462.73 1960.82 1465.9 Q1964.2 1469.08 1964.2 1474.49 Q1964.2 1480.07 1960.73 1483.17 Q1957.26 1486.25 1950.94 1486.25 Q1948.76 1486.25 1946.49 1485.88 Q1944.25 1485.51 1941.84 1484.77 L1941.84 1480.07 Q1943.93 1481.2 1946.15 1481.76 Q1948.37 1482.32 1950.85 1482.32 Q1954.85 1482.32 1957.19 1480.21 Q1959.53 1478.1 1959.53 1474.49 Q1959.53 1470.88 1957.19 1468.77 Q1954.85 1466.67 1950.85 1466.67 Q1948.97 1466.67 1947.1 1467.08 Q1945.24 1467.5 1943.3 1468.38 L1943.3 1451.02 Z" fill="#9eb1be" fill-rule="evenodd" fill-opacity="1" /><path clip-path="url(#clip320)" d="M1983.42 1454.1 Q1979.8 1454.1 1977.98 1457.66 Q1976.17 1461.2 1976.17 1468.33 Q1976.17 1475.44 1977.98 1479.01 Q1979.8 1482.55 1983.42 1482.55 Q1987.05 1482.55 1988.86 1479.01 Q1990.68 1475.44 1990.68 1468.33 Q1990.68 1461.2 1988.86 1457.66 Q1987.05 1454.1 1983.42 1454.1 M1983.42 1450.39 Q1989.23 1450.39 1992.28 1455 Q1995.36 1459.58 1995.36 1468.33 Q1995.36 1477.06 1992.28 1481.67 Q1989.23 1486.25 1983.42 1486.25 Q1977.61 1486.25 1974.53 1481.67 Q1971.47 1477.06 1971.47 1468.33 Q1971.47 1459.58 1974.53 1455 Q1977.61 1450.39 1983.42 1450.39 Z" fill="#9eb1be" fill-rule="evenodd" fill-opacity="1" /><path clip-path="url(#clip320)" d="M1153.96 1562.63 L1176.4 1562.63 L1176.4 1568.04 L1146.23 1568.04 L1146.23 1562.63 Q1149.89 1558.85 1156.19 1552.48 Q1162.53 1546.08 1164.15 1544.24 Q1167.24 1540.77 1168.45 1538.38 Q1169.69 1535.96 1169.69 1533.64 Q1169.69 1529.85 1167.01 1527.46 Q1164.37 1525.08 1160.11 1525.08 Q1157.08 1525.08 1153.71 1526.13 Q1150.37 1527.18 1146.55 1529.31 L1146.55 1522.82 Q1150.43 1521.26 1153.8 1520.46 Q1157.18 1519.66 1159.98 1519.66 Q1167.36 1519.66 1171.76 1523.36 Q1176.15 1527.05 1176.15 1533.22 Q1176.15 1536.15 1175.03 1538.79 Q1173.95 1541.4 1171.06 1544.97 Q1170.26 1545.89 1165.99 1550.32 Q1161.73 1554.71 1153.96 1562.63 Z" fill="#9eb1be" fill-rule="evenodd" fill-opacity="1" /><path clip-path="url(#clip320)" d="M1213.01 1545.45 L1192.73 1545.45 Q1193.21 1554.96 1195.4 1559 Q1198.14 1563.97 1202.88 1563.97 Q1207.66 1563.97 1210.3 1558.97 Q1212.62 1554.58 1213.01 1545.45 M1212.91 1540.03 Q1212.02 1531 1210.3 1527.81 Q1207.56 1522.78 1202.88 1522.78 Q1198.01 1522.78 1195.44 1527.75 Q1193.4 1531.76 1192.79 1540.03 L1212.91 1540.03 M1202.88 1518.01 Q1210.52 1518.01 1214.88 1524.76 Q1219.24 1531.47 1219.24 1543.38 Q1219.24 1555.25 1214.88 1562 Q1210.52 1568.78 1202.88 1568.78 Q1195.21 1568.78 1190.88 1562 Q1186.52 1555.25 1186.52 1543.38 Q1186.52 1531.47 1190.88 1524.76 Q1195.21 1518.01 1202.88 1518.01 Z" fill="#9eb1be" fill-rule="evenodd" fill-opacity="1" /><path clip-path="url(#clip320)" d="M1263.74 1518.58 Q1259.48 1525.9 1257.41 1533.06 Q1255.34 1540.23 1255.34 1547.58 Q1255.34 1554.93 1257.41 1562.16 Q1259.51 1569.35 1263.74 1576.64 L1258.65 1576.64 Q1253.87 1569.16 1251.49 1561.93 Q1249.13 1554.71 1249.13 1547.58 Q1249.13 1540.48 1251.49 1533.29 Q1253.84 1526.09 1258.65 1518.58 L1263.74 1518.58 Z" fill="#9eb1be" fill-rule="evenodd" fill-opacity="1" /><path clip-path="url(#clip320)" d="M1298.56 1537.81 L1298.56 1518.52 L1304.42 1518.52 L1304.42 1568.04 L1298.56 1568.04 L1298.56 1562.7 Q1296.71 1565.88 1293.88 1567.44 Q1291.08 1568.97 1287.13 1568.97 Q1280.67 1568.97 1276.6 1563.81 Q1272.56 1558.65 1272.56 1550.25 Q1272.56 1541.85 1276.6 1536.69 Q1280.67 1531.54 1287.13 1531.54 Q1291.08 1531.54 1293.88 1533.1 Q1296.71 1534.62 1298.56 1537.81 M1278.6 1550.25 Q1278.6 1556.71 1281.25 1560.4 Q1283.92 1564.07 1288.57 1564.07 Q1293.21 1564.07 1295.89 1560.4 Q1298.56 1556.71 1298.56 1550.25 Q1298.56 1543.79 1295.89 1540.13 Q1293.21 1536.44 1288.57 1536.44 Q1283.92 1536.44 1281.25 1540.13 Q1278.6 1543.79 1278.6 1550.25 Z" fill="#9eb1be" fill-rule="evenodd" fill-opacity="1" /><path clip-path="url(#clip320)" d="M1346.97 1548.76 L1346.97 1551.62 L1320.04 1551.62 Q1320.43 1557.67 1323.67 1560.85 Q1326.95 1564 1332.78 1564 Q1336.15 1564 1339.3 1563.17 Q1342.48 1562.35 1345.6 1560.69 L1345.6 1566.23 Q1342.45 1567.57 1339.14 1568.27 Q1335.83 1568.97 1332.43 1568.97 Q1323.9 1568.97 1318.9 1564 Q1313.93 1559.04 1313.93 1550.57 Q1313.93 1541.82 1318.64 1536.69 Q1323.39 1531.54 1331.41 1531.54 Q1338.6 1531.54 1342.77 1536.18 Q1346.97 1540.8 1346.97 1548.76 M1341.12 1547.04 Q1341.05 1542.23 1338.41 1539.37 Q1335.8 1536.5 1331.47 1536.5 Q1326.57 1536.5 1323.61 1539.27 Q1320.68 1542.04 1320.24 1547.07 L1341.12 1547.04 Z" fill="#9eb1be" fill-rule="evenodd" fill-opacity="1" /><path clip-path="url(#clip320)" d="M1380.04 1549.81 Q1380.04 1543.44 1377.4 1539.94 Q1374.79 1536.44 1370.05 1536.44 Q1365.34 1536.44 1362.7 1539.94 Q1360.09 1543.44 1360.09 1549.81 Q1360.09 1556.14 1362.7 1559.64 Q1365.34 1563.14 1370.05 1563.14 Q1374.79 1563.14 1377.4 1559.64 Q1380.04 1556.14 1380.04 1549.81 M1385.9 1563.62 Q1385.9 1572.72 1381.86 1577.15 Q1377.81 1581.6 1369.47 1581.6 Q1366.39 1581.6 1363.65 1581.13 Q1360.91 1580.68 1358.33 1579.72 L1358.33 1574.03 Q1360.91 1575.43 1363.43 1576.1 Q1365.94 1576.76 1368.55 1576.76 Q1374.31 1576.76 1377.18 1573.74 Q1380.04 1570.75 1380.04 1564.67 L1380.04 1561.77 Q1378.23 1564.92 1375.39 1566.48 Q1372.56 1568.04 1368.62 1568.04 Q1362.06 1568.04 1358.05 1563.05 Q1354.04 1558.05 1354.04 1549.81 Q1354.04 1541.53 1358.05 1536.53 Q1362.06 1531.54 1368.62 1531.54 Q1372.56 1531.54 1375.39 1533.1 Q1378.23 1534.66 1380.04 1537.81 L1380.04 1532.4 L1385.9 1532.4 L1385.9 1563.62 Z" fill="#9eb1be" fill-rule="evenodd" fill-opacity="1" /><path clip-path="url(#clip320)" d="M1397.04 1518.58 L1402.13 1518.58 Q1406.91 1526.09 1409.26 1533.29 Q1411.65 1540.48 1411.65 1547.58 Q1411.65 1554.71 1409.26 1561.93 Q1406.91 1569.16 1402.13 1576.64 L1397.04 1576.64 Q1401.27 1569.35 1403.34 1562.16 Q1405.44 1554.93 1405.44 1547.58 Q1405.44 1540.23 1403.34 1533.06 Q1401.27 1525.9 1397.04 1518.58 Z" fill="#9eb1be" fill-rule="evenodd" fill-opacity="1" /><polyline clip-path="url(#clip322)" style="stroke:#adb2b7; stroke-linecap:round; stroke-linejoin:round; stroke-width:2; stroke-opacity:0.1; fill:none" points="205.121,1131.16 2352.76,1131.16 "/>
<polyline clip-path="url(#clip322)" style="stroke:#adb2b7; stroke-linecap:round; stroke-linejoin:round; stroke-width:2; stroke-opacity:0.1; fill:none" points="205.121,824.635 2352.76,824.635 "/>
<polyline clip-path="url(#clip322)" style="stroke:#adb2b7; stroke-linecap:round; stroke-linejoin:round; stroke-width:2; stroke-opacity:0.1; fill:none" points="205.121,518.106 2352.76,518.106 "/>
<polyline clip-path="url(#clip322)" style="stroke:#adb2b7; stroke-linecap:round; stroke-linejoin:round; stroke-width:2; stroke-opacity:0.1; fill:none" points="205.121,211.576 2352.76,211.576 "/>
<polyline clip-path="url(#clip320)" style="stroke:#adb2b7; stroke-linecap:round; stroke-linejoin:round; stroke-width:4; stroke-opacity:1; fill:none" points="205.121,1423.18 205.121,123.472 "/>
<polyline clip-path="url(#clip320)" style="stroke:#adb2b7; stroke-linecap:round; stroke-linejoin:round; stroke-width:4; stroke-opacity:1; fill:none" points="205.121,1131.16 224.019,1131.16 "/>
<polyline clip-path="url(#clip320)" style="stroke:#adb2b7; stroke-linecap:round; stroke-linejoin:round; stroke-width:4; stroke-opacity:1; fill:none" points="205.121,824.635 224.019,824.635 "/>
<polyline clip-path="url(#clip320)" style="stroke:#adb2b7; stroke-linecap:round; stroke-linejoin:round; stroke-width:4; stroke-opacity:1; fill:none" points="205.121,518.106 224.019,518.106 "/>
<polyline clip-path="url(#clip320)" style="stroke:#adb2b7; stroke-linecap:round; stroke-linejoin:round; stroke-width:4; stroke-opacity:1; fill:none" points="205.121,211.576 224.019,211.576 "/>
<path clip-path="url(#clip320)" d="M117.825 1144.51 L125.464 1144.51 L125.464 1118.14 L117.154 1119.81 L117.154 1115.55 L125.418 1113.88 L130.093 1113.88 L130.093 1144.51 L137.732 1144.51 L137.732 1148.44 L117.825 1148.44 L117.825 1144.51 Z" fill="#9eb1be" fill-rule="evenodd" fill-opacity="1" /><path clip-path="url(#clip320)" d="M157.177 1116.96 Q153.566 1116.96 151.737 1120.53 Q149.931 1124.07 149.931 1131.2 Q149.931 1138.3 151.737 1141.87 Q153.566 1145.41 157.177 1145.41 Q160.811 1145.41 162.616 1141.87 Q164.445 1138.3 164.445 1131.2 Q164.445 1124.07 162.616 1120.53 Q160.811 1116.96 157.177 1116.96 M157.177 1113.26 Q162.987 1113.26 166.042 1117.87 Q169.121 1122.45 169.121 1131.2 Q169.121 1139.93 166.042 1144.53 Q162.987 1149.11 157.177 1149.11 Q151.366 1149.11 148.288 1144.53 Q145.232 1139.93 145.232 1131.2 Q145.232 1122.45 148.288 1117.87 Q151.366 1113.26 157.177 1113.26 Z" fill="#9eb1be" fill-rule="evenodd" fill-opacity="1" /><path clip-path="url(#clip320)" d="M121.043 837.979 L137.362 837.979 L137.362 841.915 L115.418 841.915 L115.418 837.979 Q118.08 835.225 122.663 830.595 Q127.269 825.942 128.45 824.6 Q130.695 822.077 131.575 820.341 Q132.478 818.581 132.478 816.892 Q132.478 814.137 130.533 812.401 Q128.612 810.665 125.51 810.665 Q123.311 810.665 120.857 811.429 Q118.427 812.193 115.649 813.743 L115.649 809.021 Q118.473 807.887 120.927 807.308 Q123.38 806.73 125.418 806.73 Q130.788 806.73 133.982 809.415 Q137.177 812.1 137.177 816.591 Q137.177 818.72 136.367 820.642 Q135.579 822.54 133.473 825.132 Q132.894 825.804 129.792 829.021 Q126.691 832.216 121.043 837.979 Z" fill="#9eb1be" fill-rule="evenodd" fill-opacity="1" /><path clip-path="url(#clip320)" d="M157.177 810.433 Q153.566 810.433 151.737 813.998 Q149.931 817.54 149.931 824.669 Q149.931 831.776 151.737 835.341 Q153.566 838.882 157.177 838.882 Q160.811 838.882 162.616 835.341 Q164.445 831.776 164.445 824.669 Q164.445 817.54 162.616 813.998 Q160.811 810.433 157.177 810.433 M157.177 806.73 Q162.987 806.73 166.042 811.336 Q169.121 815.919 169.121 824.669 Q169.121 833.396 166.042 838.003 Q162.987 842.586 157.177 842.586 Q151.366 842.586 148.288 838.003 Q145.232 833.396 145.232 824.669 Q145.232 815.919 148.288 811.336 Q151.366 806.73 157.177 806.73 Z" fill="#9eb1be" fill-rule="evenodd" fill-opacity="1" /><path clip-path="url(#clip320)" d="M131.181 516.751 Q134.538 517.469 136.413 519.738 Q138.311 522.006 138.311 525.339 Q138.311 530.455 134.792 533.256 Q131.274 536.057 124.793 536.057 Q122.617 536.057 120.302 535.617 Q118.01 535.2 115.556 534.344 L115.556 529.83 Q117.501 530.964 119.816 531.543 Q122.13 532.122 124.654 532.122 Q129.052 532.122 131.343 530.386 Q133.658 528.649 133.658 525.339 Q133.658 522.284 131.505 520.571 Q129.376 518.835 125.556 518.835 L121.529 518.835 L121.529 514.992 L125.742 514.992 Q129.191 514.992 131.019 513.626 Q132.848 512.238 132.848 509.645 Q132.848 506.983 130.95 505.571 Q129.075 504.136 125.556 504.136 Q123.635 504.136 121.436 504.552 Q119.237 504.969 116.598 505.849 L116.598 501.682 Q119.26 500.941 121.575 500.571 Q123.913 500.201 125.973 500.201 Q131.297 500.201 134.399 502.631 Q137.501 505.039 137.501 509.159 Q137.501 512.029 135.857 514.02 Q134.214 515.988 131.181 516.751 Z" fill="#9eb1be" fill-rule="evenodd" fill-opacity="1" /><path clip-path="url(#clip320)" d="M157.177 503.904 Q153.566 503.904 151.737 507.469 Q149.931 511.011 149.931 518.14 Q149.931 525.247 151.737 528.812 Q153.566 532.353 157.177 532.353 Q160.811 532.353 162.616 528.812 Q164.445 525.247 164.445 518.14 Q164.445 511.011 162.616 507.469 Q160.811 503.904 157.177 503.904 M157.177 500.201 Q162.987 500.201 166.042 504.807 Q169.121 509.39 169.121 518.14 Q169.121 526.867 166.042 531.474 Q162.987 536.057 157.177 536.057 Q151.366 536.057 148.288 531.474 Q145.232 526.867 145.232 518.14 Q145.232 509.39 148.288 504.807 Q151.366 500.201 157.177 500.201 Z" fill="#9eb1be" fill-rule="evenodd" fill-opacity="1" /><path clip-path="url(#clip320)" d="M129.862 198.371 L118.056 216.82 L129.862 216.82 L129.862 198.371 M128.635 194.296 L134.515 194.296 L134.515 216.82 L139.445 216.82 L139.445 220.708 L134.515 220.708 L134.515 228.856 L129.862 228.856 L129.862 220.708 L114.26 220.708 L114.26 216.195 L128.635 194.296 Z" fill="#9eb1be" fill-rule="evenodd" fill-opacity="1" /><path clip-path="url(#clip320)" d="M157.177 197.375 Q153.566 197.375 151.737 200.94 Q149.931 204.482 149.931 211.611 Q149.931 218.718 151.737 222.282 Q153.566 225.824 157.177 225.824 Q160.811 225.824 162.616 222.282 Q164.445 218.718 164.445 211.611 Q164.445 204.482 162.616 200.94 Q160.811 197.375 157.177 197.375 M157.177 193.672 Q162.987 193.672 166.042 198.278 Q169.121 202.861 169.121 211.611 Q169.121 220.338 166.042 224.944 Q162.987 229.528 157.177 229.528 Q151.366 229.528 148.288 224.944 Q145.232 220.338 145.232 211.611 Q145.232 202.861 148.288 198.278 Q151.366 193.672 157.177 193.672 Z" fill="#9eb1be" fill-rule="evenodd" fill-opacity="1" /><path clip-path="url(#clip320)" d="M16.4842 1009.4 L16.4842 1002.97 L64.0042 1002.97 L64.0042 1009.4 L16.4842 1009.4 Z" fill="#9eb1be" fill-rule="evenodd" fill-opacity="1" /><path clip-path="url(#clip320)" d="M42.4881 960.796 L64.0042 960.796 L64.0042 966.652 L42.679 966.652 Q37.6183 966.652 35.1038 968.626 Q32.5894 970.599 32.5894 974.546 Q32.5894 979.288 35.6131 982.026 Q38.6368 984.763 43.8567 984.763 L64.0042 984.763 L64.0042 990.651 L28.3562 990.651 L28.3562 984.763 L33.8944 984.763 Q30.6797 982.662 29.0883 979.83 Q27.4968 976.965 27.4968 973.241 Q27.4968 967.098 31.3163 963.947 Q35.1038 960.796 42.4881 960.796 Z" fill="#9eb1be" fill-rule="evenodd" fill-opacity="1" /><path clip-path="url(#clip320)" d="M18.2347 943.322 L28.3562 943.322 L28.3562 931.259 L32.9077 931.259 L32.9077 943.322 L52.2594 943.322 Q56.6199 943.322 57.8613 942.145 Q59.1026 940.935 59.1026 937.275 L59.1026 931.259 L64.0042 931.259 L64.0042 937.275 Q64.0042 944.054 61.4897 946.632 Q58.9434 949.21 52.2594 949.21 L32.9077 949.21 L32.9077 953.507 L28.3562 953.507 L28.3562 949.21 L18.2347 949.21 L18.2347 943.322 Z" fill="#9eb1be" fill-rule="evenodd" fill-opacity="1" /><path clip-path="url(#clip320)" d="M44.7161 893.065 L47.5806 893.065 L47.5806 919.992 Q53.6281 919.61 56.8109 916.363 Q59.9619 913.085 59.9619 907.26 Q59.9619 903.887 59.1344 900.736 Q58.3069 897.553 56.6518 894.434 L62.1899 894.434 Q63.5267 897.585 64.227 900.895 Q64.9272 904.205 64.9272 907.611 Q64.9272 916.141 59.9619 921.138 Q54.9967 926.103 46.5303 926.103 Q37.7774 926.103 32.6531 921.392 Q27.4968 916.65 27.4968 908.629 Q27.4968 901.436 32.1438 897.266 Q36.7589 893.065 44.7161 893.065 M42.9973 898.921 Q38.1912 898.985 35.3266 901.627 Q32.4621 904.237 32.4621 908.565 Q32.4621 913.467 35.2312 916.427 Q38.0002 919.355 43.0292 919.801 L42.9973 898.921 Z" fill="#9eb1be" fill-rule="evenodd" fill-opacity="1" /><path clip-path="url(#clip320)" d="M42.4881 853.82 L64.0042 853.82 L64.0042 859.677 L42.679 859.677 Q37.6183 859.677 35.1038 861.65 Q32.5894 863.624 32.5894 867.57 Q32.5894 872.313 35.6131 875.05 Q38.6368 877.787 43.8567 877.787 L64.0042 877.787 L64.0042 883.676 L28.3562 883.676 L28.3562 877.787 L33.8944 877.787 Q30.6797 875.687 29.0883 872.854 Q27.4968 869.989 27.4968 866.265 Q27.4968 860.122 31.3163 856.971 Q35.1038 853.82 42.4881 853.82 Z" fill="#9eb1be" fill-rule="evenodd" fill-opacity="1" /><path clip-path="url(#clip320)" d="M29.4065 819.414 L34.9447 819.414 Q33.6716 821.896 33.035 824.57 Q32.3984 827.244 32.3984 830.108 Q32.3984 834.469 33.7352 836.665 Q35.072 838.829 37.7456 838.829 Q39.7826 838.829 40.9603 837.27 Q42.1061 835.71 43.1565 830.999 L43.6021 828.994 Q44.9389 822.756 47.3897 820.146 Q49.8086 817.504 54.1691 817.504 Q59.1344 817.504 62.0308 821.451 Q64.9272 825.366 64.9272 832.241 Q64.9272 835.105 64.3543 838.224 Q63.8132 841.312 62.6992 844.749 L56.6518 844.749 Q58.3387 841.503 59.198 838.352 Q60.0256 835.201 60.0256 832.113 Q60.0256 827.976 58.6251 825.748 Q57.1929 823.52 54.6147 823.52 Q52.2276 823.52 50.9545 825.143 Q49.6813 826.734 48.5037 832.177 L48.0262 834.214 Q46.8804 839.657 44.5251 842.076 Q42.138 844.495 38.0002 844.495 Q32.9713 844.495 30.2341 840.93 Q27.4968 837.365 27.4968 830.808 Q27.4968 827.562 27.9743 824.697 Q28.4517 821.833 29.4065 819.414 Z" fill="#9eb1be" fill-rule="evenodd" fill-opacity="1" /><path clip-path="url(#clip320)" d="M28.3562 808.178 L28.3562 802.322 L64.0042 802.322 L64.0042 808.178 L28.3562 808.178 M14.479 808.178 L14.479 802.322 L21.895 802.322 L21.895 808.178 L14.479 808.178 Z" fill="#9eb1be" fill-rule="evenodd" fill-opacity="1" /><path clip-path="url(#clip320)" d="M18.2347 784.275 L28.3562 784.275 L28.3562 772.212 L32.9077 772.212 L32.9077 784.275 L52.2594 784.275 Q56.6199 784.275 57.8613 783.097 Q59.1026 781.888 59.1026 778.228 L59.1026 772.212 L64.0042 772.212 L64.0042 778.228 Q64.0042 785.007 61.4897 787.585 Q58.9434 790.163 52.2594 790.163 L32.9077 790.163 L32.9077 794.46 L28.3562 794.46 L28.3562 790.163 L18.2347 790.163 L18.2347 784.275 Z" fill="#9eb1be" fill-rule="evenodd" fill-opacity="1" /><path clip-path="url(#clip320)" d="M67.3143 749.677 Q73.68 752.16 75.6216 754.515 Q77.5631 756.871 77.5631 760.817 L77.5631 765.496 L72.6615 765.496 L72.6615 762.059 Q72.6615 759.64 71.5157 758.303 Q70.3699 756.966 66.1048 755.343 L63.4312 754.293 L28.3562 768.711 L28.3562 762.504 L56.238 751.364 L28.3562 740.224 L28.3562 734.018 L67.3143 749.677 Z" fill="#9eb1be" fill-rule="evenodd" fill-opacity="1" /><path clip-path="url(#clip320)" d="M14.5426 691.145 Q21.8632 695.41 29.0246 697.479 Q36.186 699.547 43.5384 699.547 Q50.8908 699.547 58.1159 697.479 Q65.3091 695.378 72.5979 691.145 L72.5979 696.237 Q65.1182 701.012 57.8931 703.399 Q50.668 705.754 43.5384 705.754 Q36.4406 705.754 29.2474 703.399 Q22.0542 701.043 14.5426 696.237 L14.5426 691.145 Z" fill="#9eb1be" fill-rule="evenodd" fill-opacity="1" /><path clip-path="url(#clip320)" d="M46.0847 663.581 Q46.0847 670.679 47.7079 673.416 Q49.3312 676.153 53.2461 676.153 Q56.3653 676.153 58.2114 674.116 Q60.0256 672.048 60.0256 668.515 Q60.0256 663.645 56.5881 660.717 Q53.1188 657.757 47.3897 657.757 L46.0847 657.757 L46.0847 663.581 M43.6657 651.9 L64.0042 651.9 L64.0042 657.757 L58.5933 657.757 Q61.8398 659.762 63.3994 662.754 Q64.9272 665.746 64.9272 670.074 Q64.9272 675.549 61.8716 678.795 Q58.7843 682.01 53.6281 682.01 Q47.6125 682.01 44.5569 678 Q41.5014 673.957 41.5014 665.968 L41.5014 657.757 L40.9285 657.757 Q36.8862 657.757 34.6901 660.43 Q32.4621 663.072 32.4621 667.878 Q32.4621 670.934 33.1941 673.83 Q33.9262 676.726 35.3903 679.4 L29.9795 679.4 Q28.7381 676.185 28.1334 673.162 Q27.4968 670.138 27.4968 667.273 Q27.4968 659.539 31.5072 655.72 Q35.5176 651.9 43.6657 651.9 Z" fill="#9eb1be" fill-rule="evenodd" fill-opacity="1" /><path clip-path="url(#clip320)" d="M33.8307 619.18 Q33.2578 620.167 33.0032 621.345 Q32.7167 622.491 32.7167 623.891 Q32.7167 628.856 35.9632 631.53 Q39.1779 634.172 45.2253 634.172 L64.0042 634.172 L64.0042 640.06 L28.3562 640.06 L28.3562 634.172 L33.8944 634.172 Q30.6479 632.326 29.0883 629.366 Q27.4968 626.405 27.4968 622.172 Q27.4968 621.568 27.5923 620.835 Q27.656 620.103 27.8151 619.212 L33.8307 619.18 Z" fill="#9eb1be" fill-rule="evenodd" fill-opacity="1" /><path clip-path="url(#clip320)" d="M46.212 587.447 Q39.7508 587.447 36.0905 590.121 Q32.3984 592.763 32.3984 597.41 Q32.3984 602.057 36.0905 604.73 Q39.7508 607.372 46.212 607.372 Q52.6732 607.372 56.3653 604.73 Q60.0256 602.057 60.0256 597.41 Q60.0256 592.763 56.3653 590.121 Q52.6732 587.447 46.212 587.447 M33.7671 607.372 Q30.5842 605.526 29.0564 602.725 Q27.4968 599.892 27.4968 595.977 Q27.4968 589.484 32.6531 585.442 Q37.8093 581.368 46.212 581.368 Q54.6147 581.368 59.771 585.442 Q64.9272 589.484 64.9272 595.977 Q64.9272 599.892 63.3994 602.725 Q61.8398 605.526 58.657 607.372 L64.0042 607.372 L64.0042 613.26 L14.479 613.26 L14.479 607.372 L33.7671 607.372 Z" fill="#9eb1be" fill-rule="evenodd" fill-opacity="1" /><path clip-path="url(#clip320)" d="M55.9197 570.833 L55.9197 564.117 L64.0042 564.117 L64.0042 570.833 L55.9197 570.833 Z" fill="#9eb1be" fill-rule="evenodd" fill-opacity="1" /><path clip-path="url(#clip320)" d="M14.5426 551.863 L14.5426 546.77 Q22.0542 541.996 29.2474 539.641 Q36.4406 537.254 43.5384 537.254 Q50.668 537.254 57.8931 539.641 Q65.1182 541.996 72.5979 546.77 L72.5979 551.863 Q65.3091 547.63 58.1159 545.561 Q50.8908 543.46 43.5384 543.46 Q36.186 543.46 29.0246 545.561 Q21.8632 547.63 14.5426 551.863 Z" fill="#9eb1be" fill-rule="evenodd" fill-opacity="1" /><path clip-path="url(#clip320)" d="M1099.36 12.096 L1108.15 12.096 L1123.18 34.5785 L1138.29 12.096 L1147.08 12.096 L1127.64 41.141 L1148.38 72.576 L1139.59 72.576 L1122.57 46.8528 L1105.44 72.576 L1096.61 72.576 L1118.2 40.2903 L1099.36 12.096 Z" fill="#adb2b7" fill-rule="evenodd" fill-opacity="1" /><path clip-path="url(#clip320)" d="M1187.79 44.2197 Q1190.43 45.1109 1192.9 48.0275 Q1195.41 50.9442 1197.92 56.0483 L1206.22 72.576 L1197.43 72.576 L1189.7 57.061 Q1186.7 50.9847 1183.86 48.9997 Q1181.07 47.0148 1176.21 47.0148 L1167.3 47.0148 L1167.3 72.576 L1159.11 72.576 L1159.11 12.096 L1177.58 12.096 Q1187.96 12.096 1193.06 16.4305 Q1198.16 20.7649 1198.16 29.5149 Q1198.16 35.2267 1195.49 38.994 Q1192.86 42.7613 1187.79 44.2197 M1167.3 18.8205 L1167.3 40.2903 L1177.58 40.2903 Q1183.5 40.2903 1186.5 37.5762 Q1189.53 34.8216 1189.53 29.5149 Q1189.53 24.2082 1186.5 21.5346 Q1183.5 18.8205 1177.58 18.8205 L1167.3 18.8205 Z" fill="#adb2b7" fill-rule="evenodd" fill-opacity="1" /><path clip-path="url(#clip320)" d="M1224.94 18.8205 L1224.94 65.8515 L1234.82 65.8515 Q1247.34 65.8515 1253.13 60.1802 Q1258.97 54.509 1258.97 42.2752 Q1258.97 30.1225 1253.13 24.4918 Q1247.34 18.8205 1234.82 18.8205 L1224.94 18.8205 M1216.76 12.096 L1233.57 12.096 Q1251.15 12.096 1259.37 19.4281 Q1267.6 26.7198 1267.6 42.2752 Q1267.6 57.9117 1259.33 65.2439 Q1251.07 72.576 1233.57 72.576 L1216.76 72.576 L1216.76 12.096 Z" fill="#adb2b7" fill-rule="evenodd" fill-opacity="1" /><path clip-path="url(#clip320)" d="M1302.92 46.5287 L1324.75 46.5287 L1324.75 53.1722 L1302.92 53.1722 L1302.92 46.5287 Z" fill="#adb2b7" fill-rule="evenodd" fill-opacity="1" /><path clip-path="url(#clip320)" d="M1399.57 14.0809 L1399.57 22.0612 Q1394.92 19.8332 1390.78 18.7395 Q1386.65 17.6457 1382.8 17.6457 Q1376.12 17.6457 1372.47 20.2383 Q1368.87 22.8309 1368.87 27.611 Q1368.87 31.6214 1371.26 33.6873 Q1373.69 35.7128 1380.41 36.9686 L1385.36 37.9813 Q1394.51 39.7232 1398.85 44.1387 Q1403.22 48.5136 1403.22 55.8863 Q1403.22 64.6767 1397.31 69.2137 Q1391.43 73.7508 1380.05 73.7508 Q1375.76 73.7508 1370.89 72.7785 Q1366.07 71.8063 1360.89 69.9024 L1360.89 61.4765 Q1365.87 64.2716 1370.65 65.6895 Q1375.43 67.1073 1380.05 67.1073 Q1387.06 67.1073 1390.86 64.3527 Q1394.67 61.598 1394.67 56.4939 Q1394.67 52.0379 1391.92 49.5264 Q1389.2 47.0148 1382.97 45.759 L1377.98 44.7868 Q1368.83 42.9639 1364.74 39.075 Q1360.65 35.1862 1360.65 28.2591 Q1360.65 20.2383 1366.28 15.6203 Q1371.95 11.0023 1381.87 11.0023 Q1386.13 11.0023 1390.54 11.7719 Q1394.96 12.5416 1399.57 14.0809 Z" fill="#adb2b7" fill-rule="evenodd" fill-opacity="1" /><path clip-path="url(#clip320)" d="M1461.27 16.7545 L1461.27 25.383 Q1457.14 21.5346 1452.44 19.6307 Q1447.78 17.7268 1442.51 17.7268 Q1432.14 17.7268 1426.63 24.0867 Q1421.13 30.4061 1421.13 42.3968 Q1421.13 54.3469 1426.63 60.7069 Q1432.14 67.0263 1442.51 67.0263 Q1447.78 67.0263 1452.44 65.1223 Q1457.14 63.2184 1461.27 59.3701 L1461.27 67.9175 Q1456.98 70.8341 1452.16 72.2924 Q1447.38 73.7508 1442.03 73.7508 Q1428.3 73.7508 1420.4 65.3654 Q1412.5 56.9395 1412.5 42.3968 Q1412.5 27.8135 1420.4 19.4281 Q1428.3 11.0023 1442.03 11.0023 Q1447.46 11.0023 1452.24 12.4606 Q1457.06 13.8784 1461.27 16.7545 Z" fill="#adb2b7" fill-rule="evenodd" fill-opacity="1" /><polyline clip-path="url(#clip322)" style="stroke:#fe4365; stroke-linecap:round; stroke-linejoin:round; stroke-width:4; stroke-opacity:1; fill:none" points="265.903,1368.08 267.931,1370.96 269.959,1371.17 271.987,1382.47 274.015,1386.4 276.044,1371.15 278.072,1379.36 280.1,1371.89 282.128,1368.65 284.156,1379.84 286.184,1371.64 288.212,1378.77 290.24,1375.67 292.268,1375.82 294.296,1384.15 296.325,1375.18 298.353,1370.81 300.381,1374.04 302.409,1375.61 304.437,1381.02 306.465,1369.51 308.493,1371.05 310.521,1376.8 312.549,1374.02 314.577,1365.98 316.606,1362.9 318.634,1366.21 320.662,1377.74 322.69,1374.73 324.718,1374.96 326.746,1367.92 328.774,1368.57 330.802,1367.21 332.83,1354.85 334.858,1379.71 336.887,1368.48 338.915,1365.95 340.943,1368.64 342.971,1361.16 344.999,1368.09 347.027,1370.79 349.055,1378.86 351.083,1374.57 353.111,1376.31 355.139,1363.53 357.168,1373.28 359.196,1360.43 361.224,1369.08 363.252,1377.26 365.28,1374.11 367.308,1372.39 369.336,1379.79 371.364,1362.19 373.392,1378.42 375.42,1365.5 377.449,1363.6 379.477,1377.47 381.505,1376.04 383.533,1362.35 385.561,1373.7 387.589,1371.13 389.617,1355.34 391.645,1371.69 393.673,1361.57 395.701,1361.51 397.73,1367.85 399.758,1366.08 401.786,1367.01 403.814,1366.72 405.842,1373.48 407.87,1365.7 409.898,1362.5 411.926,1370.64 413.954,1375.43 415.982,1356.66 418.011,1377.95 420.039,1367.99 422.067,1361.87 424.095,1367.81 426.123,1362.61 428.151,1366.73 430.179,1365.06 432.207,1370.64 434.235,1362.08 436.263,1372.42 438.291,1367.42 440.32,1365.63 442.348,1367.55 444.376,1344.31 446.404,1376.25 448.432,1367.6 450.46,1386.22 452.488,1363.97 454.516,1360.69 456.544,1370.61 458.572,1374 460.601,1345.53 462.629,1363.53 464.657,1367.68 466.685,1371.56 468.713,1359.65 470.741,1372.38 472.769,1358.24 474.797,1367.74 476.825,1358.54 478.853,1369.11 480.882,1353.74 482.91,1359.71 484.938,1365.69 486.966,1365.39 488.994,1356.07 491.022,1358.91 493.05,1360.59 495.078,1360.24 497.106,1358.8 499.134,1348.84 501.163,1365.06 503.191,1358.82 505.219,1362.85 507.247,1352.16 509.275,1360.97 511.303,1355.97 513.331,1363.13 515.359,1348.22 517.387,1368.25 519.415,1369.39 521.444,1352.02 523.472,1373.58 525.5,1351.33 527.528,1351.01 529.556,1366.53 531.584,1361 533.612,1356.68 535.64,1357.56 537.668,1354.61 539.696,1361.3 541.725,1349.27 543.753,1353.58 545.781,1346.38 547.809,1356.65 549.837,1356.79 551.865,1357.03 553.893,1357.26 555.921,1363.96 557.949,1314.74 559.977,1324.85 562.006,1249.07 564.034,1131.48 566.062,1087.97 568.09,1214.95 570.118,1294.52 572.146,1335.3 574.174,1343.55 576.202,1341.64 578.23,1351.72 580.258,1353.07 582.287,1348.02 584.315,1348.48 586.343,1348.25 588.371,1352.33 590.399,1352.76 592.427,1350.6 594.455,1343.41 596.483,1356.99 598.511,1363.56 600.539,1359.59 602.567,1350.54 604.596,1353.46 606.624,1357.48 608.652,1354.73 610.68,1369.35 612.708,1360.25 614.736,1354.09 616.764,1338.02 618.792,1353.9 620.82,1347.85 622.848,1356.58 624.877,1350.43 626.905,1354.01 628.933,1357.66 630.961,1354.31 632.989,1359.27 635.017,1353.85 637.045,1357.06 639.073,1370.85 641.101,1352.59 643.129,1343.03 645.158,1337.85 647.186,1350.22 649.214,1345.36 651.242,1365.39 653.27,1349.64 655.298,1345.84 657.326,1342.93 659.354,1339.38 661.382,1345.79 663.41,1333.41 665.439,1346.6 667.467,1335.04 669.495,1352.28 671.523,1346.75 673.551,1339.46 675.579,1344.59 677.607,1360.25 679.635,1333.07 681.663,1330.44 683.691,1334.48 685.72,1314.19 687.748,1269.08 689.776,1122.68 691.804,938.429 693.832,793.984 695.86,1088.28 697.888,1227.57 699.916,1321.31 701.944,1316.69 703.972,1336.87 706.001,1331.03 708.029,1353.18 710.057,1353.08 712.085,1342.27 714.113,1337.31 716.141,1344.83 718.169,1333.31 720.197,1331.5 722.225,1326.83 724.253,1339.42 726.282,1331.1 728.31,1356.89 730.338,1353.9 732.366,1332.33 734.394,1348.23 736.422,1345.31 738.45,1337.74 740.478,1359.37 742.506,1351.61 744.534,1343.68 746.563,1339.01 748.591,1353.39 750.619,1329.97 752.647,1351.33 754.675,1357.97 756.703,1345.49 758.731,1335.58 760.759,1326.1 762.787,1331.06 764.815,1338.87 766.843,1356.68 768.872,1340.5 770.9,1354.23 772.928,1339.11 774.956,1331.64 776.984,1333.73 779.012,1332.89 781.04,1333.76 783.068,1335.03 785.096,1349.25 787.124,1319.14 789.153,1293.58 791.181,1141.86 793.209,953.705 795.237,1062.65 797.265,1162.58 799.293,1252.05 801.321,1328.85 803.349,1325.49 805.377,1345.07 807.405,1343.9 809.434,1334.24 811.462,1326 813.49,1336.82 815.518,1336.99 817.546,1327.59 819.574,1348.02 821.602,1347.99 823.63,1338.43 825.658,1344.74 827.686,1337.24 829.715,1341.67 831.743,1345.95 833.771,1337.72 835.799,1341.16 837.827,1362.85 839.855,1307.97 841.883,1342.55 843.911,1349.01 845.939,1351.18 847.967,1344.13 849.996,1354.95 852.024,1362.14 854.052,1352.13 856.08,1348.82 858.108,1336.2 860.136,1345.71 862.164,1340.78 864.192,1339.59 866.22,1356.69 868.248,1335.94 870.277,1330.96 872.305,1341.59 874.333,1324.81 876.361,1304.89 878.389,1239.08 880.417,1190.02 882.445,1134.44 884.473,1182.38 886.501,1250.21 888.529,1301.5 890.558,1320.22 892.586,1312.46 894.614,1342.83 896.642,1348.11 898.67,1358.71 900.698,1346.3 902.726,1333.93 904.754,1328.7 906.782,1357 908.81,1318.96 910.839,1327.17 912.867,1338.9 914.895,1331.3 916.923,1330.85 918.951,1316.74 920.979,1344.11 923.007,1337.32 925.035,1341.08 927.063,1334.42 929.091,1331.79 931.119,1324.15 933.148,1315.81 935.176,1346.8 937.204,1345.77 939.232,1323.93 941.26,1314.02 943.288,1349.76 945.316,1333.91 947.344,1316.78 949.372,1310.95 951.4,1314.46 953.429,1277.73 955.457,1243.8 957.485,1137.07 959.513,764.177 961.541,559.792 963.569,381.927 965.597,734.549 967.625,1086.08 969.653,1190.37 971.681,1272.44 973.71,1320.19 975.738,1295.47 977.766,1304.11 979.794,1321.81 981.822,1329.89 983.85,1319.92 985.878,1326.01 987.906,1323.86 989.934,1330.23 991.962,1322.81 993.991,1332.18 996.019,1340.12 998.047,1344.87 1000.07,1313.84 1002.1,1323.15 1004.13,1320.71 1006.16,1314.73 1008.19,1323.25 1010.22,1328.14 1012.24,1330.76 1014.27,1344.01 1016.3,1323.73 1018.33,1321.54 1020.36,1324.06 1022.38,1323.92 1024.41,1309.43 1026.44,1300.12 1028.47,1274.18 1030.5,1219.56 1032.52,1020.47 1034.55,867.052 1036.58,620.888 1038.61,511.127 1040.64,710.593 1042.66,1057.74 1044.69,1196.12 1046.72,1264.79 1048.75,1297.94 1050.78,1302.26 1052.81,1309.09 1054.83,1318.76 1056.86,1337.1 1058.89,1320.02 1060.92,1317.61 1062.95,1322.64 1064.97,1332.69 1067,1334.73 1069.03,1333.33 1071.06,1314.4 1073.09,1331.61 1075.11,1333.72 1077.14,1334.78 1079.17,1342.73 1081.2,1360.46 1083.23,1332.47 1085.26,1339.17 1087.28,1319.26 1089.31,1320.63 1091.34,1324.77 1093.37,1326.34 1095.4,1337.94 1097.42,1336.21 1099.45,1323.8 1101.48,1328.69 1103.51,1324.97 1105.54,1336.62 1107.56,1335.44 1109.59,1310.47 1111.62,1342.52 1113.65,1320.75 1115.68,1326.36 1117.7,1339.09 1119.73,1323.74 1121.76,1332.96 1123.79,1316.29 1125.82,1339.1 1127.85,1332.97 1129.87,1326.9 1131.9,1334.07 1133.93,1324.15 1135.96,1340.44 1137.99,1316.43 1140.01,1335.48 1142.04,1318.27 1144.07,1316.81 1146.1,1333.84 1148.13,1347.74 1150.15,1319.91 1152.18,1329.05 1154.21,1317.07 1156.24,1331.29 1158.27,1331.43 1160.29,1337.02 1162.32,1310.58 1164.35,1309.31 1166.38,1298.74 1168.41,1325.59 1170.44,1280.73 1172.46,1240.2 1174.49,1163.33 1176.52,977.328 1178.55,988.715 1180.58,997.859 1182.6,1068.4 1184.63,1199.75 1186.66,1252.52 1188.69,1293.92 1190.72,1324.11 1192.74,1293.7 1194.77,1299.84 1196.8,1331.78 1198.83,1312.43 1200.86,1322.39 1202.88,1329.16 1204.91,1315.14 1206.94,1337.22 1208.97,1292.47 1211,1330.65 1213.03,1303.82 1215.05,1321.61 1217.08,1309.55 1219.11,1294.44 1221.14,1306 1223.17,1312.55 1225.19,1320.17 1227.22,1300.11 1229.25,1300.32 1231.28,1296.97 1233.31,1283.88 1235.33,1284.15 1237.36,1261.54 1239.39,1235.09 1241.42,1109.38 1243.45,890.896 1245.47,474.19 1247.5,160.256 1249.53,422.628 1251.56,746.753 1253.59,984.086 1255.62,1166.79 1257.64,1273.52 1259.67,1290.75 1261.7,1270.58 1263.73,1308.94 1265.76,1288.24 1267.78,1328.05 1269.81,1296.57 1271.84,1306.61 1273.87,1343.82 1275.9,1323.39 1277.92,1289.2 1279.95,1315.49 1281.98,1342.24 1284.01,1315.54 1286.04,1324.05 1288.06,1305.78 1290.09,1295.39 1292.12,1324.9 1294.15,1322.61 1296.18,1317.39 1298.21,1305.26 1300.23,1282.98 1302.26,1312.16 1304.29,1301.05 1306.32,1260.85 1308.35,1204.2 1310.37,1071.65 1312.4,889.144 1314.43,654.193 1316.46,661.67 1318.49,727.914 1320.51,893.979 1322.54,1111.98 1324.57,1212.94 1326.6,1291.64 1328.63,1264.9 1330.65,1294.43 1332.68,1299.75 1334.71,1326.46 1336.74,1328.36 1338.77,1312.65 1340.8,1308.96 1342.82,1298.61 1344.85,1311.47 1346.88,1318.08 1348.91,1342.51 1350.94,1318.62 1352.96,1322.35 1354.99,1310.61 1357.02,1308.57 1359.05,1312.63 1361.08,1279.8 1363.1,1294.41 1365.13,1308.38 1367.16,1307.62 1369.19,1293.99 1371.22,1275.87 1373.25,1253.28 1375.27,1242.38 1377.3,1155.81 1379.33,1012.77 1381.36,843.112 1383.39,769.47 1385.41,635.413 1387.44,631.046 1389.47,1024.54 1391.5,1093.44 1393.53,1208.23 1395.55,1270.02 1397.58,1275.22 1399.61,1289.73 1401.64,1302.61 1403.67,1289.57 1405.69,1308.91 1407.72,1316.73 1409.75,1303.23 1411.78,1293.01 1413.81,1309.97 1415.84,1311.6 1417.86,1302.23 1419.89,1298.92 1421.92,1320 1423.95,1302.74 1425.98,1324.19 1428,1314.19 1430.03,1303.33 1432.06,1287.39 1434.09,1329.2 1436.12,1322.61 1438.14,1323.26 1440.17,1313.74 1442.2,1292.4 1444.23,1278.94 1446.26,1267.14 1448.28,1249.43 1450.31,1263.02 1452.34,1161.71 1454.37,1088.98 1456.4,1098.17 1458.43,1142.11 1460.45,1200.17 1462.48,1271.97 1464.51,1300.14 1466.54,1293.42 1468.57,1283.73 1470.59,1288.58 1472.62,1297.99 1474.65,1329.71 1476.68,1315.74 1478.71,1304.47 1480.73,1301.6 1482.76,1322.13 1484.79,1303.37 1486.82,1302.68 1488.85,1302.43 1490.87,1299.29 1492.9,1325.25 1494.93,1299.38 1496.96,1290.48 1498.99,1298.79 1501.02,1313.56 1503.04,1308.36 1505.07,1332.52 1507.1,1297.85 1509.13,1312.59 1511.16,1296.88 1513.18,1270.71 1515.21,1260.24 1517.24,1207.65 1519.27,1177.37 1521.3,1033.21 1523.32,913.039 1525.35,697.138 1527.38,702.501 1529.41,778.5 1531.44,1005.37 1533.46,1050.81 1535.49,1196.51 1537.52,1237.55 1539.55,1252.31 1541.58,1284.16 1543.61,1286.18 1545.63,1273.95 1547.66,1303.99 1549.69,1323.3 1551.72,1320.1 1553.75,1295.5 1555.77,1296.46 1557.8,1319.44 1559.83,1309.31 1561.86,1329.43 1563.89,1313.43 1565.91,1330.99 1567.94,1305.82 1569.97,1292.06 1572,1299.96 1574.03,1314.97 1576.05,1320.29 1578.08,1295.01 1580.11,1303.78 1582.14,1300.15 1584.17,1246.26 1586.2,1252.01 1588.22,1264.7 1590.25,1185.88 1592.28,1092.43 1594.31,948.695 1596.34,653.308 1598.36,609.7 1600.39,342.899 1602.42,323.089 1604.45,308.732 1606.48,498.641 1608.5,714.727 1610.53,952.775 1612.56,1088.91 1614.59,1192.97 1616.62,1221.85 1618.64,1301 1620.67,1280.4 1622.7,1317.21 1624.73,1292.99 1626.76,1280.39 1628.79,1303.99 1630.81,1287.11 1632.84,1296.37 1634.87,1305.39 1636.9,1291.83 1638.93,1297.98 1640.95,1295.95 1642.98,1320.58 1645.01,1314.67 1647.04,1308.61 1649.07,1303.85 1651.09,1311.31 1653.12,1319.73 1655.15,1301.58 1657.18,1314.84 1659.21,1332.38 1661.24,1308.47 1663.26,1326.9 1665.29,1305.43 1667.32,1307.8 1669.35,1301.55 1671.38,1318.57 1673.4,1324.39 1675.43,1322.26 1677.46,1327.72 1679.49,1290.26 1681.52,1318.59 1683.54,1312.48 1685.57,1310.23 1687.6,1304.68 1689.63,1314.24 1691.66,1318.12 1693.68,1339.49 1695.71,1300.72 1697.74,1307.04 1699.77,1303.56 1701.8,1330.06 1703.83,1296.09 1705.85,1311.45 1707.88,1287.73 1709.91,1323.09 1711.94,1316.14 1713.97,1316.71 1715.99,1308.66 1718.02,1297.62 1720.05,1305.37 1722.08,1315.43 1724.11,1334.7 1726.13,1305.79 1728.16,1311.71 1730.19,1319.08 1732.22,1308.42 1734.25,1316.36 1736.27,1310.09 1738.3,1299.82 1740.33,1310.36 1742.36,1316.1 1744.39,1346.65 1746.42,1322.81 1748.44,1302.46 1750.47,1295.5 1752.5,1289.18 1754.53,1296.93 1756.56,1300.93 1758.58,1291.39 1760.61,1291.74 1762.64,1265.13 1764.67,1260.51 1766.7,1248.68 1768.72,1172.35 1770.75,1203.49 1772.78,1204.43 1774.81,1201.88 1776.84,1249.33 1778.86,1219.09 1780.89,1258.1 1782.92,1296.45 1784.95,1278.71 1786.98,1311.09 1789.01,1307.2 1791.03,1303.89 1793.06,1304.65 1795.09,1315.02 1797.12,1325.83 1799.15,1322.15 1801.17,1306.78 1803.2,1306.46 1805.23,1311.4 1807.26,1311.51 1809.29,1305.47 1811.31,1311.25 1813.34,1311.48 1815.37,1312.77 1817.4,1296.37 1819.43,1304.81 1821.45,1310.9 1823.48,1298.12 1825.51,1258.65 1827.54,1309.76 1829.57,1309.57 1831.6,1308.48 1833.62,1295.23 1835.65,1304.27 1837.68,1288.15 1839.71,1301.27 1841.74,1295.21 1843.76,1284.25 1845.79,1293.21 1847.82,1300.51 1849.85,1272.07 1851.88,1276.2 1853.9,1244.8 1855.93,1234.36 1857.96,1204.61 1859.99,1179.07 1862.02,1144.84 1864.04,1062.07 1866.07,966.267 1868.1,711.974 1870.13,755.034 1872.16,569.709 1874.19,659.874 1876.21,566.054 1878.24,619.196 1880.27,706.062 1882.3,903.382 1884.33,1031.05 1886.35,1041.68 1888.38,1116.51 1890.41,1211.34 1892.44,1246.51 1894.47,1234.21 1896.49,1232.78 1898.52,1281.3 1900.55,1251.41 1902.58,1286.82 1904.61,1263.54 1906.64,1279.34 1908.66,1286.37 1910.69,1303.36 1912.72,1301.9 1914.75,1294.06 1916.78,1286.55 1918.8,1294.87 1920.83,1296.19 1922.86,1300.59 1924.89,1301.93 1926.92,1294.31 1928.94,1308.1 1930.97,1302.51 1933,1297.12 1935.03,1290.42 1937.06,1316.84 1939.08,1324.12 1941.11,1318.49 1943.14,1283.52 1945.17,1306.46 1947.2,1301.21 1949.23,1305.39 1951.25,1276.17 1953.28,1302.07 1955.31,1306.45 1957.34,1293.31 1959.37,1305.66 1961.39,1327.42 1963.42,1293.67 1965.45,1315.09 1967.48,1303.44 1969.51,1294.91 1971.53,1293.06 1973.56,1295.03 1975.59,1295.74 1977.62,1274.23 1979.65,1282.11 1981.67,1269.13 1983.7,1287.21 1985.73,1214.06 1987.76,1227.22 1989.79,1236.81 1991.82,1165.22 1993.84,1121.88 1995.87,1092.74 1997.9,1090.05 1999.93,964.109 2001.96,972.413 2003.98,982.264 2006.01,849.429 2008.04,970.01 2010.07,1036.6 2012.1,1072.72 2014.12,1034.59 2016.15,1005.07 2018.18,1112.67 2020.21,1158.21 2022.24,1130.6 2024.26,1204.21 2026.29,1243.71 2028.32,1236.45 2030.35,1243.76 2032.38,1232.34 2034.41,1254.7 2036.43,1287.22 2038.46,1252.06 2040.49,1281.84 2042.52,1289.25 2044.55,1303.77 2046.57,1327.7 2048.6,1294.25 2050.63,1276.48 2052.66,1279.56 2054.69,1308.47 2056.71,1318.33 2058.74,1290.02 2060.77,1301.87 2062.8,1337.05 2064.83,1287.04 2066.85,1285.22 2068.88,1307.62 2070.91,1331.54 2072.94,1298.74 2074.97,1294.01 2077,1305.48 2079.02,1287.95 2081.05,1341.99 2083.08,1305.46 2085.11,1290.6 2087.14,1308.33 2089.16,1306.34 2091.19,1318.33 2093.22,1299.5 2095.25,1289.12 2097.28,1277.47 2099.3,1295.81 2101.33,1284.7 2103.36,1289.08 2105.39,1293.98 2107.42,1323.74 2109.44,1293.39 2111.47,1302.77 2113.5,1302.06 2115.53,1315.89 2117.56,1323.83 2119.59,1310.08 2121.61,1317.96 2123.64,1318.27 2125.67,1298.27 2127.7,1330.68 2129.73,1304.02 2131.75,1299.09 2133.78,1313.44 2135.81,1296.67 2137.84,1332.06 2139.87,1327.77 2141.89,1311.38 2143.92,1281.45 2145.95,1302.07 2147.98,1298.95 2150.01,1316.95 2152.03,1307.04 2154.06,1328.56 2156.09,1298.48 2158.12,1297.18 2160.15,1321.93 2162.18,1297.02 2164.2,1323.37 2166.23,1323.61 2168.26,1323.47 2170.29,1308.44 2172.32,1322.41 2174.34,1317.24 2176.37,1295.9 2178.4,1308.61 2180.43,1307.07 2182.46,1301.77 2184.48,1308.84 2186.51,1286.7 2188.54,1308.06 2190.57,1295.51 2192.6,1308.9 2194.63,1306.32 2196.65,1312.07 2198.68,1294.69 2200.71,1303.49 2202.74,1291.98 2204.77,1291.2 2206.79,1306.86 2208.82,1313.18 2210.85,1336.03 2212.88,1324.18 2214.91,1307.35 2216.93,1291.4 2218.96,1311.53 2220.99,1313.21 2223.02,1302.83 2225.05,1295.76 2227.07,1301.82 2229.1,1297 2231.13,1291.81 2233.16,1314.52 2235.19,1304.95 2237.22,1313.44 2239.24,1325.55 2241.27,1295.08 2243.3,1326.54 2245.33,1289.46 2247.36,1307.5 2249.38,1300.5 2251.41,1329.12 2253.44,1297.84 2255.47,1298.49 2257.5,1328.4 2259.52,1323.75 2261.55,1278.12 2263.58,1327.33 2265.61,1313.05 2267.64,1296.21 2269.66,1295.28 2271.69,1316.8 2273.72,1293.68 2275.75,1311.88 2277.78,1299.54 2279.81,1289.99 2281.83,1274.44 2283.86,1280.39 2285.89,1285.28 2287.92,1262.32 2289.95,1285.99 "/>
<path clip-path="url(#clip320)" d="M276.709 270.476 L543.903 270.476 L543.903 166.796 L276.709 166.796  Z" fill="#282c34" fill-rule="evenodd" fill-opacity="1"/>
<polyline clip-path="url(#clip320)" style="stroke:#9eb1be; stroke-linecap:round; stroke-linejoin:round; stroke-width:4; stroke-opacity:1; fill:none" points="276.709,270.476 543.903,270.476 543.903,166.796 276.709,166.796 276.709,270.476 "/>
<polyline clip-path="url(#clip320)" style="stroke:#fe4365; stroke-linecap:round; stroke-linejoin:round; stroke-width:4; stroke-opacity:1; fill:none" points="300.571,218.636 443.747,218.636 "/>
<path clip-path="url(#clip320)" d="M481.452 238.323 Q479.647 242.953 477.934 244.365 Q476.221 245.777 473.35 245.777 L469.948 245.777 L469.948 242.212 L472.448 242.212 Q474.207 242.212 475.179 241.379 Q476.151 240.545 477.332 237.443 L478.096 235.499 L467.61 209.99 L472.124 209.99 L480.225 230.268 L488.327 209.99 L492.841 209.99 L481.452 238.323 Z" fill="#adb2b7" fill-rule="evenodd" fill-opacity="1" /><path clip-path="url(#clip320)" d="M500.133 231.981 L507.772 231.981 L507.772 205.615 L499.461 207.282 L499.461 203.022 L507.725 201.356 L512.401 201.356 L512.401 231.981 L520.04 231.981 L520.04 235.916 L500.133 235.916 L500.133 231.981 Z" fill="#adb2b7" fill-rule="evenodd" fill-opacity="1" /></svg>
